ISO-10303-21;
HEADER;
/* Generated by software containing ST-Developer
 * from STEP Tools, Inc. (www.steptools.com) 
 */

FILE_DESCRIPTION(
/* description */ (''),
/* implementation_level */ '2;1');

FILE_NAME(
/* name */ 'Link 1.step',
/* time_stamp */ '2026-09-24T22:36:54+05:30',
/* author */ (''),
/* organization */ (''),
/* preprocessor_version */ 'ST-DEVELOPER v20.2',
/* originating_system */ 'Autodesk Translation Framework v15.15.0.0',
/* authorisation */ '');

FILE_SCHEMA (('AUTOMOTIVE_DESIGN { 1 0 10303 214 3 1 1 }'));
ENDSEC;

DATA;
#10=MECHANICAL_DESIGN_GEOMETRIC_PRESENTATION_REPRESENTATION('',(#13),#1541);
#11=SHAPE_REPRESENTATION_RELATIONSHIP('SRR','None',#1548,#12);
#12=ADVANCED_BREP_SHAPE_REPRESENTATION('',(#14),#1540);
#13=STYLED_ITEM('',(#1558),#14);
#14=MANIFOLD_SOLID_BREP('Body1',#699);
#15=FACE_BOUND('',#161,.T.);
#16=FACE_BOUND('',#174,.T.);
#17=FACE_BOUND('',#175,.T.);
#18=FACE_BOUND('',#176,.T.);
#19=FACE_BOUND('',#190,.T.);
#20=FACE_BOUND('',#191,.T.);
#21=FACE_BOUND('',#192,.T.);
#22=FACE_BOUND('',#194,.T.);
#23=FACE_BOUND('',#195,.T.);
#24=FACE_BOUND('',#196,.T.);
#25=FACE_BOUND('',#197,.T.);
#26=FACE_BOUND('',#198,.T.);
#27=FACE_BOUND('',#199,.T.);
#28=CONICAL_SURFACE('',#728,155.,0.785398163397448);
#29=CONICAL_SURFACE('',#736,155.,0.78539816339745);
#30=CONICAL_SURFACE('',#749,155.,0.785398163397447);
#31=CONICAL_SURFACE('',#754,155.,0.785398163397449);
#32=LINE('',#1073,#58);
#33=LINE('',#1077,#59);
#34=LINE('',#1245,#60);
#35=LINE('',#1258,#61);
#36=LINE('',#1390,#62);
#37=LINE('',#1438,#63);
#38=LINE('',#1439,#64);
#39=LINE('',#1440,#65);
#40=LINE('',#1461,#66);
#41=LINE('',#1464,#67);
#42=LINE('',#1471,#68);
#43=LINE('',#1473,#69);
#44=LINE('',#1475,#70);
#45=LINE('',#1477,#71);
#46=LINE('',#1488,#72);
#47=LINE('',#1494,#73);
#48=LINE('',#1500,#74);
#49=LINE('',#1504,#75);
#50=LINE('',#1508,#76);
#51=LINE('',#1514,#77);
#52=LINE('',#1519,#78);
#53=LINE('',#1522,#79);
#54=LINE('',#1526,#80);
#55=LINE('',#1527,#81);
#56=LINE('',#1532,#82);
#57=LINE('',#1535,#83);
#58=VECTOR('',#820,10.);
#59=VECTOR('',#823,10.);
#60=VECTOR('',#852,10.);
#61=VECTOR('',#859,19.);
#62=VECTOR('',#884,5.);
#63=VECTOR('',#887,10.);
#64=VECTOR('',#888,10.);
#65=VECTOR('',#889,10.);
#66=VECTOR('',#898,10.);
#67=VECTOR('',#901,10.);
#68=VECTOR('',#912,10.);
#69=VECTOR('',#915,10.);
#70=VECTOR('',#918,19.);
#71=VECTOR('',#919,19.);
#72=VECTOR('',#932,1.5);
#73=VECTOR('',#939,1.50000000000002);
#74=VECTOR('',#946,3.00000000000001);
#75=VECTOR('',#951,3.00000000000001);
#76=VECTOR('',#956,1.5);
#77=VECTOR('',#963,1.50000000000002);
#78=VECTOR('',#970,10.);
#79=VECTOR('',#973,10.);
#80=VECTOR('',#978,10.);
#81=VECTOR('',#979,10.);
#82=VECTOR('',#986,10.);
#83=VECTOR('',#991,10.);
#84=CYLINDRICAL_SURFACE('',#722,21.);
#85=CYLINDRICAL_SURFACE('',#739,19.);
#86=CYLINDRICAL_SURFACE('',#752,5.);
#87=CYLINDRICAL_SURFACE('',#757,21.);
#88=CYLINDRICAL_SURFACE('',#765,19.);
#89=CYLINDRICAL_SURFACE('',#771,1.2645);
#90=CYLINDRICAL_SURFACE('',#773,1.2645);
#91=CYLINDRICAL_SURFACE('',#776,3.00000000000001);
#92=CYLINDRICAL_SURFACE('',#779,3.00000000000001);
#93=CYLINDRICAL_SURFACE('',#781,1.2645);
#94=CYLINDRICAL_SURFACE('',#783,1.2645);
#95=CYLINDRICAL_SURFACE('',#786,150.);
#96=CYLINDRICAL_SURFACE('',#788,150.);
#97=CYLINDRICAL_SURFACE('',#791,150.);
#98=CYLINDRICAL_SURFACE('',#793,150.);
#99=PLANE('',#718);
#100=PLANE('',#753);
#101=PLANE('',#760);
#102=PLANE('',#761);
#103=PLANE('',#764);
#104=PLANE('',#767);
#105=PLANE('',#790);
#106=PLANE('',#795);
#107=PLANE('',#796);
#108=PLANE('',#797);
#109=B_SPLINE_SURFACE_WITH_KNOTS('',3,3,((#1013,#1014,#1015,#1016,#1017,
#1018,#1019),(#1020,#1021,#1022,#1023,#1024,#1025,#1026),(#1027,#1028,#1029,
#1030,#1031,#1032,#1033),(#1034,#1035,#1036,#1037,#1038,#1039,#1040)),
 .UNSPECIFIED.,.F.,.F.,.F.,(4,4),(4,1,1,1,4),(0.,1.),(-2.44907339234837,
-2.32063197691224,-2.23500436662148,-2.19219056147611,-2.14937675633073),
 .UNSPECIFIED.);
#110=B_SPLINE_SURFACE_WITH_KNOTS('',3,3,((#1095,#1096,#1097,#1098,#1099,
#1100),(#1101,#1102,#1103,#1104,#1105,#1106),(#1107,#1108,#1109,#1110,#1111,
#1112),(#1113,#1114,#1115,#1116,#1117,#1118)),.UNSPECIFIED.,.F.,.F.,.F.,
(4,4),(4,1,1,4),(0.,1.),(-2.75027489629272,-2.70748576571016,-2.62190750454504,
-2.45075098221481),.UNSPECIFIED.);
#111=B_SPLINE_SURFACE_WITH_KNOTS('',3,3,((#1181,#1182,#1183,#1184,#1185,
#1186,#1187),(#1188,#1189,#1190,#1191,#1192,#1193,#1194),(#1195,#1196,#1197,
#1198,#1199,#1200,#1201),(#1202,#1203,#1204,#1205,#1206,#1207,#1208)),
 .UNSPECIFIED.,.F.,.F.,.F.,(4,4),(4,1,1,1,4),(0.,1.),(-2.44907339234834,
-2.32063197691221,-2.23500436662146,-2.19219056147609,-2.14937675633071),
 .UNSPECIFIED.);
#112=B_SPLINE_SURFACE_WITH_KNOTS('',3,3,((#1336,#1337,#1338,#1339,#1340,
#1341),(#1342,#1343,#1344,#1345,#1346,#1347),(#1348,#1349,#1350,#1351,#1352,
#1353),(#1354,#1355,#1356,#1357,#1358,#1359)),.UNSPECIFIED.,.F.,.F.,.F.,
(4,4),(4,1,1,4),(0.,1.),(-2.7502748962927,-2.70748576571015,-2.62190750454503,
-2.4507509822148),.UNSPECIFIED.);
#113=FACE_OUTER_BOUND('',#150,.T.);
#114=FACE_OUTER_BOUND('',#151,.T.);
#115=FACE_OUTER_BOUND('',#152,.T.);
#116=FACE_OUTER_BOUND('',#153,.T.);
#117=FACE_OUTER_BOUND('',#154,.T.);
#118=FACE_OUTER_BOUND('',#155,.T.);
#119=FACE_OUTER_BOUND('',#156,.T.);
#120=FACE_OUTER_BOUND('',#157,.T.);
#121=FACE_OUTER_BOUND('',#158,.T.);
#122=FACE_OUTER_BOUND('',#159,.T.);
#123=FACE_OUTER_BOUND('',#160,.T.);
#124=FACE_OUTER_BOUND('',#162,.T.);
#125=FACE_OUTER_BOUND('',#163,.T.);
#126=FACE_OUTER_BOUND('',#164,.T.);
#127=FACE_OUTER_BOUND('',#165,.T.);
#128=FACE_OUTER_BOUND('',#166,.T.);
#129=FACE_OUTER_BOUND('',#167,.T.);
#130=FACE_OUTER_BOUND('',#168,.T.);
#131=FACE_OUTER_BOUND('',#169,.T.);
#132=FACE_OUTER_BOUND('',#170,.T.);
#133=FACE_OUTER_BOUND('',#171,.T.);
#134=FACE_OUTER_BOUND('',#172,.T.);
#135=FACE_OUTER_BOUND('',#173,.T.);
#136=FACE_OUTER_BOUND('',#177,.T.);
#137=FACE_OUTER_BOUND('',#178,.T.);
#138=FACE_OUTER_BOUND('',#179,.T.);
#139=FACE_OUTER_BOUND('',#180,.T.);
#140=FACE_OUTER_BOUND('',#181,.T.);
#141=FACE_OUTER_BOUND('',#182,.T.);
#142=FACE_OUTER_BOUND('',#183,.T.);
#143=FACE_OUTER_BOUND('',#184,.T.);
#144=FACE_OUTER_BOUND('',#185,.T.);
#145=FACE_OUTER_BOUND('',#186,.T.);
#146=FACE_OUTER_BOUND('',#187,.T.);
#147=FACE_OUTER_BOUND('',#188,.T.);
#148=FACE_OUTER_BOUND('',#189,.T.);
#149=FACE_OUTER_BOUND('',#193,.T.);
#150=EDGE_LOOP('',(#450,#451,#452,#453));
#151=EDGE_LOOP('',(#454,#455,#456,#457));
#152=EDGE_LOOP('',(#458,#459,#460,#461));
#153=EDGE_LOOP('',(#462,#463,#464,#465,#466,#467,#468,#469));
#154=EDGE_LOOP('',(#470,#471,#472,#473));
#155=EDGE_LOOP('',(#474,#475,#476,#477));
#156=EDGE_LOOP('',(#478,#479,#480,#481,#482,#483,#484));
#157=EDGE_LOOP('',(#485,#486,#487,#488));
#158=EDGE_LOOP('',(#489,#490,#491,#492));
#159=EDGE_LOOP('',(#493,#494,#495,#496,#497,#498,#499));
#160=EDGE_LOOP('',(#500,#501,#502,#503,#504,#505,#506,#507,#508,#509,#510,
#511));
#161=EDGE_LOOP('',(#512));
#162=EDGE_LOOP('',(#513,#514,#515,#516));
#163=EDGE_LOOP('',(#517,#518,#519,#520));
#164=EDGE_LOOP('',(#521,#522,#523,#524,#525,#526,#527));
#165=EDGE_LOOP('',(#528,#529,#530,#531,#532,#533));
#166=EDGE_LOOP('',(#534,#535,#536,#537));
#167=EDGE_LOOP('',(#538,#539,#540,#541,#542,#543,#544));
#168=EDGE_LOOP('',(#545,#546,#547,#548,#549,#550,#551,#552));
#169=EDGE_LOOP('',(#553,#554,#555,#556,#557));
#170=EDGE_LOOP('',(#558,#559,#560,#561,#562,#563,#564,#565,#566));
#171=EDGE_LOOP('',(#567,#568,#569,#570));
#172=EDGE_LOOP('',(#571,#572,#573,#574,#575,#576,#577,#578,#579,#580,#581,
#582,#583,#584,#585,#586,#587));
#173=EDGE_LOOP('',(#588));
#174=EDGE_LOOP('',(#589));
#175=EDGE_LOOP('',(#590));
#176=EDGE_LOOP('',(#591));
#177=EDGE_LOOP('',(#592,#593,#594,#595));
#178=EDGE_LOOP('',(#596,#597,#598,#599));
#179=EDGE_LOOP('',(#600,#601,#602,#603));
#180=EDGE_LOOP('',(#604,#605,#606,#607));
#181=EDGE_LOOP('',(#608,#609,#610,#611));
#182=EDGE_LOOP('',(#612,#613,#614,#615));
#183=EDGE_LOOP('',(#616,#617,#618,#619));
#184=EDGE_LOOP('',(#620,#621,#622,#623));
#185=EDGE_LOOP('',(#624,#625,#626,#627));
#186=EDGE_LOOP('',(#628,#629,#630,#631));
#187=EDGE_LOOP('',(#632,#633,#634,#635));
#188=EDGE_LOOP('',(#636,#637,#638,#639));
#189=EDGE_LOOP('',(#640));
#190=EDGE_LOOP('',(#641));
#191=EDGE_LOOP('',(#642));
#192=EDGE_LOOP('',(#643));
#193=EDGE_LOOP('',(#644,#645,#646,#647,#648,#649,#650,#651));
#194=EDGE_LOOP('',(#652));
#195=EDGE_LOOP('',(#653));
#196=EDGE_LOOP('',(#654));
#197=EDGE_LOOP('',(#655));
#198=EDGE_LOOP('',(#656));
#199=EDGE_LOOP('',(#657));
#200=B_SPLINE_CURVE_WITH_KNOTS('',3,(#1004,#1005,#1006,#1007,#1008,#1009,
#1010,#1011),.UNSPECIFIED.,.F.,.F.,(4,2,2,4),(1.00677604895833,1.03195074442918,
1.206990790175,1.21186126802903),.UNSPECIFIED.);
#201=B_SPLINE_CURVE_WITH_KNOTS('',3,(#1043,#1044,#1045,#1046,#1047,#1048,
#1049),.UNSPECIFIED.,.F.,.F.,(4,3,4),(-0.000102445279705161,0.0165877214958956,
0.033318663364421),.UNSPECIFIED.);
#202=B_SPLINE_CURVE_WITH_KNOTS('',3,(#1050,#1051,#1052,#1053,#1054,#1055,
#1056),.UNSPECIFIED.,.F.,.F.,(4,1,1,1,4),(2.15166990652923,2.19219056147611,
2.23500436662148,2.32063197691224,2.44907339234837),.UNSPECIFIED.);
#203=B_SPLINE_CURVE_WITH_KNOTS('',3,(#1066,#1067,#1068,#1069,#1070,#1071),
 .UNSPECIFIED.,.F.,.F.,(4,2,4),(1.72650260778336,2.01907111609293,2.15170910615695),
 .UNSPECIFIED.);
#204=B_SPLINE_CURVE_WITH_KNOTS('',3,(#1079,#1080,#1081,#1082,#1083,#1084),
 .UNSPECIFIED.,.F.,.F.,(4,2,4),(2.93717103146784,3.06970972101805,3.36237621198045),
 .UNSPECIFIED.);
#205=B_SPLINE_CURVE_WITH_KNOTS('',3,(#1085,#1086,#1087,#1088,#1089,#1090),
 .UNSPECIFIED.,.F.,.F.,(4,2,4),(0.382079649616377,0.456610706220543,0.60744009579776),
 .UNSPECIFIED.);
#206=B_SPLINE_CURVE_WITH_KNOTS('',3,(#1121,#1122,#1123,#1124,#1125,#1126,
#1127),.UNSPECIFIED.,.F.,.F.,(4,3,4),(0.,0.0167313446401998,0.033421930992714),
 .UNSPECIFIED.);
#207=B_SPLINE_CURVE_WITH_KNOTS('',3,(#1129,#1130,#1131,#1132,#1133,#1134),
 .UNSPECIFIED.,.F.,.F.,(4,1,1,4),(2.45075098221481,2.62190750454504,2.70748576571016,
2.74798240356437),.UNSPECIFIED.);
#208=B_SPLINE_CURVE_WITH_KNOTS('',3,(#1139,#1140,#1141,#1142,#1143,#1144,
#1145,#1146,#1147,#1148),.UNSPECIFIED.,.F.,.F.,(4,2,2,2,4),(0.,0.0228102119804677,
0.0456204239609354,0.0684306359414031,0.0912408479218707),.UNSPECIFIED.);
#209=B_SPLINE_CURVE_WITH_KNOTS('',3,(#1151,#1152,#1153,#1154,#1155,#1156,
#1157,#1158,#1159,#1160,#1161,#1162,#1163,#1164),.UNSPECIFIED.,.F.,.F.,
(4,2,2,2,2,2,4),(2.94113978714732,2.98234912891499,3.30871516238668,3.63508119585837,
3.96144722933006,4.61417929627344,5.24773165028022),.UNSPECIFIED.);
#210=B_SPLINE_CURVE_WITH_KNOTS('',3,(#1172,#1173,#1174,#1175,#1176,#1177,
#1178,#1179),.UNSPECIFIED.,.F.,.F.,(4,2,2,4),(1.00677604929754,1.03195074436375,
1.20699078997728,1.21186126839518),.UNSPECIFIED.);
#211=B_SPLINE_CURVE_WITH_KNOTS('',3,(#1211,#1212,#1213,#1214,#1215,#1216,
#1217),.UNSPECIFIED.,.F.,.F.,(4,3,4),(-0.00010244527875063,0.0165877214958787,
0.0333186633643425),.UNSPECIFIED.);
#212=B_SPLINE_CURVE_WITH_KNOTS('',3,(#1218,#1219,#1220,#1221,#1222,#1223,
#1224),.UNSPECIFIED.,.F.,.F.,(4,1,1,1,4),(2.15166990979322,2.19219056147609,
2.23500436662146,2.32063197691221,2.44907339234834),.UNSPECIFIED.);
#213=B_SPLINE_CURVE_WITH_KNOTS('',3,(#1228,#1229,#1230,#1231,#1232,#1233,
#1234,#1235,#1236,#1237,#1238,#1239,#1240,#1241),.UNSPECIFIED.,.F.,.F.,
(4,2,2,2,2,2,4),(1.36969867449315,2.00325102849993,2.65598309544331,2.982349128915,
3.3087151623867,3.63508119585839,3.67629053762606),.UNSPECIFIED.);
#214=B_SPLINE_CURVE_WITH_KNOTS('',3,(#1248,#1249,#1250,#1251,#1252,#1253),
 .UNSPECIFIED.,.F.,.F.,(4,2,4),(1.72593482309449,2.01860131248322,2.15114000203343),
 .UNSPECIFIED.);
#215=B_SPLINE_CURVE_WITH_KNOTS('',3,(#1265,#1266,#1267,#1268,#1269,#1270,
#1271),.UNSPECIFIED.,.F.,.F.,(4,3,4),(0.,0.0167313446401827,0.0334219309921494),
 .UNSPECIFIED.);
#216=B_SPLINE_CURVE_WITH_KNOTS('',3,(#1273,#1274,#1275,#1276,#1277,#1278,
#1279,#1280,#1281,#1282,#1283,#1284,#1285,#1286),.UNSPECIFIED.,.F.,.F.,
(4,2,2,2,2,2,4),(2.94181460011352,2.98302394188119,3.30938997535288,3.63575600882457,
3.96212204229626,4.61485410923964,5.24840646324642),.UNSPECIFIED.);
#217=B_SPLINE_CURVE_WITH_KNOTS('',3,(#1289,#1290,#1291,#1292,#1293,#1294,
#1295,#1296,#1297,#1298,#1299,#1300,#1301,#1302,#1303,#1304,#1305,#1306,
#1307,#1308,#1309,#1310,#1311,#1312,#1313,#1314,#1315,#1316,#1317,#1318,
#1319,#1320,#1321,#1322),.UNSPECIFIED.,.T.,.F.,(4,2,2,2,2,2,2,2,2,2,2,2,
2,2,2,2,4),(0.,0.189328329975826,0.378656659951652,0.567979063826062,0.757301467700471,
0.94656269008309,1.13582391246571,1.32514413033046,1.51446434819521,1.70378456605995,
1.8931047839247,2.08236600630732,2.27162722868994,2.46094963256435,2.65027203643876,
2.83960036641459,3.02892869639041),.UNSPECIFIED.);
#218=B_SPLINE_CURVE_WITH_KNOTS('',3,(#1326,#1327,#1328,#1329,#1330,#1331),
 .UNSPECIFIED.,.F.,.F.,(4,2,4),(0.382079649543872,0.456610706279861,0.607440095659415),
 .UNSPECIFIED.);
#219=B_SPLINE_CURVE_WITH_KNOTS('',3,(#1360,#1361,#1362,#1363,#1364,#1365),
 .UNSPECIFIED.,.F.,.F.,(4,1,1,4),(2.4507509822148,2.62190750454503,2.70748576571015,
2.74798240052597),.UNSPECIFIED.);
#220=B_SPLINE_CURVE_WITH_KNOTS('',3,(#1368,#1369,#1370,#1371,#1372,#1373),
 .UNSPECIFIED.,.F.,.F.,(4,2,4),(2.93774892369168,3.07038691375571,3.36295542363578),
 .UNSPECIFIED.);
#221=B_SPLINE_CURVE_WITH_KNOTS('',3,(#1377,#1378,#1379,#1380,#1381,#1382,
#1383,#1384,#1385,#1386),.UNSPECIFIED.,.F.,.F.,(4,2,2,2,4),(0.,0.0228102119804676,
0.0456204239609353,0.0684306359414029,0.0912408479218706),.UNSPECIFIED.);
#222=B_SPLINE_CURVE_WITH_KNOTS('',3,(#1392,#1393,#1394,#1395,#1396,#1397,
#1398,#1399,#1400,#1401,#1402,#1403),.UNSPECIFIED.,.F.,.F.,(4,2,2,2,2,4),
(2.26869391874442,2.27162722868994,2.46094963256435,2.65027203643876,2.83960036641458,
3.02892869639041),.UNSPECIFIED.);
#223=B_SPLINE_CURVE_WITH_KNOTS('',3,(#1405,#1406,#1407,#1408,#1409,#1410,
#1411,#1412,#1413,#1414,#1415,#1416,#1417,#1418,#1419,#1420,#1421,#1422),
 .UNSPECIFIED.,.F.,.F.,(4,2,2,2,2,2,2,2,4),(0.760234777645994,0.94656269008309,
1.13582391246571,1.32514413033046,1.51446434819521,1.70378456605995,1.8931047839247,
2.08236600630732,2.26869391874442),.UNSPECIFIED.);
#224=B_SPLINE_CURVE_WITH_KNOTS('',3,(#1423,#1424,#1425,#1426,#1427,#1428,
#1429,#1430,#1431,#1432,#1433,#1434),.UNSPECIFIED.,.F.,.F.,(4,2,2,2,2,4),
(0.,0.189328329975826,0.378656659951652,0.567979063826061,0.757301467700471,
0.760234777645994),.UNSPECIFIED.);
#225=B_SPLINE_CURVE_WITH_KNOTS('',3,(#1443,#1444,#1445,#1446,#1447,#1448,
#1449,#1450,#1451,#1452,#1453,#1454,#1455,#1456),.UNSPECIFIED.,.F.,.F.,
(4,2,2,2,2,2,4),(1.37037348745934,2.00392584146612,2.6566579084095,2.98302394188119,
3.30938997535288,3.63575600882457,3.67696535059223),.UNSPECIFIED.);
#226=CIRCLE('',#714,2.);
#227=CIRCLE('',#715,151.414213562373);
#228=CIRCLE('',#716,152.828427124746);
#229=CIRCLE('',#717,19.);
#230=CIRCLE('',#719,21.);
#231=CIRCLE('',#720,152.828427124746);
#232=CIRCLE('',#721,19.);
#233=CIRCLE('',#723,21.);
#234=CIRCLE('',#725,151.414213562373);
#235=CIRCLE('',#726,1.99999999999996);
#236=CIRCLE('',#727,19.);
#237=CIRCLE('',#729,150.);
#238=CIRCLE('',#730,160.);
#239=CIRCLE('',#732,2.);
#240=CIRCLE('',#733,151.414213562373);
#241=CIRCLE('',#734,152.828427124746);
#242=CIRCLE('',#735,19.);
#243=CIRCLE('',#737,160.);
#244=CIRCLE('',#738,150.);
#245=CIRCLE('',#740,19.);
#246=CIRCLE('',#741,19.);
#247=CIRCLE('',#742,19.);
#248=CIRCLE('',#743,19.);
#249=CIRCLE('',#744,19.);
#250=CIRCLE('',#746,151.414213562373);
#251=CIRCLE('',#747,1.99999999999997);
#252=CIRCLE('',#748,152.828427124746);
#253=CIRCLE('',#750,150.);
#254=CIRCLE('',#751,160.);
#255=CIRCLE('',#755,160.);
#256=CIRCLE('',#756,150.);
#257=CIRCLE('',#758,21.);
#258=CIRCLE('',#759,21.);
#259=CIRCLE('',#762,19.);
#260=CIRCLE('',#763,19.);
#261=CIRCLE('',#766,19.);
#262=CIRCLE('',#768,1.2645);
#263=CIRCLE('',#769,3.00000000000001);
#264=CIRCLE('',#770,1.2645);
#265=CIRCLE('',#772,1.2645);
#266=CIRCLE('',#774,1.2645);
#267=CIRCLE('',#775,1.2645);
#268=CIRCLE('',#777,3.00000000000001);
#269=CIRCLE('',#778,3.00000000000001);
#270=CIRCLE('',#780,3.00000000000001);
#271=CIRCLE('',#782,1.2645);
#272=CIRCLE('',#784,1.2645);
#273=CIRCLE('',#785,1.2645);
#274=CIRCLE('',#787,150.);
#275=CIRCLE('',#789,150.);
#276=CIRCLE('',#792,150.);
#277=CIRCLE('',#794,150.);
#278=VERTEX_POINT('',#998);
#279=VERTEX_POINT('',#999);
#280=VERTEX_POINT('',#1001);
#281=VERTEX_POINT('',#1003);
#282=VERTEX_POINT('',#1041);
#283=VERTEX_POINT('',#1042);
#284=VERTEX_POINT('',#1059);
#285=VERTEX_POINT('',#1061);
#286=VERTEX_POINT('',#1065);
#287=VERTEX_POINT('',#1072);
#288=VERTEX_POINT('',#1074);
#289=VERTEX_POINT('',#1076);
#290=VERTEX_POINT('',#1078);
#291=VERTEX_POINT('',#1092);
#292=VERTEX_POINT('',#1119);
#293=VERTEX_POINT('',#1120);
#294=VERTEX_POINT('',#1136);
#295=VERTEX_POINT('',#1138);
#296=VERTEX_POINT('',#1149);
#297=VERTEX_POINT('',#1166);
#298=VERTEX_POINT('',#1167);
#299=VERTEX_POINT('',#1169);
#300=VERTEX_POINT('',#1171);
#301=VERTEX_POINT('',#1209);
#302=VERTEX_POINT('',#1210);
#303=VERTEX_POINT('',#1227);
#304=VERTEX_POINT('',#1242);
#305=VERTEX_POINT('',#1244);
#306=VERTEX_POINT('',#1246);
#307=VERTEX_POINT('',#1255);
#308=VERTEX_POINT('',#1257);
#309=VERTEX_POINT('',#1260);
#310=VERTEX_POINT('',#1262);
#311=VERTEX_POINT('',#1264);
#312=VERTEX_POINT('',#1272);
#313=VERTEX_POINT('',#1288);
#314=VERTEX_POINT('',#1324);
#315=VERTEX_POINT('',#1325);
#316=VERTEX_POINT('',#1332);
#317=VERTEX_POINT('',#1367);
#318=VERTEX_POINT('',#1374);
#319=VERTEX_POINT('',#1376);
#320=VERTEX_POINT('',#1389);
#321=VERTEX_POINT('',#1391);
#322=VERTEX_POINT('',#1404);
#323=VERTEX_POINT('',#1436);
#324=VERTEX_POINT('',#1437);
#325=VERTEX_POINT('',#1442);
#326=VERTEX_POINT('',#1460);
#327=VERTEX_POINT('',#1462);
#328=VERTEX_POINT('',#1468);
#329=VERTEX_POINT('',#1476);
#330=VERTEX_POINT('',#1480);
#331=VERTEX_POINT('',#1482);
#332=VERTEX_POINT('',#1484);
#333=VERTEX_POINT('',#1487);
#334=VERTEX_POINT('',#1491);
#335=VERTEX_POINT('',#1493);
#336=VERTEX_POINT('',#1497);
#337=VERTEX_POINT('',#1499);
#338=VERTEX_POINT('',#1503);
#339=VERTEX_POINT('',#1507);
#340=VERTEX_POINT('',#1511);
#341=VERTEX_POINT('',#1513);
#342=VERTEX_POINT('',#1517);
#343=VERTEX_POINT('',#1521);
#344=VERTEX_POINT('',#1525);
#345=VERTEX_POINT('',#1531);
#346=EDGE_CURVE('',#278,#279,#226,.T.);
#347=EDGE_CURVE('',#279,#280,#227,.T.);
#348=EDGE_CURVE('',#280,#281,#200,.T.);
#349=EDGE_CURVE('',#281,#278,#228,.T.);
#350=EDGE_CURVE('',#282,#283,#201,.T.);
#351=EDGE_CURVE('',#283,#279,#202,.T.);
#352=EDGE_CURVE('',#282,#278,#229,.T.);
#353=EDGE_CURVE('',#284,#281,#230,.T.);
#354=EDGE_CURVE('',#285,#284,#231,.T.);
#355=EDGE_CURVE('',#278,#285,#232,.T.);
#356=EDGE_CURVE('',#280,#286,#203,.T.);
#357=EDGE_CURVE('',#287,#286,#32,.T.);
#358=EDGE_CURVE('',#287,#288,#233,.T.);
#359=EDGE_CURVE('',#288,#289,#33,.T.);
#360=EDGE_CURVE('',#289,#290,#204,.T.);
#361=EDGE_CURVE('',#284,#290,#205,.T.);
#362=EDGE_CURVE('',#290,#291,#234,.T.);
#363=EDGE_CURVE('',#291,#285,#235,.T.);
#364=EDGE_CURVE('',#292,#293,#206,.T.);
#365=EDGE_CURVE('',#285,#293,#236,.T.);
#366=EDGE_CURVE('',#291,#292,#207,.T.);
#367=EDGE_CURVE('',#289,#294,#237,.T.);
#368=EDGE_CURVE('',#294,#295,#208,.T.);
#369=EDGE_CURVE('',#295,#296,#238,.T.);
#370=EDGE_CURVE('',#292,#296,#209,.T.);
#371=EDGE_CURVE('',#297,#298,#239,.T.);
#372=EDGE_CURVE('',#298,#299,#240,.T.);
#373=EDGE_CURVE('',#299,#300,#210,.T.);
#374=EDGE_CURVE('',#300,#297,#241,.T.);
#375=EDGE_CURVE('',#301,#302,#211,.T.);
#376=EDGE_CURVE('',#302,#298,#212,.T.);
#377=EDGE_CURVE('',#301,#297,#242,.T.);
#378=EDGE_CURVE('',#303,#302,#213,.T.);
#379=EDGE_CURVE('',#303,#304,#243,.T.);
#380=EDGE_CURVE('',#305,#304,#34,.T.);
#381=EDGE_CURVE('',#305,#306,#244,.T.);
#382=EDGE_CURVE('',#299,#306,#214,.T.);
#383=EDGE_CURVE('',#297,#307,#245,.T.);
#384=EDGE_CURVE('',#307,#308,#35,.T.);
#385=EDGE_CURVE('',#308,#308,#246,.T.);
#386=EDGE_CURVE('',#307,#309,#247,.T.);
#387=EDGE_CURVE('',#309,#310,#248,.T.);
#388=EDGE_CURVE('',#311,#310,#215,.T.);
#389=EDGE_CURVE('',#311,#312,#216,.T.);
#390=EDGE_CURVE('',#303,#312,#249,.T.);
#391=EDGE_CURVE('',#313,#313,#217,.T.);
#392=EDGE_CURVE('',#314,#315,#218,.T.);
#393=EDGE_CURVE('',#315,#316,#250,.T.);
#394=EDGE_CURVE('',#316,#309,#251,.T.);
#395=EDGE_CURVE('',#309,#314,#252,.T.);
#396=EDGE_CURVE('',#316,#311,#219,.T.);
#397=EDGE_CURVE('',#317,#315,#220,.T.);
#398=EDGE_CURVE('',#317,#318,#253,.T.);
#399=EDGE_CURVE('',#318,#319,#221,.T.);
#400=EDGE_CURVE('',#319,#312,#254,.T.);
#401=EDGE_CURVE('',#313,#320,#36,.T.);
#402=EDGE_CURVE('',#321,#320,#222,.T.);
#403=EDGE_CURVE('',#322,#321,#223,.T.);
#404=EDGE_CURVE('',#320,#322,#224,.T.);
#405=EDGE_CURVE('',#323,#324,#37,.T.);
#406=EDGE_CURVE('',#324,#319,#38,.T.);
#407=EDGE_CURVE('',#318,#323,#39,.T.);
#408=EDGE_CURVE('',#325,#283,#225,.T.);
#409=EDGE_CURVE('',#325,#324,#255,.T.);
#410=EDGE_CURVE('',#323,#286,#256,.T.);
#411=EDGE_CURVE('',#326,#306,#40,.T.);
#412=EDGE_CURVE('',#326,#327,#257,.T.);
#413=EDGE_CURVE('',#327,#317,#41,.T.);
#414=EDGE_CURVE('',#314,#300,#258,.T.);
#415=EDGE_CURVE('',#325,#328,#259,.T.);
#416=EDGE_CURVE('',#328,#296,#260,.T.);
#417=EDGE_CURVE('',#304,#295,#42,.T.);
#418=EDGE_CURVE('',#294,#305,#43,.T.);
#419=EDGE_CURVE('',#328,#321,#44,.T.);
#420=EDGE_CURVE('',#322,#329,#45,.T.);
#421=EDGE_CURVE('',#329,#329,#261,.T.);
#422=EDGE_CURVE('',#330,#330,#262,.F.);
#423=EDGE_CURVE('',#331,#331,#263,.T.);
#424=EDGE_CURVE('',#332,#332,#264,.F.);
#425=EDGE_CURVE('',#330,#333,#46,.T.);
#426=EDGE_CURVE('',#333,#333,#265,.F.);
#427=EDGE_CURVE('',#334,#334,#266,.F.);
#428=EDGE_CURVE('',#334,#335,#47,.T.);
#429=EDGE_CURVE('',#335,#335,#267,.F.);
#430=EDGE_CURVE('',#336,#336,#268,.T.);
#431=EDGE_CURVE('',#336,#337,#48,.T.);
#432=EDGE_CURVE('',#337,#337,#269,.T.);
#433=EDGE_CURVE('',#331,#338,#49,.T.);
#434=EDGE_CURVE('',#338,#338,#270,.T.);
#435=EDGE_CURVE('',#332,#339,#50,.T.);
#436=EDGE_CURVE('',#339,#339,#271,.F.);
#437=EDGE_CURVE('',#340,#340,#272,.F.);
#438=EDGE_CURVE('',#340,#341,#51,.T.);
#439=EDGE_CURVE('',#341,#341,#273,.F.);
#440=EDGE_CURVE('',#342,#327,#274,.T.);
#441=EDGE_CURVE('',#342,#318,#52,.T.);
#442=EDGE_CURVE('',#343,#305,#53,.T.);
#443=EDGE_CURVE('',#326,#343,#275,.T.);
#444=EDGE_CURVE('',#344,#294,#54,.T.);
#445=EDGE_CURVE('',#343,#344,#55,.T.);
#446=EDGE_CURVE('',#344,#288,#276,.T.);
#447=EDGE_CURVE('',#345,#323,#56,.T.);
#448=EDGE_CURVE('',#287,#345,#277,.T.);
#449=EDGE_CURVE('',#342,#345,#57,.T.);
#450=ORIENTED_EDGE('',*,*,#346,.T.);
#451=ORIENTED_EDGE('',*,*,#347,.T.);
#452=ORIENTED_EDGE('',*,*,#348,.T.);
#453=ORIENTED_EDGE('',*,*,#349,.T.);
#454=ORIENTED_EDGE('',*,*,#350,.T.);
#455=ORIENTED_EDGE('',*,*,#351,.T.);
#456=ORIENTED_EDGE('',*,*,#346,.F.);
#457=ORIENTED_EDGE('',*,*,#352,.F.);
#458=ORIENTED_EDGE('',*,*,#349,.F.);
#459=ORIENTED_EDGE('',*,*,#353,.F.);
#460=ORIENTED_EDGE('',*,*,#354,.F.);
#461=ORIENTED_EDGE('',*,*,#355,.F.);
#462=ORIENTED_EDGE('',*,*,#348,.F.);
#463=ORIENTED_EDGE('',*,*,#356,.T.);
#464=ORIENTED_EDGE('',*,*,#357,.F.);
#465=ORIENTED_EDGE('',*,*,#358,.T.);
#466=ORIENTED_EDGE('',*,*,#359,.T.);
#467=ORIENTED_EDGE('',*,*,#360,.T.);
#468=ORIENTED_EDGE('',*,*,#361,.F.);
#469=ORIENTED_EDGE('',*,*,#353,.T.);
#470=ORIENTED_EDGE('',*,*,#361,.T.);
#471=ORIENTED_EDGE('',*,*,#362,.T.);
#472=ORIENTED_EDGE('',*,*,#363,.T.);
#473=ORIENTED_EDGE('',*,*,#354,.T.);
#474=ORIENTED_EDGE('',*,*,#364,.T.);
#475=ORIENTED_EDGE('',*,*,#365,.F.);
#476=ORIENTED_EDGE('',*,*,#363,.F.);
#477=ORIENTED_EDGE('',*,*,#366,.T.);
#478=ORIENTED_EDGE('',*,*,#366,.F.);
#479=ORIENTED_EDGE('',*,*,#362,.F.);
#480=ORIENTED_EDGE('',*,*,#360,.F.);
#481=ORIENTED_EDGE('',*,*,#367,.T.);
#482=ORIENTED_EDGE('',*,*,#368,.T.);
#483=ORIENTED_EDGE('',*,*,#369,.T.);
#484=ORIENTED_EDGE('',*,*,#370,.F.);
#485=ORIENTED_EDGE('',*,*,#371,.T.);
#486=ORIENTED_EDGE('',*,*,#372,.T.);
#487=ORIENTED_EDGE('',*,*,#373,.T.);
#488=ORIENTED_EDGE('',*,*,#374,.T.);
#489=ORIENTED_EDGE('',*,*,#375,.T.);
#490=ORIENTED_EDGE('',*,*,#376,.T.);
#491=ORIENTED_EDGE('',*,*,#371,.F.);
#492=ORIENTED_EDGE('',*,*,#377,.F.);
#493=ORIENTED_EDGE('',*,*,#372,.F.);
#494=ORIENTED_EDGE('',*,*,#376,.F.);
#495=ORIENTED_EDGE('',*,*,#378,.F.);
#496=ORIENTED_EDGE('',*,*,#379,.T.);
#497=ORIENTED_EDGE('',*,*,#380,.F.);
#498=ORIENTED_EDGE('',*,*,#381,.T.);
#499=ORIENTED_EDGE('',*,*,#382,.F.);
#500=ORIENTED_EDGE('',*,*,#375,.F.);
#501=ORIENTED_EDGE('',*,*,#377,.T.);
#502=ORIENTED_EDGE('',*,*,#383,.T.);
#503=ORIENTED_EDGE('',*,*,#384,.T.);
#504=ORIENTED_EDGE('',*,*,#385,.F.);
#505=ORIENTED_EDGE('',*,*,#384,.F.);
#506=ORIENTED_EDGE('',*,*,#386,.T.);
#507=ORIENTED_EDGE('',*,*,#387,.T.);
#508=ORIENTED_EDGE('',*,*,#388,.F.);
#509=ORIENTED_EDGE('',*,*,#389,.T.);
#510=ORIENTED_EDGE('',*,*,#390,.F.);
#511=ORIENTED_EDGE('',*,*,#378,.T.);
#512=ORIENTED_EDGE('',*,*,#391,.T.);
#513=ORIENTED_EDGE('',*,*,#392,.T.);
#514=ORIENTED_EDGE('',*,*,#393,.T.);
#515=ORIENTED_EDGE('',*,*,#394,.T.);
#516=ORIENTED_EDGE('',*,*,#395,.T.);
#517=ORIENTED_EDGE('',*,*,#388,.T.);
#518=ORIENTED_EDGE('',*,*,#387,.F.);
#519=ORIENTED_EDGE('',*,*,#394,.F.);
#520=ORIENTED_EDGE('',*,*,#396,.T.);
#521=ORIENTED_EDGE('',*,*,#396,.F.);
#522=ORIENTED_EDGE('',*,*,#393,.F.);
#523=ORIENTED_EDGE('',*,*,#397,.F.);
#524=ORIENTED_EDGE('',*,*,#398,.T.);
#525=ORIENTED_EDGE('',*,*,#399,.T.);
#526=ORIENTED_EDGE('',*,*,#400,.T.);
#527=ORIENTED_EDGE('',*,*,#389,.F.);
#528=ORIENTED_EDGE('',*,*,#391,.F.);
#529=ORIENTED_EDGE('',*,*,#401,.T.);
#530=ORIENTED_EDGE('',*,*,#402,.F.);
#531=ORIENTED_EDGE('',*,*,#403,.F.);
#532=ORIENTED_EDGE('',*,*,#404,.F.);
#533=ORIENTED_EDGE('',*,*,#401,.F.);
#534=ORIENTED_EDGE('',*,*,#405,.T.);
#535=ORIENTED_EDGE('',*,*,#406,.T.);
#536=ORIENTED_EDGE('',*,*,#399,.F.);
#537=ORIENTED_EDGE('',*,*,#407,.T.);
#538=ORIENTED_EDGE('',*,*,#351,.F.);
#539=ORIENTED_EDGE('',*,*,#408,.F.);
#540=ORIENTED_EDGE('',*,*,#409,.T.);
#541=ORIENTED_EDGE('',*,*,#405,.F.);
#542=ORIENTED_EDGE('',*,*,#410,.T.);
#543=ORIENTED_EDGE('',*,*,#356,.F.);
#544=ORIENTED_EDGE('',*,*,#347,.F.);
#545=ORIENTED_EDGE('',*,*,#373,.F.);
#546=ORIENTED_EDGE('',*,*,#382,.T.);
#547=ORIENTED_EDGE('',*,*,#411,.F.);
#548=ORIENTED_EDGE('',*,*,#412,.T.);
#549=ORIENTED_EDGE('',*,*,#413,.T.);
#550=ORIENTED_EDGE('',*,*,#397,.T.);
#551=ORIENTED_EDGE('',*,*,#392,.F.);
#552=ORIENTED_EDGE('',*,*,#414,.T.);
#553=ORIENTED_EDGE('',*,*,#374,.F.);
#554=ORIENTED_EDGE('',*,*,#414,.F.);
#555=ORIENTED_EDGE('',*,*,#395,.F.);
#556=ORIENTED_EDGE('',*,*,#386,.F.);
#557=ORIENTED_EDGE('',*,*,#383,.F.);
#558=ORIENTED_EDGE('',*,*,#400,.F.);
#559=ORIENTED_EDGE('',*,*,#406,.F.);
#560=ORIENTED_EDGE('',*,*,#409,.F.);
#561=ORIENTED_EDGE('',*,*,#415,.T.);
#562=ORIENTED_EDGE('',*,*,#416,.T.);
#563=ORIENTED_EDGE('',*,*,#369,.F.);
#564=ORIENTED_EDGE('',*,*,#417,.F.);
#565=ORIENTED_EDGE('',*,*,#379,.F.);
#566=ORIENTED_EDGE('',*,*,#390,.T.);
#567=ORIENTED_EDGE('',*,*,#368,.F.);
#568=ORIENTED_EDGE('',*,*,#418,.T.);
#569=ORIENTED_EDGE('',*,*,#380,.T.);
#570=ORIENTED_EDGE('',*,*,#417,.T.);
#571=ORIENTED_EDGE('',*,*,#350,.F.);
#572=ORIENTED_EDGE('',*,*,#352,.T.);
#573=ORIENTED_EDGE('',*,*,#355,.T.);
#574=ORIENTED_EDGE('',*,*,#365,.T.);
#575=ORIENTED_EDGE('',*,*,#364,.F.);
#576=ORIENTED_EDGE('',*,*,#370,.T.);
#577=ORIENTED_EDGE('',*,*,#416,.F.);
#578=ORIENTED_EDGE('',*,*,#419,.T.);
#579=ORIENTED_EDGE('',*,*,#402,.T.);
#580=ORIENTED_EDGE('',*,*,#404,.T.);
#581=ORIENTED_EDGE('',*,*,#420,.T.);
#582=ORIENTED_EDGE('',*,*,#421,.F.);
#583=ORIENTED_EDGE('',*,*,#420,.F.);
#584=ORIENTED_EDGE('',*,*,#403,.T.);
#585=ORIENTED_EDGE('',*,*,#419,.F.);
#586=ORIENTED_EDGE('',*,*,#415,.F.);
#587=ORIENTED_EDGE('',*,*,#408,.T.);
#588=ORIENTED_EDGE('',*,*,#421,.T.);
#589=ORIENTED_EDGE('',*,*,#422,.T.);
#590=ORIENTED_EDGE('',*,*,#423,.T.);
#591=ORIENTED_EDGE('',*,*,#424,.T.);
#592=ORIENTED_EDGE('',*,*,#422,.F.);
#593=ORIENTED_EDGE('',*,*,#425,.T.);
#594=ORIENTED_EDGE('',*,*,#426,.T.);
#595=ORIENTED_EDGE('',*,*,#425,.F.);
#596=ORIENTED_EDGE('',*,*,#427,.F.);
#597=ORIENTED_EDGE('',*,*,#428,.T.);
#598=ORIENTED_EDGE('',*,*,#429,.T.);
#599=ORIENTED_EDGE('',*,*,#428,.F.);
#600=ORIENTED_EDGE('',*,*,#430,.F.);
#601=ORIENTED_EDGE('',*,*,#431,.T.);
#602=ORIENTED_EDGE('',*,*,#432,.T.);
#603=ORIENTED_EDGE('',*,*,#431,.F.);
#604=ORIENTED_EDGE('',*,*,#423,.F.);
#605=ORIENTED_EDGE('',*,*,#433,.T.);
#606=ORIENTED_EDGE('',*,*,#434,.T.);
#607=ORIENTED_EDGE('',*,*,#433,.F.);
#608=ORIENTED_EDGE('',*,*,#424,.F.);
#609=ORIENTED_EDGE('',*,*,#435,.T.);
#610=ORIENTED_EDGE('',*,*,#436,.T.);
#611=ORIENTED_EDGE('',*,*,#435,.F.);
#612=ORIENTED_EDGE('',*,*,#437,.F.);
#613=ORIENTED_EDGE('',*,*,#438,.T.);
#614=ORIENTED_EDGE('',*,*,#439,.T.);
#615=ORIENTED_EDGE('',*,*,#438,.F.);
#616=ORIENTED_EDGE('',*,*,#398,.F.);
#617=ORIENTED_EDGE('',*,*,#413,.F.);
#618=ORIENTED_EDGE('',*,*,#440,.F.);
#619=ORIENTED_EDGE('',*,*,#441,.T.);
#620=ORIENTED_EDGE('',*,*,#381,.F.);
#621=ORIENTED_EDGE('',*,*,#442,.F.);
#622=ORIENTED_EDGE('',*,*,#443,.F.);
#623=ORIENTED_EDGE('',*,*,#411,.T.);
#624=ORIENTED_EDGE('',*,*,#418,.F.);
#625=ORIENTED_EDGE('',*,*,#444,.F.);
#626=ORIENTED_EDGE('',*,*,#445,.F.);
#627=ORIENTED_EDGE('',*,*,#442,.T.);
#628=ORIENTED_EDGE('',*,*,#367,.F.);
#629=ORIENTED_EDGE('',*,*,#359,.F.);
#630=ORIENTED_EDGE('',*,*,#446,.F.);
#631=ORIENTED_EDGE('',*,*,#444,.T.);
#632=ORIENTED_EDGE('',*,*,#410,.F.);
#633=ORIENTED_EDGE('',*,*,#447,.F.);
#634=ORIENTED_EDGE('',*,*,#448,.F.);
#635=ORIENTED_EDGE('',*,*,#357,.T.);
#636=ORIENTED_EDGE('',*,*,#407,.F.);
#637=ORIENTED_EDGE('',*,*,#441,.F.);
#638=ORIENTED_EDGE('',*,*,#449,.T.);
#639=ORIENTED_EDGE('',*,*,#447,.T.);
#640=ORIENTED_EDGE('',*,*,#385,.T.);
#641=ORIENTED_EDGE('',*,*,#437,.T.);
#642=ORIENTED_EDGE('',*,*,#430,.T.);
#643=ORIENTED_EDGE('',*,*,#427,.T.);
#644=ORIENTED_EDGE('',*,*,#449,.F.);
#645=ORIENTED_EDGE('',*,*,#440,.T.);
#646=ORIENTED_EDGE('',*,*,#412,.F.);
#647=ORIENTED_EDGE('',*,*,#443,.T.);
#648=ORIENTED_EDGE('',*,*,#445,.T.);
#649=ORIENTED_EDGE('',*,*,#446,.T.);
#650=ORIENTED_EDGE('',*,*,#358,.F.);
#651=ORIENTED_EDGE('',*,*,#448,.T.);
#652=ORIENTED_EDGE('',*,*,#439,.F.);
#653=ORIENTED_EDGE('',*,*,#436,.F.);
#654=ORIENTED_EDGE('',*,*,#434,.F.);
#655=ORIENTED_EDGE('',*,*,#432,.F.);
#656=ORIENTED_EDGE('',*,*,#429,.F.);
#657=ORIENTED_EDGE('',*,*,#426,.F.);
#658=TOROIDAL_SURFACE('',#713,152.828427124746,2.);
#659=TOROIDAL_SURFACE('',#724,152.828427124746,2.);
#660=TOROIDAL_SURFACE('',#731,152.828427124746,2.);
#661=TOROIDAL_SURFACE('',#745,152.828427124746,2.);
#662=ADVANCED_FACE('',(#113),#658,.T.);
#663=ADVANCED_FACE('',(#114),#109,.F.);
#664=ADVANCED_FACE('',(#115),#99,.T.);
#665=ADVANCED_FACE('',(#116),#84,.T.);
#666=ADVANCED_FACE('',(#117),#659,.T.);
#667=ADVANCED_FACE('',(#118),#110,.F.);
#668=ADVANCED_FACE('',(#119),#28,.F.);
#669=ADVANCED_FACE('',(#120),#660,.T.);
#670=ADVANCED_FACE('',(#121),#111,.F.);
#671=ADVANCED_FACE('',(#122),#29,.F.);
#672=ADVANCED_FACE('',(#123,#15),#85,.F.);
#673=ADVANCED_FACE('',(#124),#661,.T.);
#674=ADVANCED_FACE('',(#125),#112,.F.);
#675=ADVANCED_FACE('',(#126),#30,.F.);
#676=ADVANCED_FACE('',(#127),#86,.F.);
#677=ADVANCED_FACE('',(#128),#100,.T.);
#678=ADVANCED_FACE('',(#129),#31,.F.);
#679=ADVANCED_FACE('',(#130),#87,.T.);
#680=ADVANCED_FACE('',(#131),#101,.T.);
#681=ADVANCED_FACE('',(#132),#102,.T.);
#682=ADVANCED_FACE('',(#133),#103,.T.);
#683=ADVANCED_FACE('',(#134),#88,.F.);
#684=ADVANCED_FACE('',(#135,#16,#17,#18),#104,.T.);
#685=ADVANCED_FACE('',(#136),#89,.F.);
#686=ADVANCED_FACE('',(#137),#90,.F.);
#687=ADVANCED_FACE('',(#138),#91,.F.);
#688=ADVANCED_FACE('',(#139),#92,.F.);
#689=ADVANCED_FACE('',(#140),#93,.F.);
#690=ADVANCED_FACE('',(#141),#94,.F.);
#691=ADVANCED_FACE('',(#142),#95,.F.);
#692=ADVANCED_FACE('',(#143),#96,.F.);
#693=ADVANCED_FACE('',(#144),#105,.T.);
#694=ADVANCED_FACE('',(#145),#97,.F.);
#695=ADVANCED_FACE('',(#146),#98,.F.);
#696=ADVANCED_FACE('',(#147),#106,.T.);
#697=ADVANCED_FACE('',(#148,#19,#20,#21),#107,.T.);
#698=ADVANCED_FACE('',(#149,#22,#23,#24,#25,#26,#27),#108,.F.);
#699=CLOSED_SHELL('',(#662,#663,#664,#665,#666,#667,#668,#669,#670,#671,
#672,#673,#674,#675,#676,#677,#678,#679,#680,#681,#682,#683,#684,#685,#686,
#687,#688,#689,#690,#691,#692,#693,#694,#695,#696,#697,#698));
#700=DERIVED_UNIT_ELEMENT(#702,1.);
#701=DERIVED_UNIT_ELEMENT(#1543,-3.);
#702=(
MASS_UNIT()
NAMED_UNIT(*)
SI_UNIT(.KILO.,.GRAM.)
);
#703=DERIVED_UNIT((#700,#701));
#704=MEASURE_REPRESENTATION_ITEM('density measure',
POSITIVE_RATIO_MEASURE(7850.),#703);
#705=PROPERTY_DEFINITION_REPRESENTATION(#710,#707);
#706=PROPERTY_DEFINITION_REPRESENTATION(#711,#708);
#707=REPRESENTATION('material name',(#709),#1540);
#708=REPRESENTATION('density',(#704),#1540);
#709=DESCRIPTIVE_REPRESENTATION_ITEM('Steel','Steel');
#710=PROPERTY_DEFINITION('material property','material name',#1550);
#711=PROPERTY_DEFINITION('material property','density of part',#1550);
#712=AXIS2_PLACEMENT_3D('',#996,#798,#799);
#713=AXIS2_PLACEMENT_3D('',#997,#800,#801);
#714=AXIS2_PLACEMENT_3D('',#1000,#802,#803);
#715=AXIS2_PLACEMENT_3D('',#1002,#804,#805);
#716=AXIS2_PLACEMENT_3D('',#1012,#806,#807);
#717=AXIS2_PLACEMENT_3D('',#1057,#808,#809);
#718=AXIS2_PLACEMENT_3D('',#1058,#810,#811);
#719=AXIS2_PLACEMENT_3D('',#1060,#812,#813);
#720=AXIS2_PLACEMENT_3D('',#1062,#814,#815);
#721=AXIS2_PLACEMENT_3D('',#1063,#816,#817);
#722=AXIS2_PLACEMENT_3D('',#1064,#818,#819);
#723=AXIS2_PLACEMENT_3D('',#1075,#821,#822);
#724=AXIS2_PLACEMENT_3D('',#1091,#824,#825);
#725=AXIS2_PLACEMENT_3D('',#1093,#826,#827);
#726=AXIS2_PLACEMENT_3D('',#1094,#828,#829);
#727=AXIS2_PLACEMENT_3D('',#1128,#830,#831);
#728=AXIS2_PLACEMENT_3D('',#1135,#832,#833);
#729=AXIS2_PLACEMENT_3D('',#1137,#834,#835);
#730=AXIS2_PLACEMENT_3D('',#1150,#836,#837);
#731=AXIS2_PLACEMENT_3D('',#1165,#838,#839);
#732=AXIS2_PLACEMENT_3D('',#1168,#840,#841);
#733=AXIS2_PLACEMENT_3D('',#1170,#842,#843);
#734=AXIS2_PLACEMENT_3D('',#1180,#844,#845);
#735=AXIS2_PLACEMENT_3D('',#1225,#846,#847);
#736=AXIS2_PLACEMENT_3D('',#1226,#848,#849);
#737=AXIS2_PLACEMENT_3D('',#1243,#850,#851);
#738=AXIS2_PLACEMENT_3D('',#1247,#853,#854);
#739=AXIS2_PLACEMENT_3D('',#1254,#855,#856);
#740=AXIS2_PLACEMENT_3D('',#1256,#857,#858);
#741=AXIS2_PLACEMENT_3D('',#1259,#860,#861);
#742=AXIS2_PLACEMENT_3D('',#1261,#862,#863);
#743=AXIS2_PLACEMENT_3D('',#1263,#864,#865);
#744=AXIS2_PLACEMENT_3D('',#1287,#866,#867);
#745=AXIS2_PLACEMENT_3D('',#1323,#868,#869);
#746=AXIS2_PLACEMENT_3D('',#1333,#870,#871);
#747=AXIS2_PLACEMENT_3D('',#1334,#872,#873);
#748=AXIS2_PLACEMENT_3D('',#1335,#874,#875);
#749=AXIS2_PLACEMENT_3D('',#1366,#876,#877);
#750=AXIS2_PLACEMENT_3D('',#1375,#878,#879);
#751=AXIS2_PLACEMENT_3D('',#1387,#880,#881);
#752=AXIS2_PLACEMENT_3D('',#1388,#882,#883);
#753=AXIS2_PLACEMENT_3D('',#1435,#885,#886);
#754=AXIS2_PLACEMENT_3D('',#1441,#890,#891);
#755=AXIS2_PLACEMENT_3D('',#1457,#892,#893);
#756=AXIS2_PLACEMENT_3D('',#1458,#894,#895);
#757=AXIS2_PLACEMENT_3D('',#1459,#896,#897);
#758=AXIS2_PLACEMENT_3D('',#1463,#899,#900);
#759=AXIS2_PLACEMENT_3D('',#1465,#902,#903);
#760=AXIS2_PLACEMENT_3D('',#1466,#904,#905);
#761=AXIS2_PLACEMENT_3D('',#1467,#906,#907);
#762=AXIS2_PLACEMENT_3D('',#1469,#908,#909);
#763=AXIS2_PLACEMENT_3D('',#1470,#910,#911);
#764=AXIS2_PLACEMENT_3D('',#1472,#913,#914);
#765=AXIS2_PLACEMENT_3D('',#1474,#916,#917);
#766=AXIS2_PLACEMENT_3D('',#1478,#920,#921);
#767=AXIS2_PLACEMENT_3D('',#1479,#922,#923);
#768=AXIS2_PLACEMENT_3D('',#1481,#924,#925);
#769=AXIS2_PLACEMENT_3D('',#1483,#926,#927);
#770=AXIS2_PLACEMENT_3D('',#1485,#928,#929);
#771=AXIS2_PLACEMENT_3D('',#1486,#930,#931);
#772=AXIS2_PLACEMENT_3D('',#1489,#933,#934);
#773=AXIS2_PLACEMENT_3D('',#1490,#935,#936);
#774=AXIS2_PLACEMENT_3D('',#1492,#937,#938);
#775=AXIS2_PLACEMENT_3D('',#1495,#940,#941);
#776=AXIS2_PLACEMENT_3D('',#1496,#942,#943);
#777=AXIS2_PLACEMENT_3D('',#1498,#944,#945);
#778=AXIS2_PLACEMENT_3D('',#1501,#947,#948);
#779=AXIS2_PLACEMENT_3D('',#1502,#949,#950);
#780=AXIS2_PLACEMENT_3D('',#1505,#952,#953);
#781=AXIS2_PLACEMENT_3D('',#1506,#954,#955);
#782=AXIS2_PLACEMENT_3D('',#1509,#957,#958);
#783=AXIS2_PLACEMENT_3D('',#1510,#959,#960);
#784=AXIS2_PLACEMENT_3D('',#1512,#961,#962);
#785=AXIS2_PLACEMENT_3D('',#1515,#964,#965);
#786=AXIS2_PLACEMENT_3D('',#1516,#966,#967);
#787=AXIS2_PLACEMENT_3D('',#1518,#968,#969);
#788=AXIS2_PLACEMENT_3D('',#1520,#971,#972);
#789=AXIS2_PLACEMENT_3D('',#1523,#974,#975);
#790=AXIS2_PLACEMENT_3D('',#1524,#976,#977);
#791=AXIS2_PLACEMENT_3D('',#1528,#980,#981);
#792=AXIS2_PLACEMENT_3D('',#1529,#982,#983);
#793=AXIS2_PLACEMENT_3D('',#1530,#984,#985);
#794=AXIS2_PLACEMENT_3D('',#1533,#987,#988);
#795=AXIS2_PLACEMENT_3D('',#1534,#989,#990);
#796=AXIS2_PLACEMENT_3D('',#1536,#992,#993);
#797=AXIS2_PLACEMENT_3D('',#1537,#994,#995);
#798=DIRECTION('axis',(0.,0.,1.));
#799=DIRECTION('refdir',(1.,0.,0.));
#800=DIRECTION('center_axis',(0.,0.,1.));
#801=DIRECTION('ref_axis',(1.,0.,0.));
#802=DIRECTION('center_axis',(-0.972516628058395,0.232833434347238,-1.03398815885941E-15));
#803=DIRECTION('ref_axis',(0.,4.44089209850063E-15,1.));
#804=DIRECTION('center_axis',(0.,0.,-1.));
#805=DIRECTION('ref_axis',(-0.233676828422581,-0.972314321533096,0.));
#806=DIRECTION('center_axis',(0.,0.,1.));
#807=DIRECTION('ref_axis',(-0.233676828422581,-0.972314321533095,0.));
#808=DIRECTION('center_axis',(0.,0.,1.));
#809=DIRECTION('ref_axis',(-1.,0.,0.));
#810=DIRECTION('center_axis',(0.,0.,1.));
#811=DIRECTION('ref_axis',(-1.,0.,0.));
#812=DIRECTION('center_axis',(0.,0.,-1.));
#813=DIRECTION('ref_axis',(0.,1.,0.));
#814=DIRECTION('center_axis',(0.,0.,1.));
#815=DIRECTION('ref_axis',(-0.233676828422581,0.972314321533095,0.));
#816=DIRECTION('center_axis',(0.,0.,1.));
#817=DIRECTION('ref_axis',(-1.,0.,0.));
#818=DIRECTION('center_axis',(0.,0.,1.));
#819=DIRECTION('ref_axis',(0.,1.,0.));
#820=DIRECTION('',(0.,0.,1.));
#821=DIRECTION('center_axis',(0.,0.,1.));
#822=DIRECTION('ref_axis',(0.,1.,0.));
#823=DIRECTION('',(0.,0.,1.));
#824=DIRECTION('center_axis',(0.,0.,1.));
#825=DIRECTION('ref_axis',(1.,0.,0.));
#826=DIRECTION('center_axis',(-4.79163382132067E-17,1.11076551522482E-17,
-1.));
#827=DIRECTION('ref_axis',(-0.233676828422582,0.972314321533095,2.19970701264676E-17));
#828=DIRECTION('center_axis',(-0.9725166280584,-0.232833434347219,0.));
#829=DIRECTION('ref_axis',(0.16463810031387,-0.687673102516767,0.70710678118655));
#830=DIRECTION('center_axis',(0.,0.,1.));
#831=DIRECTION('ref_axis',(-1.,0.,0.));
#832=DIRECTION('center_axis',(0.,0.,1.));
#833=DIRECTION('ref_axis',(0.01536390693238,0.999881968216136,0.));
#834=DIRECTION('center_axis',(0.,0.,-1.));
#835=DIRECTION('ref_axis',(0.01536390693238,0.999881968216136,0.));
#836=DIRECTION('center_axis',(0.,0.,1.));
#837=DIRECTION('ref_axis',(0.01536390693238,0.999881968216136,0.));
#838=DIRECTION('center_axis',(0.,0.,1.));
#839=DIRECTION('ref_axis',(1.,0.,0.));
#840=DIRECTION('center_axis',(0.972516628058403,-0.232833434347204,-5.16994079429632E-16));
#841=DIRECTION('ref_axis',(0.,-2.22044604925031E-15,1.));
#842=DIRECTION('center_axis',(-2.19395623082416E-17,6.5601852811523E-17,
-1.));
#843=DIRECTION('ref_axis',(0.233676828422582,0.972314321533095,5.86588536705804E-17));
#844=DIRECTION('center_axis',(0.,0.,1.));
#845=DIRECTION('ref_axis',(0.233676828422582,0.972314321533095,0.));
#846=DIRECTION('center_axis',(0.,0.,1.));
#847=DIRECTION('ref_axis',(-1.,0.,0.));
#848=DIRECTION('center_axis',(0.,0.,1.));
#849=DIRECTION('ref_axis',(0.217721593499487,0.976010915781194,0.));
#850=DIRECTION('center_axis',(0.,0.,1.));
#851=DIRECTION('ref_axis',(0.217721593499487,0.976010915781194,0.));
#852=DIRECTION('',(-0.00543188125219354,0.707096349398745,0.707096349398744));
#853=DIRECTION('center_axis',(0.,0.,-1.));
#854=DIRECTION('ref_axis',(0.217721593499487,0.976010915781194,0.));
#855=DIRECTION('center_axis',(0.,0.,1.));
#856=DIRECTION('ref_axis',(-1.,0.,0.));
#857=DIRECTION('center_axis',(0.,0.,1.));
#858=DIRECTION('ref_axis',(-1.,0.,0.));
#859=DIRECTION('',(0.,0.,-1.));
#860=DIRECTION('center_axis',(0.,0.,1.));
#861=DIRECTION('ref_axis',(-1.,0.,0.));
#862=DIRECTION('center_axis',(0.,0.,1.));
#863=DIRECTION('ref_axis',(-1.,0.,0.));
#864=DIRECTION('center_axis',(0.,0.,1.));
#865=DIRECTION('ref_axis',(-1.,0.,0.));
#866=DIRECTION('center_axis',(0.,0.,-1.));
#867=DIRECTION('ref_axis',(-1.,0.,0.));
#868=DIRECTION('center_axis',(0.,0.,1.));
#869=DIRECTION('ref_axis',(1.,0.,0.));
#870=DIRECTION('center_axis',(1.24901594173232E-16,4.50999443676074E-17,
-1.));
#871=DIRECTION('ref_axis',(0.233676828422582,-0.972314321533095,-1.46647134176451E-17));
#872=DIRECTION('center_axis',(0.972516628058403,0.232833434347206,-1.80947927800372E-15));
#873=DIRECTION('ref_axis',(-0.164638100313861,0.687673102516772,0.707106781186547));
#874=DIRECTION('center_axis',(0.,0.,1.));
#875=DIRECTION('ref_axis',(0.233676828422582,-0.972314321533095,0.));
#876=DIRECTION('center_axis',(0.,0.,1.));
#877=DIRECTION('ref_axis',(-0.01536390693238,-0.999881968216136,0.));
#878=DIRECTION('center_axis',(0.,0.,-1.));
#879=DIRECTION('ref_axis',(-0.01536390693238,-0.999881968216136,0.));
#880=DIRECTION('center_axis',(0.,0.,1.));
#881=DIRECTION('ref_axis',(-0.01536390693238,-0.999881968216136,0.));
#882=DIRECTION('center_axis',(-1.,0.,0.));
#883=DIRECTION('ref_axis',(0.,1.,0.));
#884=DIRECTION('',(-1.,0.,0.));
#885=DIRECTION('center_axis',(7.9441109113345E-17,0.707106781186547,0.707106781186548));
#886=DIRECTION('ref_axis',(1.,0.,-1.12346693918053E-16));
#887=DIRECTION('',(0.00543188125219354,-0.707096349398744,0.707096349398744));
#888=DIRECTION('',(1.,-1.12346693918053E-16,0.));
#889=DIRECTION('',(-1.,1.12346693918053E-16,0.));
#890=DIRECTION('center_axis',(0.,0.,1.));
#891=DIRECTION('ref_axis',(-0.217721593499487,-0.976010915781194,0.));
#892=DIRECTION('center_axis',(0.,0.,1.));
#893=DIRECTION('ref_axis',(-0.217721593499487,-0.976010915781194,0.));
#894=DIRECTION('center_axis',(0.,0.,-1.));
#895=DIRECTION('ref_axis',(-0.217721593499487,-0.976010915781194,0.));
#896=DIRECTION('center_axis',(0.,0.,1.));
#897=DIRECTION('ref_axis',(0.,-1.,0.));
#898=DIRECTION('',(0.,0.,1.));
#899=DIRECTION('center_axis',(0.,0.,1.));
#900=DIRECTION('ref_axis',(0.,-1.,0.));
#901=DIRECTION('',(0.,0.,1.));
#902=DIRECTION('center_axis',(0.,0.,-1.));
#903=DIRECTION('ref_axis',(0.,-1.,0.));
#904=DIRECTION('center_axis',(0.,0.,1.));
#905=DIRECTION('ref_axis',(-1.,0.,0.));
#906=DIRECTION('center_axis',(0.,0.,1.));
#907=DIRECTION('ref_axis',(-1.,0.,0.));
#908=DIRECTION('center_axis',(0.,0.,-1.));
#909=DIRECTION('ref_axis',(-1.,0.,0.));
#910=DIRECTION('center_axis',(0.,0.,-1.));
#911=DIRECTION('ref_axis',(-1.,0.,0.));
#912=DIRECTION('',(-1.,0.,0.));
#913=DIRECTION('center_axis',(0.,-0.707106781186546,0.707106781186549));
#914=DIRECTION('ref_axis',(1.,0.,0.));
#915=DIRECTION('',(1.,0.,0.));
#916=DIRECTION('center_axis',(0.,0.,1.));
#917=DIRECTION('ref_axis',(-1.,0.,0.));
#918=DIRECTION('',(0.,0.,-1.));
#919=DIRECTION('',(0.,0.,-1.));
#920=DIRECTION('center_axis',(0.,0.,1.));
#921=DIRECTION('ref_axis',(-1.,0.,0.));
#922=DIRECTION('center_axis',(0.,0.,1.));
#923=DIRECTION('ref_axis',(1.,0.,0.));
#924=DIRECTION('center_axis',(0.,0.,1.));
#925=DIRECTION('ref_axis',(1.,0.,0.));
#926=DIRECTION('center_axis',(0.,0.,-1.));
#927=DIRECTION('ref_axis',(1.,0.,0.));
#928=DIRECTION('center_axis',(0.,0.,1.));
#929=DIRECTION('ref_axis',(1.,0.,0.));
#930=DIRECTION('center_axis',(0.,0.,1.));
#931=DIRECTION('ref_axis',(1.,0.,0.));
#932=DIRECTION('',(0.,0.,-1.));
#933=DIRECTION('center_axis',(0.,0.,1.));
#934=DIRECTION('ref_axis',(1.,0.,0.));
#935=DIRECTION('center_axis',(0.,0.,1.));
#936=DIRECTION('ref_axis',(1.,0.,0.));
#937=DIRECTION('center_axis',(0.,0.,1.));
#938=DIRECTION('ref_axis',(1.,0.,0.));
#939=DIRECTION('',(0.,0.,-1.));
#940=DIRECTION('center_axis',(0.,0.,1.));
#941=DIRECTION('ref_axis',(1.,0.,0.));
#942=DIRECTION('center_axis',(0.,0.,1.));
#943=DIRECTION('ref_axis',(1.,0.,0.));
#944=DIRECTION('center_axis',(0.,0.,-1.));
#945=DIRECTION('ref_axis',(1.,0.,0.));
#946=DIRECTION('',(0.,0.,-1.));
#947=DIRECTION('center_axis',(0.,0.,-1.));
#948=DIRECTION('ref_axis',(1.,0.,0.));
#949=DIRECTION('center_axis',(0.,0.,1.));
#950=DIRECTION('ref_axis',(1.,0.,0.));
#951=DIRECTION('',(0.,0.,-1.));
#952=DIRECTION('center_axis',(0.,0.,-1.));
#953=DIRECTION('ref_axis',(1.,0.,0.));
#954=DIRECTION('center_axis',(0.,0.,1.));
#955=DIRECTION('ref_axis',(1.,0.,0.));
#956=DIRECTION('',(0.,0.,-1.));
#957=DIRECTION('center_axis',(0.,0.,1.));
#958=DIRECTION('ref_axis',(1.,0.,0.));
#959=DIRECTION('center_axis',(0.,0.,1.));
#960=DIRECTION('ref_axis',(1.,0.,0.));
#961=DIRECTION('center_axis',(0.,0.,1.));
#962=DIRECTION('ref_axis',(1.,0.,0.));
#963=DIRECTION('',(0.,0.,-1.));
#964=DIRECTION('center_axis',(0.,0.,1.));
#965=DIRECTION('ref_axis',(1.,0.,0.));
#966=DIRECTION('center_axis',(0.,0.,1.));
#967=DIRECTION('ref_axis',(-0.01536390693238,-0.999881968216136,0.));
#968=DIRECTION('center_axis',(0.,0.,1.));
#969=DIRECTION('ref_axis',(-0.01536390693238,-0.999881968216136,0.));
#970=DIRECTION('',(0.,0.,1.));
#971=DIRECTION('center_axis',(0.,0.,1.));
#972=DIRECTION('ref_axis',(0.217721593499487,0.976010915781194,0.));
#973=DIRECTION('',(0.,0.,1.));
#974=DIRECTION('center_axis',(0.,0.,1.));
#975=DIRECTION('ref_axis',(0.217721593499487,0.976010915781194,0.));
#976=DIRECTION('center_axis',(0.,-1.,0.));
#977=DIRECTION('ref_axis',(1.,0.,0.));
#978=DIRECTION('',(0.,0.,1.));
#979=DIRECTION('',(-1.,0.,0.));
#980=DIRECTION('center_axis',(0.,0.,1.));
#981=DIRECTION('ref_axis',(0.01536390693238,0.999881968216136,0.));
#982=DIRECTION('center_axis',(0.,0.,1.));
#983=DIRECTION('ref_axis',(0.01536390693238,0.999881968216136,0.));
#984=DIRECTION('center_axis',(0.,0.,1.));
#985=DIRECTION('ref_axis',(-0.217721593499487,-0.976010915781194,0.));
#986=DIRECTION('',(0.,0.,1.));
#987=DIRECTION('center_axis',(0.,0.,1.));
#988=DIRECTION('ref_axis',(-0.217721593499487,-0.976010915781194,0.));
#989=DIRECTION('center_axis',(1.12346693918053E-16,1.,0.));
#990=DIRECTION('ref_axis',(-1.,1.12346693918053E-16,0.));
#991=DIRECTION('',(-1.,1.12346693918053E-16,0.));
#992=DIRECTION('center_axis',(0.,0.,1.));
#993=DIRECTION('ref_axis',(1.,0.,0.));
#994=DIRECTION('center_axis',(0.,0.,1.));
#995=DIRECTION('ref_axis',(1.,0.,0.));
#996=CARTESIAN_POINT('',(0.,0.,0.));
#997=CARTESIAN_POINT('Origin',(182.621064089703,164.98229523242,6.));
#998=CARTESIAN_POINT('',(147.037496536362,16.354108613594,8.));
#999=CARTESIAN_POINT('',(147.36677273699,17.7294548186275,7.41421356237312));
#1000=CARTESIAN_POINT('Origin',(147.037496536362,16.354108613594,6.));
#1001=CARTESIAN_POINT('',(145.689230191379,18.141212024867,7.41421358845421));
#1002=CARTESIAN_POINT('Origin',(182.621064089703,164.98229523242,7.41421356237312));
#1003=CARTESIAN_POINT('',(142.978022241824,17.3850141921818,8.));
#1004=CARTESIAN_POINT('Ctrl Pts',(145.689230192877,18.1412120131928,7.41421358636986));
#1005=CARTESIAN_POINT('Ctrl Pts',(145.594519089441,18.1215259248196,7.45640632979378));
#1006=CARTESIAN_POINT('Ctrl Pts',(145.496760637237,18.1005219663068,7.49691806462206));
#1007=CARTESIAN_POINT('Ctrl Pts',(144.699268223522,17.9228604489138,7.80411176531851));
#1008=CARTESIAN_POINT('Ctrl Pts',(143.865408922439,17.6946922924551,7.98963861110532));
#1009=CARTESIAN_POINT('Ctrl Pts',(143.023349595118,17.4009571337694,7.99986185736719));
#1010=CARTESIAN_POINT('Ctrl Pts',(143.000641324746,17.3929917215513,8.));
#1011=CARTESIAN_POINT('Ctrl Pts',(142.978022241824,17.3850141921818,8.));
#1012=CARTESIAN_POINT('Origin',(182.621064089703,164.98229523242,8.));
#1013=CARTESIAN_POINT('Ctrl Pts',(147.037496536362,16.354108613594,8.));
#1014=CARTESIAN_POINT('Ctrl Pts',(147.428832837656,16.4150876664983,8.));
#1015=CARTESIAN_POINT('Ctrl Pts',(148.091896014574,16.4974804561414,8.));
#1016=CARTESIAN_POINT('Ctrl Pts',(148.88927565717,16.5532563815358,8.));
#1017=CARTESIAN_POINT('Ctrl Pts',(149.380560025772,16.5728167523538,8.));
#1018=CARTESIAN_POINT('Ctrl Pts',(149.577810700934,16.576756515744,8.));
#1019=CARTESIAN_POINT('Ctrl Pts',(149.577814153851,16.5767547156069,8.00000091480651));
#1020=CARTESIAN_POINT('Ctrl Pts',(147.159407837505,16.8633171292943,8.));
#1021=CARTESIAN_POINT('Ctrl Pts',(147.553279339726,16.8719415821369,7.95977781280467));
#1022=CARTESIAN_POINT('Ctrl Pts',(148.219147144432,16.8559975483002,7.9118658543615));
#1023=CARTESIAN_POINT('Ctrl Pts',(149.011085907192,16.770526659424,7.90129932483129));
#1024=CARTESIAN_POINT('Ctrl Pts',(149.495281023311,16.6809854533775,7.92644162090555));
#1025=CARTESIAN_POINT('Ctrl Pts',(149.688456804117,16.6129784802688,7.96697878834133));
#1026=CARTESIAN_POINT('Ctrl Pts',(149.689071987296,16.5790115679091,8.));
#1027=CARTESIAN_POINT('Ctrl Pts',(147.280568429249,17.3693900241379,7.78445380721962));
#1028=CARTESIAN_POINT('Ctrl Pts',(147.680008236928,17.309893513276,7.74819835354724));
#1029=CARTESIAN_POINT('Ctrl Pts',(148.349189209355,17.1840927129069,7.71795906514847));
#1030=CARTESIAN_POINT('Ctrl Pts',(149.134052042703,16.9653004802467,7.75673511087636));
#1031=CARTESIAN_POINT('Ctrl Pts',(149.610324148545,16.7771426714318,7.83650551318672));
#1032=CARTESIAN_POINT('Ctrl Pts',(149.799223424936,16.6431830269262,7.92680774516208));
#1033=CARTESIAN_POINT('Ctrl Pts',(149.800463323926,16.5747791411828,7.99332430876016));
#1034=CARTESIAN_POINT('Ctrl Pts',(147.36677273699,17.7294548186275,7.4142135623731));
#1035=CARTESIAN_POINT('Ctrl Pts',(147.779291175816,17.6306924097674,7.4142135623731));
#1036=CARTESIAN_POINT('Ctrl Pts',(148.462088708424,17.4370454595806,7.44654263383129));
#1037=CARTESIAN_POINT('Ctrl Pts',(149.249163574573,17.1249497360574,7.57624267172147));
#1038=CARTESIAN_POINT('Ctrl Pts',(149.722281919247,16.8593188758864,7.73232442258761));
#1039=CARTESIAN_POINT('Ctrl Pts',(149.908571741311,16.6669510568623,7.88004444180677));
#1040=CARTESIAN_POINT('Ctrl Pts',(149.910439246149,16.5641179570618,7.98006554609554));
#1041=CARTESIAN_POINT('',(149.577810700934,16.576756515744,8.));
#1042=CARTESIAN_POINT('',(149.909370950333,16.5805826718727,7.96421670560392));
#1043=CARTESIAN_POINT('Ctrl Pts',(149.577814153851,16.5767547156069,8.00000091480651));
#1044=CARTESIAN_POINT('Ctrl Pts',(149.633434893358,16.5778829758841,8.00000045747049));
#1045=CARTESIAN_POINT('Ctrl Pts',(149.689030564707,16.5787617541436,7.99699819371845));
#1046=CARTESIAN_POINT('Ctrl Pts',(149.744341824022,16.5793788328545,7.9910496099875));
#1047=CARTESIAN_POINT('Ctrl Pts',(149.799788212108,16.5799974191263,7.98508649350457));
#1048=CARTESIAN_POINT('Ctrl Pts',(149.854886075645,16.5803525320575,7.97616920962337));
#1049=CARTESIAN_POINT('Ctrl Pts',(149.90938194613,16.5804372082352,7.9643565342884));
#1050=CARTESIAN_POINT('Ctrl Pts',(149.909365699472,16.5805829967479,7.96421766331227));
#1051=CARTESIAN_POINT('Ctrl Pts',(149.898557819298,16.6772117588465,7.87218238346782));
#1052=CARTESIAN_POINT('Ctrl Pts',(149.715946746385,16.8628757394825,7.73023444894029));
#1053=CARTESIAN_POINT('Ctrl Pts',(149.249163574573,17.1249497360574,7.57624267172147));
#1054=CARTESIAN_POINT('Ctrl Pts',(148.462088708424,17.4370454595806,7.44654263383129));
#1055=CARTESIAN_POINT('Ctrl Pts',(147.779291175816,17.6306924097674,7.4142135623731));
#1056=CARTESIAN_POINT('Ctrl Pts',(147.36677273699,17.7294548186275,7.4142135623731));
#1057=CARTESIAN_POINT('Origin',(149.96282506478,-2.41934213475872,8.));
#1058=CARTESIAN_POINT('Origin',(139.46282506478,-2.41934213475872,8.));
#1059=CARTESIAN_POINT('',(142.978022241824,-22.2236984616992,8.));
#1060=CARTESIAN_POINT('Origin',(149.96282506478,-2.41934213475872,8.));
#1061=CARTESIAN_POINT('',(147.037496536362,-21.1927928831114,8.));
#1062=CARTESIAN_POINT('Origin',(182.621064089703,-169.820979501938,8.));
#1063=CARTESIAN_POINT('Origin',(149.96282506478,-2.41934213475872,8.));
#1064=CARTESIAN_POINT('Origin',(149.96282506478,-2.41934213475872,0.));
#1065=CARTESIAN_POINT('',(149.96282506478,18.5806578652413,6.));
#1066=CARTESIAN_POINT('Ctrl Pts',(145.689230192877,18.1412120131928,7.41421358636987));
#1067=CARTESIAN_POINT('Ctrl Pts',(146.612350092805,18.3330862419754,7.00297392179414));
#1068=CARTESIAN_POINT('Ctrl Pts',(147.59078581662,18.4703346812028,6.6384879243925));
#1069=CARTESIAN_POINT('Ctrl Pts',(149.044783965887,18.5655047101214,6.21668964665361));
#1070=CARTESIAN_POINT('Ctrl Pts',(149.503177797112,18.5806578652413,6.10007513556436));
#1071=CARTESIAN_POINT('Ctrl Pts',(149.96282506478,18.5806578652413,6.00000000000005));
#1072=CARTESIAN_POINT('',(149.96282506478,18.5806578652413,0.));
#1073=CARTESIAN_POINT('',(149.96282506478,18.5806578652413,0.));
#1074=CARTESIAN_POINT('',(149.96282506478,-23.4193421347587,0.));
#1075=CARTESIAN_POINT('Origin',(149.96282506478,-2.41934213475872,0.));
#1076=CARTESIAN_POINT('',(149.96282506478,-23.4193421347587,6.));
#1077=CARTESIAN_POINT('',(149.96282506478,-23.4193421347587,0.));
#1078=CARTESIAN_POINT('',(145.689230171888,-22.9798962783476,7.41421357904662));
#1079=CARTESIAN_POINT('Ctrl Pts',(149.96282506478,-23.4193421347587,6.));
#1080=CARTESIAN_POINT('Ctrl Pts',(149.503515219804,-23.4193421347587,6.1000016713581));
#1081=CARTESIAN_POINT('Ctrl Pts',(149.045457534839,-23.4042112868743,6.21651824408701));
#1082=CARTESIAN_POINT('Ctrl Pts',(147.591426996037,-23.3091089360958,6.63824901777162));
#1083=CARTESIAN_POINT('Ctrl Pts',(146.612642278654,-23.1718312442141,7.00284375548369));
#1084=CARTESIAN_POINT('Ctrl Pts',(145.689230177871,-22.9798962795911,7.41421359305516));
#1085=CARTESIAN_POINT('Ctrl Pts',(142.978022241824,-22.2236984616992,8.));
#1086=CARTESIAN_POINT('Ctrl Pts',(143.281065890493,-22.3305789933237,8.));
#1087=CARTESIAN_POINT('Ctrl Pts',(143.594407047323,-22.433170695416,7.97525566593547));
#1088=CARTESIAN_POINT('Ctrl Pts',(144.555086163424,-22.7222283747977,7.8299420430421));
#1089=CARTESIAN_POINT('Ctrl Pts',(145.172975426096,-22.8725906276136,7.64419934263336));
#1090=CARTESIAN_POINT('Ctrl Pts',(145.689230177871,-22.9798962795911,7.41421359305518));
#1091=CARTESIAN_POINT('Origin',(182.621064089703,-169.820979501938,6.));
#1092=CARTESIAN_POINT('',(147.36677273699,-22.5681390881449,7.41421356237308));
#1093=CARTESIAN_POINT('Origin',(182.621064089703,-169.820979501938,7.41421356237307));
#1094=CARTESIAN_POINT('Origin',(147.037496536362,-21.1927928831114,6.));
#1095=CARTESIAN_POINT('Ctrl Pts',(149.577814153851,-21.4154389851244,8.00000091480651));
#1096=CARTESIAN_POINT('Ctrl Pts',(149.577810700934,-21.4154407852615,8.));
#1097=CARTESIAN_POINT('Ctrl Pts',(149.278995023009,-21.4095693292141,8.));
#1098=CARTESIAN_POINT('Ctrl Pts',(148.35965156358,-21.3650437219297,8.));
#1099=CARTESIAN_POINT('Ctrl Pts',(147.558977556823,-21.2740514288434,8.));
#1100=CARTESIAN_POINT('Ctrl Pts',(147.037496536362,-21.1927928831114,8.));
#1101=CARTESIAN_POINT('Ctrl Pts',(149.689071987296,-21.4176958374265,8.));
#1102=CARTESIAN_POINT('Ctrl Pts',(149.688455901956,-21.4517125619997,7.96693036299056));
#1103=CARTESIAN_POINT('Ctrl Pts',(149.395780779185,-21.5504558574487,7.90964900463975));
#1104=CARTESIAN_POINT('Ctrl Pts',(148.487516143976,-21.6808581927051,7.89740894627313));
#1105=CARTESIAN_POINT('Ctrl Pts',(147.684267177744,-21.7134940419793,7.94640132501271));
#1106=CARTESIAN_POINT('Ctrl Pts',(147.159407837505,-21.7020013988118,8.));
#1107=CARTESIAN_POINT('Ctrl Pts',(149.800463323926,-21.4134634107002,7.99332430876016));
#1108=CARTESIAN_POINT('Ctrl Pts',(149.799221606633,-21.4819676102115,7.9267101991375));
#1109=CARTESIAN_POINT('Ctrl Pts',(149.51300414966,-21.6763691379914,7.79815136767589));
#1110=CARTESIAN_POINT('Ctrl Pts',(148.617619292419,-21.9647954683542,7.7137337982546));
#1111=CARTESIAN_POINT('Ctrl Pts',(147.812847897911,-22.1287913314167,7.73614106210544));
#1112=CARTESIAN_POINT('Ctrl Pts',(147.280568429249,-22.2080742936553,7.78445380721963));
#1113=CARTESIAN_POINT('Ctrl Pts',(149.910439246149,-21.4028022265792,7.98006554609554));
#1114=CARTESIAN_POINT('Ctrl Pts',(149.908569002629,-21.5057861303229,7.87989776163314));
#1115=CARTESIAN_POINT('Ctrl Pts',(149.626303526329,-21.7844748750724,7.66855806398435));
#1116=CARTESIAN_POINT('Ctrl Pts',(148.734326297857,-22.1893233222133,7.46903609168006));
#1117=CARTESIAN_POINT('Ctrl Pts',(147.916480330501,-22.4365317683405,7.41421356237309));
#1118=CARTESIAN_POINT('Ctrl Pts',(147.36677273699,-22.568139088145,7.4142135623731));
#1119=CARTESIAN_POINT('',(149.909370950332,-21.4192669413902,7.96421670560392));
#1120=CARTESIAN_POINT('',(149.577810700934,-21.4154407852615,8.));
#1121=CARTESIAN_POINT('Ctrl Pts',(149.909370204059,-21.4191504646402,7.96433075289436));
#1122=CARTESIAN_POINT('Ctrl Pts',(149.854879141913,-21.4190514049952,7.9761562970205));
#1123=CARTESIAN_POINT('Ctrl Pts',(149.799784270546,-21.4186889443027,7.98508004936281));
#1124=CARTESIAN_POINT('Ctrl Pts',(149.744339656458,-21.4180667226788,7.99104638940838));
#1125=CARTESIAN_POINT('Ctrl Pts',(149.689030107876,-21.4174460168139,7.99699819518852));
#1126=CARTESIAN_POINT('Ctrl Pts',(149.633434923093,-21.4165672460047,8.00000045747024));
#1127=CARTESIAN_POINT('Ctrl Pts',(149.577814153851,-21.4154389851244,8.00000091480651));
#1128=CARTESIAN_POINT('Origin',(149.96282506478,-2.41934213475872,8.));
#1129=CARTESIAN_POINT('Ctrl Pts',(147.36677273699,-22.568139088145,7.4142135623731));
#1130=CARTESIAN_POINT('Ctrl Pts',(147.916480330501,-22.4365317683405,7.41421356237309));
#1131=CARTESIAN_POINT('Ctrl Pts',(148.734326297857,-22.1893233222133,7.46903609168006));
#1132=CARTESIAN_POINT('Ctrl Pts',(149.619476521158,-21.7875734995145,7.66703096498105));
#1133=CARTESIAN_POINT('Ctrl Pts',(149.898455237434,-21.5157066991653,7.87238932996192));
#1134=CARTESIAN_POINT('Ctrl Pts',(149.909356994057,-21.4192676701596,7.96421914064579));
#1135=CARTESIAN_POINT('Origin',(182.621064089703,-169.820979501938,11.));
#1136=CARTESIAN_POINT('',(184.92565012956,-19.8386842695175,6.));
#1137=CARTESIAN_POINT('Origin',(182.621064089703,-169.820979501938,6.));
#1138=CARTESIAN_POINT('',(185.002478173572,-9.83870277429163,16.));
#1139=CARTESIAN_POINT('Ctrl Pts',(184.92565012956,-19.8386842695174,5.99999999999998));
#1140=CARTESIAN_POINT('Ctrl Pts',(184.93245254589,-19.0053570887818,6.83333333333332));
#1141=CARTESIAN_POINT('Ctrl Pts',(184.939154942694,-18.1720287314024,7.66666666666665));
#1142=CARTESIAN_POINT('Ctrl Pts',(184.952359696789,-16.5053696993717,9.33333333333332));
#1143=CARTESIAN_POINT('Ctrl Pts',(184.95886205408,-15.6720390247204,10.1666666666667));
#1144=CARTESIAN_POINT('Ctrl Pts',(184.971666728689,-14.0053753941617,11.8333333333333));
#1145=CARTESIAN_POINT('Ctrl Pts',(184.977969046008,-13.1720424382543,12.6666666666667));
#1146=CARTESIAN_POINT('Ctrl Pts',(184.99037364022,-11.5053742811991,14.3333333333333));
#1147=CARTESIAN_POINT('Ctrl Pts',(184.996475917114,-10.6720390800515,15.1666666666667));
#1148=CARTESIAN_POINT('Ctrl Pts',(185.002478173572,-9.83870277429162,16.));
#1149=CARTESIAN_POINT('',(167.124242732787,-10.5732211885731,16.));
#1150=CARTESIAN_POINT('Origin',(182.621064089703,-169.820979501938,16.));
#1151=CARTESIAN_POINT('Ctrl Pts',(149.909370950332,-21.4192669413902,7.96421670560392));
#1152=CARTESIAN_POINT('Ctrl Pts',(150.048326722866,-21.4196578775567,7.9339234280977));
#1153=CARTESIAN_POINT('Ctrl Pts',(150.18740282216,-21.4185243793645,7.9052745507941));
#1154=CARTESIAN_POINT('Ctrl Pts',(151.428302166781,-21.3947668258191,7.66463098893775));
#1155=CARTESIAN_POINT('Ctrl Pts',(152.533174967438,-21.276086260407,7.55752334453474));
#1156=CARTESIAN_POINT('Ctrl Pts',(154.668689418823,-20.8594706138019,7.55752334453474));
#1157=CARTESIAN_POINT('Ctrl Pts',(155.737152151222,-20.5541570508636,7.66463098893775));
#1158=CARTESIAN_POINT('Ctrl Pts',(157.794986416443,-19.7649932863894,8.09196040246233));
#1159=CARTESIAN_POINT('Ctrl Pts',(158.784489723817,-19.2813290385126,8.41189092907973));
#1160=CARTESIAN_POINT('Ctrl Pts',(161.544611042357,-17.6330086050186,9.62766317320888));
#1161=CARTESIAN_POINT('Ctrl Pts',(163.103823123333,-16.2604559441055,10.7900725432596));
#1162=CARTESIAN_POINT('Ctrl Pts',(165.441542588658,-13.5765221998339,13.1807225566368));
#1163=CARTESIAN_POINT('Ctrl Pts',(166.393825989967,-12.1105246870071,14.5406687612916));
#1164=CARTESIAN_POINT('Ctrl Pts',(167.124242732787,-10.5732211885731,16.));
#1165=CARTESIAN_POINT('Origin',(237.304586039857,-169.820979501938,6.));
#1166=CARTESIAN_POINT('',(272.888153593198,-21.1927928831114,8.));
#1167=CARTESIAN_POINT('',(272.55887739257,-22.568139088145,7.4142135623731));
#1168=CARTESIAN_POINT('Origin',(272.888153593198,-21.1927928831114,6.));
#1169=CARTESIAN_POINT('',(274.236419938294,-22.9798962943854,7.4142135885076));
#1170=CARTESIAN_POINT('Origin',(237.304586039857,-169.820979501938,7.41421356237309));
#1171=CARTESIAN_POINT('',(276.947627887736,-22.2236984616992,8.));
#1172=CARTESIAN_POINT('Ctrl Pts',(274.236419936793,-22.9798962826873,7.41421358641901));
#1173=CARTESIAN_POINT('Ctrl Pts',(274.331131038676,-22.9602101946366,7.45640632914824));
#1174=CARTESIAN_POINT('Ctrl Pts',(274.428889489222,-22.9392062364904,7.49691806333547));
#1175=CARTESIAN_POINT('Ctrl Pts',(275.226381899808,-22.7615447199918,7.80411176355752));
#1176=CARTESIAN_POINT('Ctrl Pts',(276.060241199743,-22.5333765641815,7.98963860987817));
#1177=CARTESIAN_POINT('Ctrl Pts',(276.902300529217,-22.2396414051199,7.9998618573354));
#1178=CARTESIAN_POINT('Ctrl Pts',(276.925008802212,-22.2316759919867,8.));
#1179=CARTESIAN_POINT('Ctrl Pts',(276.947627887736,-22.2236984616992,8.));
#1180=CARTESIAN_POINT('Origin',(237.304586039857,-169.820979501938,8.));
#1181=CARTESIAN_POINT('Ctrl Pts',(272.888153593198,-21.1927928831114,8.));
#1182=CARTESIAN_POINT('Ctrl Pts',(272.496817291904,-21.2537719360157,8.));
#1183=CARTESIAN_POINT('Ctrl Pts',(271.833755164917,-21.3361645067039,8.));
#1184=CARTESIAN_POINT('Ctrl Pts',(271.036374151422,-21.3919405956746,8.));
#1185=CARTESIAN_POINT('Ctrl Pts',(270.545090538542,-21.4115009515668,8.));
#1186=CARTESIAN_POINT('Ctrl Pts',(270.347839428626,-21.4154407852615,8.));
#1187=CARTESIAN_POINT('Ctrl Pts',(270.347835975709,-21.4154389851244,8.00000091480651));
#1188=CARTESIAN_POINT('Ctrl Pts',(272.766242292055,-21.7020013988118,8.));
#1189=CARTESIAN_POINT('Ctrl Pts',(272.372370789834,-21.7106258516544,7.95977781280467));
#1190=CARTESIAN_POINT('Ctrl Pts',(271.706504691209,-21.6946771409022,7.9118650930859));
#1191=CARTESIAN_POINT('Ctrl Pts',(270.914564182336,-21.6092083183055,7.90129972628372));
#1192=CARTESIAN_POINT('Ctrl Pts',(270.430369778005,-21.5196673884662,7.92644210067186));
#1193=CARTESIAN_POINT('Ctrl Pts',(270.237193325443,-21.4516627497863,7.96697878834132));
#1194=CARTESIAN_POINT('Ctrl Pts',(270.236578142264,-21.4176958374265,8.));
#1195=CARTESIAN_POINT('Ctrl Pts',(272.645081700311,-22.2080742936553,7.78445380721963));
#1196=CARTESIAN_POINT('Ctrl Pts',(272.245641892632,-22.1485777827934,7.74819835354724));
#1197=CARTESIAN_POINT('Ctrl Pts',(271.576462915547,-22.0227684188059,7.71796188318109));
#1198=CARTESIAN_POINT('Ctrl Pts',(270.791598203817,-21.8039799306039,7.75673754614225));
#1199=CARTESIAN_POINT('Ctrl Pts',(270.315326779996,-21.6158226497294,7.8365078558926));
#1200=CARTESIAN_POINT('Ctrl Pts',(270.126426704625,-21.4818672964437,7.92680774516206));
#1201=CARTESIAN_POINT('Ctrl Pts',(270.125186805634,-21.4134634107002,7.99332430876016));
#1202=CARTESIAN_POINT('Ctrl Pts',(272.55887739257,-22.568139088145,7.4142135623731));
#1203=CARTESIAN_POINT('Ctrl Pts',(272.146358953744,-22.4693766792849,7.4142135623731));
#1204=CARTESIAN_POINT('Ctrl Pts',(271.463563053987,-22.2757194549334,7.44655306808592));
#1205=CARTESIAN_POINT('Ctrl Pts',(270.676486581228,-21.9636278584889,7.5762486997589));
#1206=CARTESIAN_POINT('Ctrl Pts',(270.203368925455,-21.6979976459582,7.73232996597007));
#1207=CARTESIAN_POINT('Ctrl Pts',(270.01707838825,-21.5056353263797,7.88004444180674));
#1208=CARTESIAN_POINT('Ctrl Pts',(270.015210883411,-21.4028022265793,7.98006554609553));
#1209=CARTESIAN_POINT('',(270.347839428626,-21.4154407852615,8.));
#1210=CARTESIAN_POINT('',(270.016279179228,-21.4192669413902,7.96421670560392));
#1211=CARTESIAN_POINT('Ctrl Pts',(270.347835975709,-21.4154389851244,8.00000091480651));
#1212=CARTESIAN_POINT('Ctrl Pts',(270.292215236205,-21.4165672454015,8.00000045747049));
#1213=CARTESIAN_POINT('Ctrl Pts',(270.236619565048,-21.4174460234836,7.99699819337601));
#1214=CARTESIAN_POINT('Ctrl Pts',(270.181308306269,-21.4180630990193,7.99104961183318));
#1215=CARTESIAN_POINT('Ctrl Pts',(270.125861918717,-21.4186816821082,7.98508649754338));
#1216=CARTESIAN_POINT('Ctrl Pts',(270.070764056064,-21.419036788801,7.9761692184271));
#1217=CARTESIAN_POINT('Ctrl Pts',(270.01626818636,-21.4191214551112,7.96435655710755));
#1218=CARTESIAN_POINT('Ctrl Pts',(270.016284435682,-21.4192672665724,7.9642176642961));
#1219=CARTESIAN_POINT('Ctrl Pts',(270.027092362111,-21.5158957520637,7.87218266545588));
#1220=CARTESIAN_POINT('Ctrl Pts',(270.20970409811,-21.701554505945,7.73023999583759));
#1221=CARTESIAN_POINT('Ctrl Pts',(270.676486581228,-21.9636278584889,7.5762486997589));
#1222=CARTESIAN_POINT('Ctrl Pts',(271.463563053987,-22.2757194549334,7.44655306808592));
#1223=CARTESIAN_POINT('Ctrl Pts',(272.146358953744,-22.4693766792849,7.4142135623731));
#1224=CARTESIAN_POINT('Ctrl Pts',(272.55887739257,-22.568139088145,7.4142135623731));
#1225=CARTESIAN_POINT('Origin',(269.96282506478,-2.41934213475872,8.));
#1226=CARTESIAN_POINT('Origin',(237.304586039857,-169.820979501938,11.));
#1227=CARTESIAN_POINT('',(252.801407396773,-10.5732211885731,16.));
#1228=CARTESIAN_POINT('Ctrl Pts',(252.801407396773,-10.573221188573,16.));
#1229=CARTESIAN_POINT('Ctrl Pts',(253.531824139593,-12.1105246870071,14.5406687612916));
#1230=CARTESIAN_POINT('Ctrl Pts',(254.484107540902,-13.5765221998339,13.1807225566368));
#1231=CARTESIAN_POINT('Ctrl Pts',(256.821827006227,-16.2604559441055,10.7900725432596));
#1232=CARTESIAN_POINT('Ctrl Pts',(258.381039087203,-17.6330086050187,9.62766317320882));
#1233=CARTESIAN_POINT('Ctrl Pts',(261.141160405743,-19.2813290385126,8.41189092907968));
#1234=CARTESIAN_POINT('Ctrl Pts',(262.130663713117,-19.7649932863894,8.0919604024623));
#1235=CARTESIAN_POINT('Ctrl Pts',(264.188497978339,-20.5541570508636,7.66463098893773));
#1236=CARTESIAN_POINT('Ctrl Pts',(265.256960710737,-20.8594706138019,7.55752334453474));
#1237=CARTESIAN_POINT('Ctrl Pts',(267.392475162122,-21.2760862604071,7.55752334453475));
#1238=CARTESIAN_POINT('Ctrl Pts',(268.49734796278,-21.3947668258191,7.66463098893774));
#1239=CARTESIAN_POINT('Ctrl Pts',(269.7382473074,-21.4185243793645,7.9052745507941));
#1240=CARTESIAN_POINT('Ctrl Pts',(269.877323406694,-21.4196578775567,7.9339234280977));
#1241=CARTESIAN_POINT('Ctrl Pts',(270.016279179228,-21.4192669413902,7.96421670560394));
#1242=CARTESIAN_POINT('',(234.923180465338,-9.83868426951741,16.));
#1243=CARTESIAN_POINT('Origin',(237.304586039857,-169.820979501938,16.));
#1244=CARTESIAN_POINT('',(235.,-19.8386842695174,6.));
#1245=CARTESIAN_POINT('',(235.,-19.8386842695174,6.));
#1246=CARTESIAN_POINT('',(269.96282506478,-23.4193421347587,6.));
#1247=CARTESIAN_POINT('Origin',(237.304586039857,-169.820979501938,6.));
#1248=CARTESIAN_POINT('Ctrl Pts',(274.236419936793,-22.9798962826873,7.41421358641901));
#1249=CARTESIAN_POINT('Ctrl Pts',(273.313007840387,-23.1718312457027,7.00284375155086));
#1250=CARTESIAN_POINT('Ctrl Pts',(272.334223128142,-23.3091089364478,6.63824901621082));
#1251=CARTESIAN_POINT('Ctrl Pts',(270.880192594721,-23.4042112868744,6.21651824408701));
#1252=CARTESIAN_POINT('Ctrl Pts',(270.422134909756,-23.4193421347588,6.10000167135808));
#1253=CARTESIAN_POINT('Ctrl Pts',(269.96282506478,-23.4193421347588,5.99999999999999));
#1254=CARTESIAN_POINT('Origin',(269.96282506478,-2.41934213475872,5.));
#1255=CARTESIAN_POINT('',(288.96282506478,-2.41934213475872,8.));
#1256=CARTESIAN_POINT('Origin',(269.96282506478,-2.41934213475872,8.));
#1257=CARTESIAN_POINT('',(288.96282506478,-2.41934213475872,5.));
#1258=CARTESIAN_POINT('',(288.96282506478,-2.41934213475872,5.));
#1259=CARTESIAN_POINT('Origin',(269.96282506478,-2.41934213475872,5.));
#1260=CARTESIAN_POINT('',(272.888153593198,16.354108613594,8.));
#1261=CARTESIAN_POINT('Origin',(269.96282506478,-2.41934213475872,8.));
#1262=CARTESIAN_POINT('',(270.347839428626,16.576756515744,8.));
#1263=CARTESIAN_POINT('Origin',(269.96282506478,-2.41934213475872,8.));
#1264=CARTESIAN_POINT('',(270.016279179228,16.5805826718727,7.96421670560392));
#1265=CARTESIAN_POINT('Ctrl Pts',(270.016279922476,16.5804661737113,7.96433077319612));
#1266=CARTESIAN_POINT('Ctrl Pts',(270.070770985626,16.5803671239986,7.97615630601116));
#1267=CARTESIAN_POINT('Ctrl Pts',(270.125865857673,16.5800046689605,7.98508005370899));
#1268=CARTESIAN_POINT('Ctrl Pts',(270.181310472269,16.5793824502049,7.99104639150645));
#1269=CARTESIAN_POINT('Ctrl Pts',(270.236620021355,16.5787617472013,7.99699819504377));
#1270=CARTESIAN_POINT('Ctrl Pts',(270.292215206472,16.5778829764872,8.00000045747024));
#1271=CARTESIAN_POINT('Ctrl Pts',(270.347835975709,16.5767547156069,8.00000091480651));
#1272=CARTESIAN_POINT('',(252.801407396773,5.73453691905565,16.));
#1273=CARTESIAN_POINT('Ctrl Pts',(270.016279179228,16.5805826718727,7.96421670560391));
#1274=CARTESIAN_POINT('Ctrl Pts',(269.877323406694,16.5809736080393,7.93392342809769));
#1275=CARTESIAN_POINT('Ctrl Pts',(269.7382473074,16.5798401098471,7.9052745507941));
#1276=CARTESIAN_POINT('Ctrl Pts',(268.497347962779,16.5560825563017,7.66463098893774));
#1277=CARTESIAN_POINT('Ctrl Pts',(267.392475162122,16.4374019908896,7.55752334453474));
#1278=CARTESIAN_POINT('Ctrl Pts',(265.256960710737,16.0207863442844,7.55752334453474));
#1279=CARTESIAN_POINT('Ctrl Pts',(264.188497978339,15.7154727813461,7.66463098893774));
#1280=CARTESIAN_POINT('Ctrl Pts',(262.130663713117,14.9263090168719,8.09196040246233));
#1281=CARTESIAN_POINT('Ctrl Pts',(261.141160405743,14.4426447689951,8.41189092907972));
#1282=CARTESIAN_POINT('Ctrl Pts',(258.381039087203,12.7943243355012,9.62766317320885));
#1283=CARTESIAN_POINT('Ctrl Pts',(256.821827006227,11.4217716745881,10.7900725432596));
#1284=CARTESIAN_POINT('Ctrl Pts',(254.484107540902,8.7378379303165,13.1807225566368));
#1285=CARTESIAN_POINT('Ctrl Pts',(253.531824139593,7.27184041748971,14.5406687612916));
#1286=CARTESIAN_POINT('Ctrl Pts',(252.801407396773,5.73453691905564,16.));
#1287=CARTESIAN_POINT('Origin',(269.96282506478,-2.41934213475872,16.));
#1288=CARTESIAN_POINT('',(251.640556603574,-7.44870376775931,10.5));
#1289=CARTESIAN_POINT('Ctrl Pts',(251.640556603574,-7.44870376775931,10.5));
#1290=CARTESIAN_POINT('Ctrl Pts',(251.640556603574,-7.44870376775931,11.1310944332528));
#1291=CARTESIAN_POINT('Ctrl Pts',(251.604346023746,-7.32196561519719,11.8020747019354));
#1292=CARTESIAN_POINT('Ctrl Pts',(251.475417564989,-6.81083749478433,13.0329570558464));
#1293=CARTESIAN_POINT('Ctrl Pts',(251.384757740061,-6.42659888700032,13.5931366836314));
#1294=CARTESIAN_POINT('Ctrl Pts',(251.215809972831,-5.54217813010059,14.4776294456738));
#1295=CARTESIAN_POINT('Ctrl Pts',(251.126264449485,-4.98193760357304,14.8619909103891));
#1296=CARTESIAN_POINT('Ctrl Pts',(250.999439791777,-3.75085642836617,15.3732573495698));
#1297=CARTESIAN_POINT('Ctrl Pts',(250.963822982472,-3.07977769380429,15.5));
#1298=CARTESIAN_POINT('Ctrl Pts',(250.961872836245,-1.81783377977679,15.5));
#1299=CARTESIAN_POINT('Ctrl Pts',(250.995395083202,-1.14684978361397,15.3733306955932));
#1300=CARTESIAN_POINT('Ctrl Pts',(251.118329502279,0.084180165693681,14.8621868915989));
#1301=CARTESIAN_POINT('Ctrl Pts',(251.206077133608,0.644457578816023,14.4778708937027));
#1302=CARTESIAN_POINT('Ctrl Pts',(251.372162393503,1.52905618878476,13.5933434265605));
#1303=CARTESIAN_POINT('Ctrl Pts',(251.461556585027,1.91337517157247,13.0330692334467));
#1304=CARTESIAN_POINT('Ctrl Pts',(251.58877001439,2.42456927251074,11.8020675063409));
#1305=CARTESIAN_POINT('Ctrl Pts',(251.624538497477,2.55129623224069,11.1310673928825));
#1306=CARTESIAN_POINT('Ctrl Pts',(251.624538497477,2.55129623224069,9.86893260711751));
#1307=CARTESIAN_POINT('Ctrl Pts',(251.58877001439,2.42456927251074,9.19793249365912));
#1308=CARTESIAN_POINT('Ctrl Pts',(251.461556585027,1.91337517157246,7.96693076655333));
#1309=CARTESIAN_POINT('Ctrl Pts',(251.372162393503,1.52905618878476,7.40665657343954));
#1310=CARTESIAN_POINT('Ctrl Pts',(251.206077133608,0.644457578816024,6.52212910629734));
#1311=CARTESIAN_POINT('Ctrl Pts',(251.118329502279,0.0841801656936775,6.13781310840115));
#1312=CARTESIAN_POINT('Ctrl Pts',(250.995395083202,-1.14684978361398,5.6266693044068));
#1313=CARTESIAN_POINT('Ctrl Pts',(250.961872836245,-1.81783377977678,5.5));
#1314=CARTESIAN_POINT('Ctrl Pts',(250.963822982472,-3.07977769380428,5.5));
#1315=CARTESIAN_POINT('Ctrl Pts',(250.999439791777,-3.75085642836617,5.62674265043018));
#1316=CARTESIAN_POINT('Ctrl Pts',(251.126264449485,-4.98193760357304,6.13800908961088));
#1317=CARTESIAN_POINT('Ctrl Pts',(251.215809972831,-5.54217813010059,6.52237055432623));
#1318=CARTESIAN_POINT('Ctrl Pts',(251.384757740061,-6.42659888700032,7.40686331636856));
#1319=CARTESIAN_POINT('Ctrl Pts',(251.475417564989,-6.81083749478433,7.9670429441536));
#1320=CARTESIAN_POINT('Ctrl Pts',(251.604346023746,-7.32196561519719,9.19792529806465));
#1321=CARTESIAN_POINT('Ctrl Pts',(251.640556603574,-7.44870376775931,9.86890556674725));
#1322=CARTESIAN_POINT('Ctrl Pts',(251.640556603574,-7.44870376775931,10.5));
#1323=CARTESIAN_POINT('Origin',(237.304586039857,164.98229523242,6.));
#1324=CARTESIAN_POINT('',(276.947627887736,17.3850141921818,8.));
#1325=CARTESIAN_POINT('',(274.236419957519,18.1412120088619,7.41421357901271));
#1326=CARTESIAN_POINT('Ctrl Pts',(276.947627887736,17.3850141921818,8.));
#1327=CARTESIAN_POINT('Ctrl Pts',(276.644584238446,17.491894724025,8.));
#1328=CARTESIAN_POINT('Ctrl Pts',(276.331243080961,17.5944864263159,7.97525566583432));
#1329=CARTESIAN_POINT('Ctrl Pts',(275.370563964871,17.8835441055937,7.82994204266474));
#1330=CARTESIAN_POINT('Ctrl Pts',(274.752674702859,18.0339063582257,7.64419934238006));
#1331=CARTESIAN_POINT('Ctrl Pts',(274.236419951549,18.1412120101027,7.41421359299279));
#1332=CARTESIAN_POINT('',(272.55887739257,17.7294548186275,7.41421356237308));
#1333=CARTESIAN_POINT('Origin',(237.304586039857,164.98229523242,7.41421356237308));
#1334=CARTESIAN_POINT('Origin',(272.888153593198,16.354108613594,6.));
#1335=CARTESIAN_POINT('Origin',(237.304586039857,164.98229523242,8.));
#1336=CARTESIAN_POINT('Ctrl Pts',(270.347835975709,16.5767547156069,8.00000091480651));
#1337=CARTESIAN_POINT('Ctrl Pts',(270.347839428626,16.576756515744,8.));
#1338=CARTESIAN_POINT('Ctrl Pts',(270.646653666795,16.570885046359,8.));
#1339=CARTESIAN_POINT('Ctrl Pts',(271.565999595712,16.526359170758,8.));
#1340=CARTESIAN_POINT('Ctrl Pts',(272.366672572738,16.4353671593259,8.));
#1341=CARTESIAN_POINT('Ctrl Pts',(272.888153593198,16.354108613594,8.));
#1342=CARTESIAN_POINT('Ctrl Pts',(270.236578142265,16.5790115679091,8.));
#1343=CARTESIAN_POINT('Ctrl Pts',(270.237194227604,16.6130282924823,7.96693036299056));
#1344=CARTESIAN_POINT('Ctrl Pts',(270.529868121665,16.7117686120261,7.90965053363839));
#1345=CARTESIAN_POINT('Ctrl Pts',(271.438135606937,16.8421670639791,7.89741172988442));
#1346=CARTESIAN_POINT('Ctrl Pts',(272.241382951817,16.8748097724618,7.94640132501276));
#1347=CARTESIAN_POINT('Ctrl Pts',(272.766242292055,16.8633171292943,8.));
#1348=CARTESIAN_POINT('Ctrl Pts',(270.125186805634,16.5747791411828,7.99332430876016));
#1349=CARTESIAN_POINT('Ctrl Pts',(270.126428522927,16.6432833406941,7.92671019913751));
#1350=CARTESIAN_POINT('Ctrl Pts',(270.412644888927,16.8376792430344,7.79815533356251));
#1351=CARTESIAN_POINT('Ctrl Pts',(271.308032731151,17.1260983933149,7.71374231271013));
#1352=CARTESIAN_POINT('Ctrl Pts',(272.112802231649,17.2901070618992,7.73614106210549));
#1353=CARTESIAN_POINT('Ctrl Pts',(272.645081700311,17.3693900241379,7.78445380721962));
#1354=CARTESIAN_POINT('Ctrl Pts',(270.015210883411,16.5641179570618,7.98006554609554));
#1355=CARTESIAN_POINT('Ctrl Pts',(270.017081126931,16.6671018608055,7.87989776163316));
#1356=CARTESIAN_POINT('Ctrl Pts',(270.299345500724,16.9457828796278,7.66856538711722));
#1357=CARTESIAN_POINT('Ctrl Pts',(271.191325517869,17.3506218822208,7.46905328788558));
#1358=CARTESIAN_POINT('Ctrl Pts',(272.009169799059,17.597847498823,7.41421356237309));
#1359=CARTESIAN_POINT('Ctrl Pts',(272.55887739257,17.7294548186275,7.41421356237309));
#1360=CARTESIAN_POINT('Ctrl Pts',(272.55887739257,17.7294548186275,7.41421356237309));
#1361=CARTESIAN_POINT('Ctrl Pts',(272.009169799059,17.597847498823,7.41421356237309));
#1362=CARTESIAN_POINT('Ctrl Pts',(271.191325517869,17.3506218822208,7.46905328788558));
#1363=CARTESIAN_POINT('Ctrl Pts',(270.306172536287,16.9488814358901,7.66703836165647));
#1364=CARTESIAN_POINT('Ctrl Pts',(270.027194866927,16.6770221679723,7.87238958064331));
#1365=CARTESIAN_POINT('Ctrl Pts',(270.016293134888,16.5805834006311,7.96421914056882));
#1366=CARTESIAN_POINT('Origin',(237.304586039857,164.98229523242,11.));
#1367=CARTESIAN_POINT('',(269.96282506478,18.5806578652413,6.));
#1368=CARTESIAN_POINT('Ctrl Pts',(269.96282506478,18.5806578652413,5.99999999999998));
#1369=CARTESIAN_POINT('Ctrl Pts',(270.422472332448,18.5806578652413,6.1000751355643));
#1370=CARTESIAN_POINT('Ctrl Pts',(270.880866163673,18.5655047101214,6.21668964665355));
#1371=CARTESIAN_POINT('Ctrl Pts',(272.33486431831,18.4703346808513,6.63848792595036));
#1372=CARTESIAN_POINT('Ctrl Pts',(273.313300047254,18.3330862404896,7.00297392571915));
#1373=CARTESIAN_POINT('Ctrl Pts',(274.236419951549,18.1412120101028,7.41421359299273));
#1374=CARTESIAN_POINT('',(235.,15.,6.));
#1375=CARTESIAN_POINT('Origin',(237.304586039857,164.98229523242,6.));
#1376=CARTESIAN_POINT('',(234.923171955988,5.0000185047742,16.));
#1377=CARTESIAN_POINT('Ctrl Pts',(235.,15.,5.99999999999999));
#1378=CARTESIAN_POINT('Ctrl Pts',(234.993197583671,14.1666728192644,6.83333333333333));
#1379=CARTESIAN_POINT('Ctrl Pts',(234.986495186866,13.333344461885,7.66666666666666));
#1380=CARTESIAN_POINT('Ctrl Pts',(234.973290432771,11.6666854298543,9.33333333333333));
#1381=CARTESIAN_POINT('Ctrl Pts',(234.96678807548,10.833354755203,10.1666666666667));
#1382=CARTESIAN_POINT('Ctrl Pts',(234.953983400871,9.16669112464426,11.8333333333333));
#1383=CARTESIAN_POINT('Ctrl Pts',(234.947681083552,8.33335816873683,12.6666666666667));
#1384=CARTESIAN_POINT('Ctrl Pts',(234.93527648934,6.66669001168173,14.3333333333333));
#1385=CARTESIAN_POINT('Ctrl Pts',(234.929174212446,5.83335481053405,15.1666666666667));
#1386=CARTESIAN_POINT('Ctrl Pts',(234.923171955988,5.00001850477419,16.));
#1387=CARTESIAN_POINT('Origin',(237.304586039857,164.98229523242,16.));
#1388=CARTESIAN_POINT('Origin',(252.801407396773,-2.44870376775931,10.5));
#1389=CARTESIAN_POINT('',(168.285093525986,-7.44870376775931,10.5));
#1390=CARTESIAN_POINT('',(252.801407396773,-7.44870376775931,10.5));
#1391=CARTESIAN_POINT('',(168.96282506478,-2.41934211984574,15.4999137885324));
#1392=CARTESIAN_POINT('Ctrl Pts',(168.96282506478,-2.41934211984519,15.4999137886199));
#1393=CARTESIAN_POINT('Ctrl Pts',(168.962825064788,-2.42913874402208,15.4999713186179));
#1394=CARTESIAN_POINT('Ctrl Pts',(168.96281748774,-2.43892607961599,15.5));
#1395=CARTESIAN_POINT('Ctrl Pts',(168.961827147088,-3.07977769380428,15.5));
#1396=CARTESIAN_POINT('Ctrl Pts',(168.926210337783,-3.75085642836617,15.3732573495698));
#1397=CARTESIAN_POINT('Ctrl Pts',(168.799385680075,-4.98193760357304,14.8619909103891));
#1398=CARTESIAN_POINT('Ctrl Pts',(168.709840156729,-5.54217813010059,14.4776294456738));
#1399=CARTESIAN_POINT('Ctrl Pts',(168.540892389499,-6.42659888700032,13.5931366836314));
#1400=CARTESIAN_POINT('Ctrl Pts',(168.450232564571,-6.81083749478433,13.0329570558464));
#1401=CARTESIAN_POINT('Ctrl Pts',(168.321304105814,-7.32196561519719,11.8020747019354));
#1402=CARTESIAN_POINT('Ctrl Pts',(168.285093525986,-7.44870376775931,11.1310944332528));
#1403=CARTESIAN_POINT('Ctrl Pts',(168.285093525986,-7.44870376775931,10.5));
#1404=CARTESIAN_POINT('',(168.96282506478,-2.41934211984574,5.50008621146764));
#1405=CARTESIAN_POINT('Ctrl Pts',(168.96282506478,-2.41934211984519,5.50008621138007));
#1406=CARTESIAN_POINT('Ctrl Pts',(168.962825064292,-1.79704697691431,5.50374059656706));
#1407=CARTESIAN_POINT('Ctrl Pts',(168.929302382231,-1.13731007878675,5.6306303461484));
#1408=CARTESIAN_POINT('Ctrl Pts',(168.807320627281,0.0841801656936832,6.13781310840115));
#1409=CARTESIAN_POINT('Ctrl Pts',(168.719572995952,0.644457578816026,6.52212910629734));
#1410=CARTESIAN_POINT('Ctrl Pts',(168.553487736057,1.52905618878477,7.40665657343955));
#1411=CARTESIAN_POINT('Ctrl Pts',(168.464093544533,1.91337517157247,7.96693076655334));
#1412=CARTESIAN_POINT('Ctrl Pts',(168.33688011517,2.42456927251074,9.19793249365913));
#1413=CARTESIAN_POINT('Ctrl Pts',(168.301111632083,2.55129623224069,9.86893260711751));
#1414=CARTESIAN_POINT('Ctrl Pts',(168.301111632083,2.55129623224069,11.1310673928825));
#1415=CARTESIAN_POINT('Ctrl Pts',(168.33688011517,2.42456927251074,11.8020675063409));
#1416=CARTESIAN_POINT('Ctrl Pts',(168.464093544533,1.91337517157247,13.0330692334467));
#1417=CARTESIAN_POINT('Ctrl Pts',(168.553487736057,1.52905618878477,13.5933434265605));
#1418=CARTESIAN_POINT('Ctrl Pts',(168.719572995952,0.644457578816026,14.4778708937027));
#1419=CARTESIAN_POINT('Ctrl Pts',(168.807320627281,0.0841801656936847,14.8621868915989));
#1420=CARTESIAN_POINT('Ctrl Pts',(168.929302382231,-1.13731007878674,15.3693696538516));
#1421=CARTESIAN_POINT('Ctrl Pts',(168.962825064292,-1.79704697691431,15.4962594034329));
#1422=CARTESIAN_POINT('Ctrl Pts',(168.96282506478,-2.41934211984519,15.4999137886199));
#1423=CARTESIAN_POINT('Ctrl Pts',(168.285093525986,-7.44870376775931,10.5));
#1424=CARTESIAN_POINT('Ctrl Pts',(168.285093525986,-7.44870376775931,9.86890556674725));
#1425=CARTESIAN_POINT('Ctrl Pts',(168.321304105814,-7.32196561519718,9.19792529806465));
#1426=CARTESIAN_POINT('Ctrl Pts',(168.450232564571,-6.81083749478433,7.9670429441536));
#1427=CARTESIAN_POINT('Ctrl Pts',(168.540892389499,-6.42659888700032,7.40686331636857));
#1428=CARTESIAN_POINT('Ctrl Pts',(168.709840156729,-5.54217813010059,6.52237055432623));
#1429=CARTESIAN_POINT('Ctrl Pts',(168.799385680075,-4.98193760357304,6.13800908961088));
#1430=CARTESIAN_POINT('Ctrl Pts',(168.926210337783,-3.75085642836617,5.62674265043018));
#1431=CARTESIAN_POINT('Ctrl Pts',(168.961827147088,-3.07977769380428,5.5));
#1432=CARTESIAN_POINT('Ctrl Pts',(168.96281748774,-2.43892607961599,5.5));
#1433=CARTESIAN_POINT('Ctrl Pts',(168.962825064788,-2.42913874402208,5.50002868138215));
#1434=CARTESIAN_POINT('Ctrl Pts',(168.96282506478,-2.41934211984519,5.50008621138007));
#1435=CARTESIAN_POINT('Origin',(222.48141253239,10.,11.));
#1436=CARTESIAN_POINT('',(184.92565012956,15.,6.));
#1437=CARTESIAN_POINT('',(185.002469664222,5.00000000000001,16.));
#1438=CARTESIAN_POINT('',(184.92565012956,15.,6.));
#1439=CARTESIAN_POINT('',(222.48141253239,5.,16.));
#1440=CARTESIAN_POINT('',(222.48141253239,15.,6.));
#1441=CARTESIAN_POINT('Origin',(182.621064089703,164.98229523242,11.));
#1442=CARTESIAN_POINT('',(167.124242732787,5.73453691905564,16.));
#1443=CARTESIAN_POINT('Ctrl Pts',(167.124242732787,5.73453691905563,16.));
#1444=CARTESIAN_POINT('Ctrl Pts',(166.393825989967,7.27184041748969,14.5406687612917));
#1445=CARTESIAN_POINT('Ctrl Pts',(165.441542588658,8.73783793031648,13.1807225566368));
#1446=CARTESIAN_POINT('Ctrl Pts',(163.103823123334,11.421771674588,10.7900725432597));
#1447=CARTESIAN_POINT('Ctrl Pts',(161.544611042357,12.7943243355012,9.62766317320891));
#1448=CARTESIAN_POINT('Ctrl Pts',(158.784489723817,14.4426447689951,8.41189092907977));
#1449=CARTESIAN_POINT('Ctrl Pts',(157.794986416443,14.9263090168719,8.09196040246236));
#1450=CARTESIAN_POINT('Ctrl Pts',(155.737152151222,15.7154727813461,7.66463098893778));
#1451=CARTESIAN_POINT('Ctrl Pts',(154.668689418823,16.0207863442844,7.55752334453479));
#1452=CARTESIAN_POINT('Ctrl Pts',(152.533174967438,16.4374019908896,7.55752334453479));
#1453=CARTESIAN_POINT('Ctrl Pts',(151.428302166781,16.5560825563016,7.66463098893778));
#1454=CARTESIAN_POINT('Ctrl Pts',(150.187402822161,16.579840109847,7.90527455079412));
#1455=CARTESIAN_POINT('Ctrl Pts',(150.048326722866,16.5809736080392,7.93392342809771));
#1456=CARTESIAN_POINT('Ctrl Pts',(149.909370950333,16.5805826718727,7.96421670560393));
#1457=CARTESIAN_POINT('Origin',(182.621064089703,164.98229523242,16.));
#1458=CARTESIAN_POINT('Origin',(182.621064089703,164.98229523242,6.));
#1459=CARTESIAN_POINT('Origin',(269.96282506478,-2.41934213475872,0.));
#1460=CARTESIAN_POINT('',(269.96282506478,-23.4193421347587,0.));
#1461=CARTESIAN_POINT('',(269.96282506478,-23.4193421347587,0.));
#1462=CARTESIAN_POINT('',(269.96282506478,18.5806578652413,0.));
#1463=CARTESIAN_POINT('Origin',(269.96282506478,-2.41934213475872,0.));
#1464=CARTESIAN_POINT('',(269.96282506478,18.5806578652413,0.));
#1465=CARTESIAN_POINT('Origin',(269.96282506478,-2.41934213475872,8.));
#1466=CARTESIAN_POINT('Origin',(280.46282506478,-2.41934213475871,8.));
#1467=CARTESIAN_POINT('Origin',(209.96282506478,-2.4193421347587,16.));
#1468=CARTESIAN_POINT('',(168.96282506478,-2.41934213475872,16.));
#1469=CARTESIAN_POINT('Origin',(149.96282506478,-2.41934213475872,16.));
#1470=CARTESIAN_POINT('Origin',(149.96282506478,-2.41934213475872,16.));
#1471=CARTESIAN_POINT('',(197.44423759717,-9.83868426951741,16.));
#1472=CARTESIAN_POINT('Origin',(197.44423759717,-14.8386842695174,11.));
#1473=CARTESIAN_POINT('',(197.44423759717,-19.8386842695175,6.));
#1474=CARTESIAN_POINT('Origin',(149.96282506478,-2.41934213475872,5.));
#1475=CARTESIAN_POINT('',(168.96282506478,-2.41934213475872,5.));
#1476=CARTESIAN_POINT('',(168.96282506478,-2.41934213475872,5.));
#1477=CARTESIAN_POINT('',(168.96282506478,-2.41934213475872,5.));
#1478=CARTESIAN_POINT('Origin',(149.96282506478,-2.41934213475872,5.));
#1479=CARTESIAN_POINT('Origin',(209.96282506478,-2.41934213475872,5.));
#1480=CARTESIAN_POINT('',(142.77267493522,-2.41934213475872,5.));
#1481=CARTESIAN_POINT('Origin',(144.03717493522,-2.41934213475872,5.));
#1482=CARTESIAN_POINT('',(146.96282506478,-2.41934213475872,5.));
#1483=CARTESIAN_POINT('Origin',(149.96282506478,-2.41934213475872,5.));
#1484=CARTESIAN_POINT('',(154.69832506478,-2.41934213475872,5.));
#1485=CARTESIAN_POINT('Origin',(155.96282506478,-2.41934213475872,5.));
#1486=CARTESIAN_POINT('Origin',(144.03717493522,-2.41934213475872,0.));
#1487=CARTESIAN_POINT('',(142.77267493522,-2.41934213475872,0.));
#1488=CARTESIAN_POINT('',(142.77267493522,-2.41934213475872,0.));
#1489=CARTESIAN_POINT('Origin',(144.03717493522,-2.41934213475872,0.));
#1490=CARTESIAN_POINT('Origin',(275.88847519434,-2.41934213475872,0.));
#1491=CARTESIAN_POINT('',(274.62397519434,-2.41934213475872,5.));
#1492=CARTESIAN_POINT('Origin',(275.88847519434,-2.41934213475872,5.));
#1493=CARTESIAN_POINT('',(274.62397519434,-2.41934213475872,0.));
#1494=CARTESIAN_POINT('',(274.62397519434,-2.41934213475872,0.));
#1495=CARTESIAN_POINT('Origin',(275.88847519434,-2.41934213475872,0.));
#1496=CARTESIAN_POINT('Origin',(269.96282506478,-2.41934213475872,0.));
#1497=CARTESIAN_POINT('',(266.96282506478,-2.41934213475872,5.));
#1498=CARTESIAN_POINT('Origin',(269.96282506478,-2.41934213475872,5.));
#1499=CARTESIAN_POINT('',(266.96282506478,-2.41934213475872,0.));
#1500=CARTESIAN_POINT('',(266.96282506478,-2.41934213475872,0.));
#1501=CARTESIAN_POINT('Origin',(269.96282506478,-2.41934213475872,0.));
#1502=CARTESIAN_POINT('Origin',(149.96282506478,-2.41934213475872,0.));
#1503=CARTESIAN_POINT('',(146.96282506478,-2.41934213475872,0.));
#1504=CARTESIAN_POINT('',(146.96282506478,-2.41934213475872,0.));
#1505=CARTESIAN_POINT('Origin',(149.96282506478,-2.41934213475872,0.));
#1506=CARTESIAN_POINT('Origin',(155.96282506478,-2.41934213475872,0.));
#1507=CARTESIAN_POINT('',(154.69832506478,-2.41934213475872,0.));
#1508=CARTESIAN_POINT('',(154.69832506478,-2.41934213475872,0.));
#1509=CARTESIAN_POINT('Origin',(155.96282506478,-2.41934213475872,0.));
#1510=CARTESIAN_POINT('Origin',(263.96282506478,-2.41934213475872,0.));
#1511=CARTESIAN_POINT('',(262.69832506478,-2.41934213475872,5.));
#1512=CARTESIAN_POINT('Origin',(263.96282506478,-2.41934213475872,5.));
#1513=CARTESIAN_POINT('',(262.69832506478,-2.41934213475872,0.));
#1514=CARTESIAN_POINT('',(262.69832506478,-2.41934213475872,0.));
#1515=CARTESIAN_POINT('Origin',(263.96282506478,-2.41934213475872,0.));
#1516=CARTESIAN_POINT('Origin',(237.304586039857,164.98229523242,0.));
#1517=CARTESIAN_POINT('',(235.,15.,0.));
#1518=CARTESIAN_POINT('Origin',(237.304586039857,164.98229523242,0.));
#1519=CARTESIAN_POINT('',(235.,15.,0.));
#1520=CARTESIAN_POINT('Origin',(237.304586039857,-169.820979501938,0.));
#1521=CARTESIAN_POINT('',(235.,-19.8386842695174,0.));
#1522=CARTESIAN_POINT('',(235.,-19.8386842695174,0.));
#1523=CARTESIAN_POINT('Origin',(237.304586039857,-169.820979501938,0.));
#1524=CARTESIAN_POINT('Origin',(184.92565012956,-19.8386842695175,0.));
#1525=CARTESIAN_POINT('',(184.92565012956,-19.8386842695175,0.));
#1526=CARTESIAN_POINT('',(184.92565012956,-19.8386842695175,0.));
#1527=CARTESIAN_POINT('',(239.609172079716,-19.8386842695175,0.));
#1528=CARTESIAN_POINT('Origin',(182.621064089703,-169.820979501938,0.));
#1529=CARTESIAN_POINT('Origin',(182.621064089703,-169.820979501938,0.));
#1530=CARTESIAN_POINT('Origin',(182.621064089703,164.98229523242,0.));
#1531=CARTESIAN_POINT('',(184.92565012956,15.,0.));
#1532=CARTESIAN_POINT('',(184.92565012956,15.,0.));
#1533=CARTESIAN_POINT('Origin',(182.621064089703,164.98229523242,0.));
#1534=CARTESIAN_POINT('Origin',(235.,15.,0.));
#1535=CARTESIAN_POINT('',(239.609172079716,15.,0.));
#1536=CARTESIAN_POINT('Origin',(209.96282506478,-2.41934213475872,5.));
#1537=CARTESIAN_POINT('Origin',(209.96282506478,-2.41934213475872,0.));
#1538=UNCERTAINTY_MEASURE_WITH_UNIT(LENGTH_MEASURE(0.01),#1542,
'DISTANCE_ACCURACY_VALUE',
'Maximum model space distance between geometric entities at asserted c
onnectivities');
#1539=UNCERTAINTY_MEASURE_WITH_UNIT(LENGTH_MEASURE(0.01),#1542,
'DISTANCE_ACCURACY_VALUE',
'Maximum model space distance between geometric entities at asserted c
onnectivities');
#1540=(
GEOMETRIC_REPRESENTATION_CONTEXT(3)
GLOBAL_UNCERTAINTY_ASSIGNED_CONTEXT((#1538))
GLOBAL_UNIT_ASSIGNED_CONTEXT((#1542,#1544,#1545))
REPRESENTATION_CONTEXT('','3D')
);
#1541=(
GEOMETRIC_REPRESENTATION_CONTEXT(3)
GLOBAL_UNCERTAINTY_ASSIGNED_CONTEXT((#1539))
GLOBAL_UNIT_ASSIGNED_CONTEXT((#1542,#1544,#1545))
REPRESENTATION_CONTEXT('','3D')
);
#1542=(
LENGTH_UNIT()
NAMED_UNIT(*)
SI_UNIT(.MILLI.,.METRE.)
);
#1543=(
LENGTH_UNIT()
NAMED_UNIT(*)
SI_UNIT($,.METRE.)
);
#1544=(
NAMED_UNIT(*)
PLANE_ANGLE_UNIT()
SI_UNIT($,.RADIAN.)
);
#1545=(
NAMED_UNIT(*)
SI_UNIT($,.STERADIAN.)
SOLID_ANGLE_UNIT()
);
#1546=SHAPE_DEFINITION_REPRESENTATION(#1547,#1548);
#1547=PRODUCT_DEFINITION_SHAPE('',$,#1550);
#1548=SHAPE_REPRESENTATION('',(#712),#1540);
#1549=PRODUCT_DEFINITION_CONTEXT('part definition',#1554,'design');
#1550=PRODUCT_DEFINITION('2026-01-08-23-10-46-171','Link 1',#1551,#1549);
#1551=PRODUCT_DEFINITION_FORMATION('',$,#1556);
#1552=PRODUCT_RELATED_PRODUCT_CATEGORY('Link 1','Link 1',(#1556));
#1553=APPLICATION_PROTOCOL_DEFINITION('international standard',
'automotive_design',2009,#1554);
#1554=APPLICATION_CONTEXT(
'Core Data for Automotive Mechanical Design Process');
#1555=PRODUCT_CONTEXT('part definition',#1554,'mechanical');
#1556=PRODUCT('2026-01-08-23-10-46-171','Link 1',$,(#1555));
#1557=PRESENTATION_STYLE_ASSIGNMENT((#1559));
#1558=PRESENTATION_STYLE_ASSIGNMENT((#1560));
#1559=SURFACE_STYLE_USAGE(.BOTH.,#1561);
#1560=SURFACE_STYLE_USAGE(.BOTH.,#1562);
#1561=SURFACE_SIDE_STYLE('',(#1563));
#1562=SURFACE_SIDE_STYLE('',(#1564));
#1563=SURFACE_STYLE_FILL_AREA(#1565);
#1564=SURFACE_STYLE_FILL_AREA(#1566);
#1565=FILL_AREA_STYLE('Steel - Satin',(#1567));
#1566=FILL_AREA_STYLE('Paint - Enamel Glossy (Yellow)',(#1568));
#1567=FILL_AREA_STYLE_COLOUR('Steel - Satin',#1569);
#1568=FILL_AREA_STYLE_COLOUR('Paint - Enamel Glossy (Yellow)',#1570);
#1569=COLOUR_RGB('Steel - Satin',0.627450980392157,0.627450980392157,0.627450980392157);
#1570=COLOUR_RGB('Paint - Enamel Glossy (Yellow)',0.909803921568627,0.67843137254902,
0.137254901960784);
ENDSEC;
END-ISO-10303-21;
