ISO-10303-21;
HEADER;
/* Generated by software containing ST-Developer
 * from STEP Tools, Inc. (www.steptools.com) 
 */

FILE_DESCRIPTION(
/* description */ (''),
/* implementation_level */ '2;1');

FILE_NAME(
/* name */ 'Base 2.step',
/* time_stamp */ '2026-09-24T22:36:23+05:30',
/* author */ (''),
/* organization */ (''),
/* preprocessor_version */ 'ST-DEVELOPER v20.2',
/* originating_system */ 'Autodesk Translation Framework v15.15.0.0',
/* authorisation */ '');

FILE_SCHEMA (('AUTOMOTIVE_DESIGN { 1 0 10303 214 3 1 1 }'));
ENDSEC;

DATA;
#10=MECHANICAL_DESIGN_GEOMETRIC_PRESENTATION_REPRESENTATION('',(#13),#1164);
#11=SHAPE_REPRESENTATION_RELATIONSHIP('SRR','None',#1171,#12);
#12=ADVANCED_BREP_SHAPE_REPRESENTATION('',(#14),#1163);
#13=STYLED_ITEM('',(#1181),#14);
#14=MANIFOLD_SOLID_BREP('Body1',#682);
#15=ELLIPSE('',#728,18.5539753152795,18.);
#16=ELLIPSE('',#729,25.5130440045207,24.7512882968636);
#17=FACE_BOUND('',#102,.T.);
#18=FACE_BOUND('',#104,.T.);
#19=FACE_BOUND('',#105,.T.);
#20=FACE_BOUND('',#106,.T.);
#21=FACE_BOUND('',#107,.T.);
#22=FACE_BOUND('',#108,.T.);
#23=FACE_BOUND('',#133,.T.);
#24=FACE_BOUND('',#139,.T.);
#25=FACE_BOUND('',#140,.T.);
#26=FACE_BOUND('',#141,.T.);
#27=FACE_BOUND('',#142,.T.);
#28=FACE_BOUND('',#144,.T.);
#29=FACE_BOUND('',#145,.T.);
#30=FACE_BOUND('',#146,.T.);
#31=PLANE('',#705);
#32=PLANE('',#707);
#33=PLANE('',#709);
#34=PLANE('',#711);
#35=PLANE('',#713);
#36=PLANE('',#715);
#37=PLANE('',#723);
#38=PLANE('',#724);
#39=PLANE('',#725);
#40=PLANE('',#726);
#41=PLANE('',#727);
#42=PLANE('',#730);
#43=PLANE('',#731);
#44=PLANE('',#734);
#45=PLANE('',#735);
#46=PLANE('',#736);
#47=PLANE('',#739);
#48=PLANE('',#740);
#49=PLANE('',#754);
#50=PLANE('',#757);
#51=PLANE('',#759);
#52=PLANE('',#761);
#53=PLANE('',#765);
#54=PLANE('',#766);
#55=FACE_OUTER_BOUND('',#94,.T.);
#56=FACE_OUTER_BOUND('',#95,.T.);
#57=FACE_OUTER_BOUND('',#96,.T.);
#58=FACE_OUTER_BOUND('',#97,.T.);
#59=FACE_OUTER_BOUND('',#98,.T.);
#60=FACE_OUTER_BOUND('',#99,.T.);
#61=FACE_OUTER_BOUND('',#100,.T.);
#62=FACE_OUTER_BOUND('',#101,.T.);
#63=FACE_OUTER_BOUND('',#103,.T.);
#64=FACE_OUTER_BOUND('',#109,.T.);
#65=FACE_OUTER_BOUND('',#110,.T.);
#66=FACE_OUTER_BOUND('',#111,.T.);
#67=FACE_OUTER_BOUND('',#112,.T.);
#68=FACE_OUTER_BOUND('',#113,.T.);
#69=FACE_OUTER_BOUND('',#114,.T.);
#70=FACE_OUTER_BOUND('',#115,.T.);
#71=FACE_OUTER_BOUND('',#116,.T.);
#72=FACE_OUTER_BOUND('',#117,.T.);
#73=FACE_OUTER_BOUND('',#118,.T.);
#74=FACE_OUTER_BOUND('',#119,.T.);
#75=FACE_OUTER_BOUND('',#120,.T.);
#76=FACE_OUTER_BOUND('',#121,.T.);
#77=FACE_OUTER_BOUND('',#122,.T.);
#78=FACE_OUTER_BOUND('',#123,.T.);
#79=FACE_OUTER_BOUND('',#124,.T.);
#80=FACE_OUTER_BOUND('',#125,.T.);
#81=FACE_OUTER_BOUND('',#126,.T.);
#82=FACE_OUTER_BOUND('',#127,.T.);
#83=FACE_OUTER_BOUND('',#128,.T.);
#84=FACE_OUTER_BOUND('',#129,.T.);
#85=FACE_OUTER_BOUND('',#130,.T.);
#86=FACE_OUTER_BOUND('',#131,.T.);
#87=FACE_OUTER_BOUND('',#132,.T.);
#88=FACE_OUTER_BOUND('',#134,.T.);
#89=FACE_OUTER_BOUND('',#135,.T.);
#90=FACE_OUTER_BOUND('',#136,.T.);
#91=FACE_OUTER_BOUND('',#137,.T.);
#92=FACE_OUTER_BOUND('',#138,.T.);
#93=FACE_OUTER_BOUND('',#143,.T.);
#94=EDGE_LOOP('',(#446,#447,#448,#449));
#95=EDGE_LOOP('',(#450,#451,#452,#453));
#96=EDGE_LOOP('',(#454,#455,#456,#457));
#97=EDGE_LOOP('',(#458));
#98=EDGE_LOOP('',(#459));
#99=EDGE_LOOP('',(#460));
#100=EDGE_LOOP('',(#461));
#101=EDGE_LOOP('',(#462,#463,#464,#465));
#102=EDGE_LOOP('',(#466));
#103=EDGE_LOOP('',(#467,#468,#469,#470,#471,#472));
#104=EDGE_LOOP('',(#473));
#105=EDGE_LOOP('',(#474));
#106=EDGE_LOOP('',(#475));
#107=EDGE_LOOP('',(#476));
#108=EDGE_LOOP('',(#477,#478,#479,#480));
#109=EDGE_LOOP('',(#481,#482,#483,#484));
#110=EDGE_LOOP('',(#485,#486,#487,#488));
#111=EDGE_LOOP('',(#489,#490,#491,#492));
#112=EDGE_LOOP('',(#493,#494,#495,#496));
#113=EDGE_LOOP('',(#497,#498,#499,#500,#501,#502));
#114=EDGE_LOOP('',(#503,#504,#505,#506,#507));
#115=EDGE_LOOP('',(#508,#509,#510,#511,#512,#513));
#116=EDGE_LOOP('',(#514,#515,#516,#517));
#117=EDGE_LOOP('',(#518,#519,#520,#521,#522));
#118=EDGE_LOOP('',(#523,#524,#525,#526,#527));
#119=EDGE_LOOP('',(#528,#529,#530,#531,#532,#533));
#120=EDGE_LOOP('',(#534,#535,#536,#537,#538,#539,#540));
#121=EDGE_LOOP('',(#541,#542,#543,#544));
#122=EDGE_LOOP('',(#545,#546,#547,#548));
#123=EDGE_LOOP('',(#549,#550,#551,#552));
#124=EDGE_LOOP('',(#553,#554,#555,#556));
#125=EDGE_LOOP('',(#557,#558,#559,#560));
#126=EDGE_LOOP('',(#561,#562,#563,#564));
#127=EDGE_LOOP('',(#565,#566,#567,#568));
#128=EDGE_LOOP('',(#569,#570,#571,#572));
#129=EDGE_LOOP('',(#573,#574,#575,#576,#577));
#130=EDGE_LOOP('',(#578,#579,#580,#581));
#131=EDGE_LOOP('',(#582,#583,#584,#585));
#132=EDGE_LOOP('',(#586,#587,#588,#589,#590,#591,#592,#593));
#133=EDGE_LOOP('',(#594));
#134=EDGE_LOOP('',(#595,#596,#597,#598));
#135=EDGE_LOOP('',(#599,#600,#601,#602,#603));
#136=EDGE_LOOP('',(#604,#605,#606,#607));
#137=EDGE_LOOP('',(#608,#609,#610,#611));
#138=EDGE_LOOP('',(#612));
#139=EDGE_LOOP('',(#613));
#140=EDGE_LOOP('',(#614));
#141=EDGE_LOOP('',(#615));
#142=EDGE_LOOP('',(#616,#617,#618,#619,#620,#621,#622,#623));
#143=EDGE_LOOP('',(#624));
#144=EDGE_LOOP('',(#625));
#145=EDGE_LOOP('',(#626));
#146=EDGE_LOOP('',(#627));
#147=LINE('',#975,#206);
#148=LINE('',#981,#207);
#149=LINE('',#987,#208);
#150=LINE('',#1004,#209);
#151=LINE('',#1006,#210);
#152=LINE('',#1008,#211);
#153=LINE('',#1009,#212);
#154=LINE('',#1015,#213);
#155=LINE('',#1019,#214);
#156=LINE('',#1023,#215);
#157=LINE('',#1035,#216);
#158=LINE('',#1037,#217);
#159=LINE('',#1039,#218);
#160=LINE('',#1040,#219);
#161=LINE('',#1042,#220);
#162=LINE('',#1043,#221);
#163=LINE('',#1045,#222);
#164=LINE('',#1047,#223);
#165=LINE('',#1054,#224);
#166=LINE('',#1056,#225);
#167=LINE('',#1058,#226);
#168=LINE('',#1061,#227);
#169=LINE('',#1064,#228);
#170=LINE('',#1065,#229);
#171=LINE('',#1066,#230);
#172=LINE('',#1071,#231);
#173=LINE('',#1073,#232);
#174=LINE('',#1078,#233);
#175=LINE('',#1080,#234);
#176=LINE('',#1082,#235);
#177=LINE('',#1083,#236);
#178=LINE('',#1085,#237);
#179=LINE('',#1087,#238);
#180=LINE('',#1088,#239);
#181=LINE('',#1092,#240);
#182=LINE('',#1096,#241);
#183=LINE('',#1098,#242);
#184=LINE('',#1100,#243);
#185=LINE('',#1101,#244);
#186=LINE('',#1106,#245);
#187=LINE('',#1108,#246);
#188=LINE('',#1112,#247);
#189=LINE('',#1114,#248);
#190=LINE('',#1116,#249);
#191=LINE('',#1118,#250);
#192=LINE('',#1121,#251);
#193=LINE('',#1124,#252);
#194=LINE('',#1126,#253);
#195=LINE('',#1129,#254);
#196=LINE('',#1132,#255);
#197=LINE('',#1135,#256);
#198=LINE('',#1136,#257);
#199=LINE('',#1140,#258);
#200=LINE('',#1143,#259);
#201=LINE('',#1144,#260);
#202=LINE('',#1146,#261);
#203=LINE('',#1149,#262);
#204=LINE('',#1151,#263);
#205=LINE('',#1157,#264);
#206=VECTOR('',#773,1.5);
#207=VECTOR('',#780,3.);
#208=VECTOR('',#787,1.5);
#209=VECTOR('',#808,10.);
#210=VECTOR('',#809,10.);
#211=VECTOR('',#810,10.);
#212=VECTOR('',#811,10.);
#213=VECTOR('',#816,10.);
#214=VECTOR('',#819,10.);
#215=VECTOR('',#822,10.);
#216=VECTOR('',#833,10.);
#217=VECTOR('',#834,10.);
#218=VECTOR('',#835,10.);
#219=VECTOR('',#836,10.);
#220=VECTOR('',#839,10.);
#221=VECTOR('',#840,10.);
#222=VECTOR('',#843,10.);
#223=VECTOR('',#846,10.);
#224=VECTOR('',#853,10.);
#225=VECTOR('',#854,10.);
#226=VECTOR('',#855,10.);
#227=VECTOR('',#858,10.);
#228=VECTOR('',#861,10.);
#229=VECTOR('',#862,10.);
#230=VECTOR('',#863,10.);
#231=VECTOR('',#868,10.);
#232=VECTOR('',#869,10.);
#233=VECTOR('',#874,10.);
#234=VECTOR('',#875,10.);
#235=VECTOR('',#876,10.);
#236=VECTOR('',#877,10.);
#237=VECTOR('',#880,10.);
#238=VECTOR('',#881,10.);
#239=VECTOR('',#882,10.);
#240=VECTOR('',#887,10.);
#241=VECTOR('',#892,10.);
#242=VECTOR('',#893,10.);
#243=VECTOR('',#894,10.);
#244=VECTOR('',#895,10.);
#245=VECTOR('',#900,10.);
#246=VECTOR('',#901,10.);
#247=VECTOR('',#908,1.3);
#248=VECTOR('',#911,1.3);
#249=VECTOR('',#914,1.3);
#250=VECTOR('',#917,1.3);
#251=VECTOR('',#920,9.);
#252=VECTOR('',#925,10.);
#253=VECTOR('',#928,10.);
#254=VECTOR('',#931,10.);
#255=VECTOR('',#934,10.);
#256=VECTOR('',#937,10.);
#257=VECTOR('',#938,10.);
#258=VECTOR('',#943,10.);
#259=VECTOR('',#946,10.);
#260=VECTOR('',#947,10.);
#261=VECTOR('',#948,10.);
#262=VECTOR('',#953,10.);
#263=VECTOR('',#956,10.);
#264=VECTOR('',#963,48.5);
#265=CIRCLE('',#697,1.5);
#266=CIRCLE('',#698,1.5);
#267=CIRCLE('',#700,3.);
#268=CIRCLE('',#701,3.);
#269=CIRCLE('',#703,1.5);
#270=CIRCLE('',#704,1.5);
#271=CIRCLE('',#706,1.03775);
#272=CIRCLE('',#708,1.03775);
#273=CIRCLE('',#710,1.03775);
#274=CIRCLE('',#712,1.03775);
#275=CIRCLE('',#714,9.);
#276=CIRCLE('',#716,50.);
#277=CIRCLE('',#717,16.);
#278=CIRCLE('',#718,29.9999999999999);
#279=CIRCLE('',#719,1.03775);
#280=CIRCLE('',#720,1.03775);
#281=CIRCLE('',#721,1.03775);
#282=CIRCLE('',#722,1.03775);
#283=CIRCLE('',#732,18.);
#284=CIRCLE('',#733,29.9999999999999);
#285=CIRCLE('',#737,16.);
#286=CIRCLE('',#738,24.7512882968636);
#287=CIRCLE('',#741,50.);
#288=CIRCLE('',#742,25.);
#289=CIRCLE('',#749,9.);
#290=CIRCLE('',#753,18.);
#291=CIRCLE('',#756,25.);
#292=CIRCLE('',#758,24.7512882968636);
#293=CIRCLE('',#763,48.5);
#294=CIRCLE('',#764,48.5);
#295=VERTEX_POINT('',#972);
#296=VERTEX_POINT('',#974);
#297=VERTEX_POINT('',#978);
#298=VERTEX_POINT('',#980);
#299=VERTEX_POINT('',#984);
#300=VERTEX_POINT('',#986);
#301=VERTEX_POINT('',#990);
#302=VERTEX_POINT('',#993);
#303=VERTEX_POINT('',#996);
#304=VERTEX_POINT('',#999);
#305=VERTEX_POINT('',#1002);
#306=VERTEX_POINT('',#1003);
#307=VERTEX_POINT('',#1005);
#308=VERTEX_POINT('',#1007);
#309=VERTEX_POINT('',#1010);
#310=VERTEX_POINT('',#1013);
#311=VERTEX_POINT('',#1014);
#312=VERTEX_POINT('',#1016);
#313=VERTEX_POINT('',#1018);
#314=VERTEX_POINT('',#1020);
#315=VERTEX_POINT('',#1022);
#316=VERTEX_POINT('',#1025);
#317=VERTEX_POINT('',#1027);
#318=VERTEX_POINT('',#1029);
#319=VERTEX_POINT('',#1031);
#320=VERTEX_POINT('',#1033);
#321=VERTEX_POINT('',#1034);
#322=VERTEX_POINT('',#1036);
#323=VERTEX_POINT('',#1038);
#324=VERTEX_POINT('',#1050);
#325=VERTEX_POINT('',#1051);
#326=VERTEX_POINT('',#1053);
#327=VERTEX_POINT('',#1055);
#328=VERTEX_POINT('',#1057);
#329=VERTEX_POINT('',#1059);
#330=VERTEX_POINT('',#1063);
#331=VERTEX_POINT('',#1068);
#332=VERTEX_POINT('',#1070);
#333=VERTEX_POINT('',#1072);
#334=VERTEX_POINT('',#1076);
#335=VERTEX_POINT('',#1077);
#336=VERTEX_POINT('',#1079);
#337=VERTEX_POINT('',#1081);
#338=VERTEX_POINT('',#1086);
#339=VERTEX_POINT('',#1091);
#340=VERTEX_POINT('',#1095);
#341=VERTEX_POINT('',#1097);
#342=VERTEX_POINT('',#1099);
#343=VERTEX_POINT('',#1103);
#344=VERTEX_POINT('',#1105);
#345=VERTEX_POINT('',#1107);
#346=VERTEX_POINT('',#1120);
#347=VERTEX_POINT('',#1128);
#348=VERTEX_POINT('',#1130);
#349=VERTEX_POINT('',#1134);
#350=VERTEX_POINT('',#1138);
#351=VERTEX_POINT('',#1142);
#352=VERTEX_POINT('',#1145);
#353=VERTEX_POINT('',#1154);
#354=VERTEX_POINT('',#1156);
#355=EDGE_CURVE('',#295,#295,#265,.T.);
#356=EDGE_CURVE('',#295,#296,#147,.T.);
#357=EDGE_CURVE('',#296,#296,#266,.T.);
#358=EDGE_CURVE('',#297,#297,#267,.T.);
#359=EDGE_CURVE('',#297,#298,#148,.T.);
#360=EDGE_CURVE('',#298,#298,#268,.T.);
#361=EDGE_CURVE('',#299,#299,#269,.T.);
#362=EDGE_CURVE('',#299,#300,#149,.T.);
#363=EDGE_CURVE('',#300,#300,#270,.T.);
#364=EDGE_CURVE('',#301,#301,#271,.T.);
#365=EDGE_CURVE('',#302,#302,#272,.T.);
#366=EDGE_CURVE('',#303,#303,#273,.T.);
#367=EDGE_CURVE('',#304,#304,#274,.T.);
#368=EDGE_CURVE('',#305,#306,#150,.T.);
#369=EDGE_CURVE('',#307,#305,#151,.T.);
#370=EDGE_CURVE('',#308,#307,#152,.T.);
#371=EDGE_CURVE('',#306,#308,#153,.T.);
#372=EDGE_CURVE('',#309,#309,#275,.T.);
#373=EDGE_CURVE('',#310,#311,#154,.T.);
#374=EDGE_CURVE('',#312,#310,#276,.T.);
#375=EDGE_CURVE('',#313,#312,#155,.T.);
#376=EDGE_CURVE('',#314,#313,#277,.T.);
#377=EDGE_CURVE('',#315,#314,#156,.T.);
#378=EDGE_CURVE('',#311,#315,#278,.T.);
#379=EDGE_CURVE('',#316,#316,#279,.F.);
#380=EDGE_CURVE('',#317,#317,#280,.F.);
#381=EDGE_CURVE('',#318,#318,#281,.F.);
#382=EDGE_CURVE('',#319,#319,#282,.F.);
#383=EDGE_CURVE('',#320,#321,#157,.T.);
#384=EDGE_CURVE('',#322,#320,#158,.T.);
#385=EDGE_CURVE('',#323,#322,#159,.T.);
#386=EDGE_CURVE('',#321,#323,#160,.T.);
#387=EDGE_CURVE('',#323,#308,#161,.T.);
#388=EDGE_CURVE('',#321,#307,#162,.T.);
#389=EDGE_CURVE('',#322,#306,#163,.T.);
#390=EDGE_CURVE('',#320,#305,#164,.T.);
#391=EDGE_CURVE('',#324,#325,#15,.T.);
#392=EDGE_CURVE('',#325,#326,#165,.T.);
#393=EDGE_CURVE('',#326,#327,#166,.T.);
#394=EDGE_CURVE('',#327,#328,#167,.T.);
#395=EDGE_CURVE('',#328,#329,#16,.T.);
#396=EDGE_CURVE('',#329,#324,#168,.T.);
#397=EDGE_CURVE('',#330,#326,#169,.T.);
#398=EDGE_CURVE('',#330,#315,#170,.T.);
#399=EDGE_CURVE('',#327,#314,#171,.T.);
#400=EDGE_CURVE('',#331,#325,#283,.T.);
#401=EDGE_CURVE('',#332,#331,#172,.T.);
#402=EDGE_CURVE('',#333,#332,#173,.T.);
#403=EDGE_CURVE('',#333,#330,#284,.T.);
#404=EDGE_CURVE('',#334,#335,#174,.T.);
#405=EDGE_CURVE('',#335,#336,#175,.T.);
#406=EDGE_CURVE('',#336,#337,#176,.T.);
#407=EDGE_CURVE('',#337,#334,#177,.T.);
#408=EDGE_CURVE('',#334,#313,#178,.T.);
#409=EDGE_CURVE('',#338,#312,#179,.T.);
#410=EDGE_CURVE('',#335,#338,#180,.T.);
#411=EDGE_CURVE('',#334,#327,#285,.T.);
#412=EDGE_CURVE('',#339,#337,#181,.T.);
#413=EDGE_CURVE('',#328,#339,#286,.T.);
#414=EDGE_CURVE('',#340,#336,#182,.T.);
#415=EDGE_CURVE('',#341,#340,#183,.T.);
#416=EDGE_CURVE('',#342,#341,#184,.T.);
#417=EDGE_CURVE('',#339,#342,#185,.T.);
#418=EDGE_CURVE('',#338,#343,#287,.T.);
#419=EDGE_CURVE('',#344,#343,#186,.T.);
#420=EDGE_CURVE('',#344,#345,#187,.T.);
#421=EDGE_CURVE('',#340,#345,#288,.T.);
#422=EDGE_CURVE('',#316,#302,#188,.T.);
#423=EDGE_CURVE('',#317,#301,#189,.T.);
#424=EDGE_CURVE('',#318,#303,#190,.T.);
#425=EDGE_CURVE('',#319,#304,#191,.T.);
#426=EDGE_CURVE('',#309,#346,#192,.T.);
#427=EDGE_CURVE('',#346,#346,#289,.T.);
#428=EDGE_CURVE('',#343,#310,#193,.T.);
#429=EDGE_CURVE('',#333,#311,#194,.T.);
#430=EDGE_CURVE('',#324,#347,#195,.T.);
#431=EDGE_CURVE('',#347,#348,#290,.T.);
#432=EDGE_CURVE('',#348,#331,#196,.T.);
#433=EDGE_CURVE('',#349,#348,#197,.T.);
#434=EDGE_CURVE('',#332,#349,#198,.T.);
#435=EDGE_CURVE('',#350,#341,#291,.T.);
#436=EDGE_CURVE('',#345,#350,#199,.T.);
#437=EDGE_CURVE('',#351,#350,#200,.T.);
#438=EDGE_CURVE('',#349,#351,#201,.T.);
#439=EDGE_CURVE('',#347,#352,#202,.T.);
#440=EDGE_CURVE('',#352,#342,#292,.T.);
#441=EDGE_CURVE('',#351,#344,#203,.T.);
#442=EDGE_CURVE('',#329,#352,#204,.T.);
#443=EDGE_CURVE('',#353,#353,#293,.T.);
#444=EDGE_CURVE('',#353,#354,#205,.T.);
#445=EDGE_CURVE('',#354,#354,#294,.T.);
#446=ORIENTED_EDGE('',*,*,#355,.F.);
#447=ORIENTED_EDGE('',*,*,#356,.T.);
#448=ORIENTED_EDGE('',*,*,#357,.F.);
#449=ORIENTED_EDGE('',*,*,#356,.F.);
#450=ORIENTED_EDGE('',*,*,#358,.F.);
#451=ORIENTED_EDGE('',*,*,#359,.T.);
#452=ORIENTED_EDGE('',*,*,#360,.F.);
#453=ORIENTED_EDGE('',*,*,#359,.F.);
#454=ORIENTED_EDGE('',*,*,#361,.F.);
#455=ORIENTED_EDGE('',*,*,#362,.T.);
#456=ORIENTED_EDGE('',*,*,#363,.F.);
#457=ORIENTED_EDGE('',*,*,#362,.F.);
#458=ORIENTED_EDGE('',*,*,#364,.F.);
#459=ORIENTED_EDGE('',*,*,#365,.F.);
#460=ORIENTED_EDGE('',*,*,#366,.F.);
#461=ORIENTED_EDGE('',*,*,#367,.F.);
#462=ORIENTED_EDGE('',*,*,#368,.F.);
#463=ORIENTED_EDGE('',*,*,#369,.F.);
#464=ORIENTED_EDGE('',*,*,#370,.F.);
#465=ORIENTED_EDGE('',*,*,#371,.F.);
#466=ORIENTED_EDGE('',*,*,#372,.F.);
#467=ORIENTED_EDGE('',*,*,#373,.F.);
#468=ORIENTED_EDGE('',*,*,#374,.F.);
#469=ORIENTED_EDGE('',*,*,#375,.F.);
#470=ORIENTED_EDGE('',*,*,#376,.F.);
#471=ORIENTED_EDGE('',*,*,#377,.F.);
#472=ORIENTED_EDGE('',*,*,#378,.F.);
#473=ORIENTED_EDGE('',*,*,#379,.F.);
#474=ORIENTED_EDGE('',*,*,#380,.F.);
#475=ORIENTED_EDGE('',*,*,#381,.F.);
#476=ORIENTED_EDGE('',*,*,#382,.F.);
#477=ORIENTED_EDGE('',*,*,#383,.F.);
#478=ORIENTED_EDGE('',*,*,#384,.F.);
#479=ORIENTED_EDGE('',*,*,#385,.F.);
#480=ORIENTED_EDGE('',*,*,#386,.F.);
#481=ORIENTED_EDGE('',*,*,#386,.T.);
#482=ORIENTED_EDGE('',*,*,#387,.T.);
#483=ORIENTED_EDGE('',*,*,#370,.T.);
#484=ORIENTED_EDGE('',*,*,#388,.F.);
#485=ORIENTED_EDGE('',*,*,#385,.T.);
#486=ORIENTED_EDGE('',*,*,#389,.T.);
#487=ORIENTED_EDGE('',*,*,#371,.T.);
#488=ORIENTED_EDGE('',*,*,#387,.F.);
#489=ORIENTED_EDGE('',*,*,#384,.T.);
#490=ORIENTED_EDGE('',*,*,#390,.T.);
#491=ORIENTED_EDGE('',*,*,#368,.T.);
#492=ORIENTED_EDGE('',*,*,#389,.F.);
#493=ORIENTED_EDGE('',*,*,#383,.T.);
#494=ORIENTED_EDGE('',*,*,#388,.T.);
#495=ORIENTED_EDGE('',*,*,#369,.T.);
#496=ORIENTED_EDGE('',*,*,#390,.F.);
#497=ORIENTED_EDGE('',*,*,#391,.T.);
#498=ORIENTED_EDGE('',*,*,#392,.T.);
#499=ORIENTED_EDGE('',*,*,#393,.T.);
#500=ORIENTED_EDGE('',*,*,#394,.T.);
#501=ORIENTED_EDGE('',*,*,#395,.T.);
#502=ORIENTED_EDGE('',*,*,#396,.T.);
#503=ORIENTED_EDGE('',*,*,#393,.F.);
#504=ORIENTED_EDGE('',*,*,#397,.F.);
#505=ORIENTED_EDGE('',*,*,#398,.T.);
#506=ORIENTED_EDGE('',*,*,#377,.T.);
#507=ORIENTED_EDGE('',*,*,#399,.F.);
#508=ORIENTED_EDGE('',*,*,#392,.F.);
#509=ORIENTED_EDGE('',*,*,#400,.F.);
#510=ORIENTED_EDGE('',*,*,#401,.F.);
#511=ORIENTED_EDGE('',*,*,#402,.F.);
#512=ORIENTED_EDGE('',*,*,#403,.T.);
#513=ORIENTED_EDGE('',*,*,#397,.T.);
#514=ORIENTED_EDGE('',*,*,#404,.T.);
#515=ORIENTED_EDGE('',*,*,#405,.T.);
#516=ORIENTED_EDGE('',*,*,#406,.T.);
#517=ORIENTED_EDGE('',*,*,#407,.T.);
#518=ORIENTED_EDGE('',*,*,#404,.F.);
#519=ORIENTED_EDGE('',*,*,#408,.T.);
#520=ORIENTED_EDGE('',*,*,#375,.T.);
#521=ORIENTED_EDGE('',*,*,#409,.F.);
#522=ORIENTED_EDGE('',*,*,#410,.F.);
#523=ORIENTED_EDGE('',*,*,#411,.F.);
#524=ORIENTED_EDGE('',*,*,#407,.F.);
#525=ORIENTED_EDGE('',*,*,#412,.F.);
#526=ORIENTED_EDGE('',*,*,#413,.F.);
#527=ORIENTED_EDGE('',*,*,#394,.F.);
#528=ORIENTED_EDGE('',*,*,#406,.F.);
#529=ORIENTED_EDGE('',*,*,#414,.F.);
#530=ORIENTED_EDGE('',*,*,#415,.F.);
#531=ORIENTED_EDGE('',*,*,#416,.F.);
#532=ORIENTED_EDGE('',*,*,#417,.F.);
#533=ORIENTED_EDGE('',*,*,#412,.T.);
#534=ORIENTED_EDGE('',*,*,#405,.F.);
#535=ORIENTED_EDGE('',*,*,#410,.T.);
#536=ORIENTED_EDGE('',*,*,#418,.T.);
#537=ORIENTED_EDGE('',*,*,#419,.F.);
#538=ORIENTED_EDGE('',*,*,#420,.T.);
#539=ORIENTED_EDGE('',*,*,#421,.F.);
#540=ORIENTED_EDGE('',*,*,#414,.T.);
#541=ORIENTED_EDGE('',*,*,#411,.T.);
#542=ORIENTED_EDGE('',*,*,#399,.T.);
#543=ORIENTED_EDGE('',*,*,#376,.T.);
#544=ORIENTED_EDGE('',*,*,#408,.F.);
#545=ORIENTED_EDGE('',*,*,#379,.T.);
#546=ORIENTED_EDGE('',*,*,#422,.T.);
#547=ORIENTED_EDGE('',*,*,#365,.T.);
#548=ORIENTED_EDGE('',*,*,#422,.F.);
#549=ORIENTED_EDGE('',*,*,#380,.T.);
#550=ORIENTED_EDGE('',*,*,#423,.T.);
#551=ORIENTED_EDGE('',*,*,#364,.T.);
#552=ORIENTED_EDGE('',*,*,#423,.F.);
#553=ORIENTED_EDGE('',*,*,#381,.T.);
#554=ORIENTED_EDGE('',*,*,#424,.T.);
#555=ORIENTED_EDGE('',*,*,#366,.T.);
#556=ORIENTED_EDGE('',*,*,#424,.F.);
#557=ORIENTED_EDGE('',*,*,#382,.T.);
#558=ORIENTED_EDGE('',*,*,#425,.T.);
#559=ORIENTED_EDGE('',*,*,#367,.T.);
#560=ORIENTED_EDGE('',*,*,#425,.F.);
#561=ORIENTED_EDGE('',*,*,#372,.T.);
#562=ORIENTED_EDGE('',*,*,#426,.T.);
#563=ORIENTED_EDGE('',*,*,#427,.F.);
#564=ORIENTED_EDGE('',*,*,#426,.F.);
#565=ORIENTED_EDGE('',*,*,#418,.F.);
#566=ORIENTED_EDGE('',*,*,#409,.T.);
#567=ORIENTED_EDGE('',*,*,#374,.T.);
#568=ORIENTED_EDGE('',*,*,#428,.F.);
#569=ORIENTED_EDGE('',*,*,#403,.F.);
#570=ORIENTED_EDGE('',*,*,#429,.T.);
#571=ORIENTED_EDGE('',*,*,#378,.T.);
#572=ORIENTED_EDGE('',*,*,#398,.F.);
#573=ORIENTED_EDGE('',*,*,#391,.F.);
#574=ORIENTED_EDGE('',*,*,#430,.T.);
#575=ORIENTED_EDGE('',*,*,#431,.T.);
#576=ORIENTED_EDGE('',*,*,#432,.T.);
#577=ORIENTED_EDGE('',*,*,#400,.T.);
#578=ORIENTED_EDGE('',*,*,#432,.F.);
#579=ORIENTED_EDGE('',*,*,#433,.F.);
#580=ORIENTED_EDGE('',*,*,#434,.F.);
#581=ORIENTED_EDGE('',*,*,#401,.T.);
#582=ORIENTED_EDGE('',*,*,#435,.T.);
#583=ORIENTED_EDGE('',*,*,#415,.T.);
#584=ORIENTED_EDGE('',*,*,#421,.T.);
#585=ORIENTED_EDGE('',*,*,#436,.T.);
#586=ORIENTED_EDGE('',*,*,#435,.F.);
#587=ORIENTED_EDGE('',*,*,#437,.F.);
#588=ORIENTED_EDGE('',*,*,#438,.F.);
#589=ORIENTED_EDGE('',*,*,#433,.T.);
#590=ORIENTED_EDGE('',*,*,#431,.F.);
#591=ORIENTED_EDGE('',*,*,#439,.T.);
#592=ORIENTED_EDGE('',*,*,#440,.T.);
#593=ORIENTED_EDGE('',*,*,#416,.T.);
#594=ORIENTED_EDGE('',*,*,#427,.T.);
#595=ORIENTED_EDGE('',*,*,#436,.F.);
#596=ORIENTED_EDGE('',*,*,#420,.F.);
#597=ORIENTED_EDGE('',*,*,#441,.F.);
#598=ORIENTED_EDGE('',*,*,#437,.T.);
#599=ORIENTED_EDGE('',*,*,#395,.F.);
#600=ORIENTED_EDGE('',*,*,#413,.T.);
#601=ORIENTED_EDGE('',*,*,#417,.T.);
#602=ORIENTED_EDGE('',*,*,#440,.F.);
#603=ORIENTED_EDGE('',*,*,#442,.F.);
#604=ORIENTED_EDGE('',*,*,#396,.F.);
#605=ORIENTED_EDGE('',*,*,#442,.T.);
#606=ORIENTED_EDGE('',*,*,#439,.F.);
#607=ORIENTED_EDGE('',*,*,#430,.F.);
#608=ORIENTED_EDGE('',*,*,#443,.F.);
#609=ORIENTED_EDGE('',*,*,#444,.T.);
#610=ORIENTED_EDGE('',*,*,#445,.T.);
#611=ORIENTED_EDGE('',*,*,#444,.F.);
#612=ORIENTED_EDGE('',*,*,#443,.T.);
#613=ORIENTED_EDGE('',*,*,#357,.T.);
#614=ORIENTED_EDGE('',*,*,#360,.T.);
#615=ORIENTED_EDGE('',*,*,#363,.T.);
#616=ORIENTED_EDGE('',*,*,#441,.T.);
#617=ORIENTED_EDGE('',*,*,#419,.T.);
#618=ORIENTED_EDGE('',*,*,#428,.T.);
#619=ORIENTED_EDGE('',*,*,#373,.T.);
#620=ORIENTED_EDGE('',*,*,#429,.F.);
#621=ORIENTED_EDGE('',*,*,#402,.T.);
#622=ORIENTED_EDGE('',*,*,#434,.T.);
#623=ORIENTED_EDGE('',*,*,#438,.T.);
#624=ORIENTED_EDGE('',*,*,#445,.F.);
#625=ORIENTED_EDGE('',*,*,#355,.T.);
#626=ORIENTED_EDGE('',*,*,#358,.T.);
#627=ORIENTED_EDGE('',*,*,#361,.T.);
#628=CYLINDRICAL_SURFACE('',#696,1.5);
#629=CYLINDRICAL_SURFACE('',#699,3.);
#630=CYLINDRICAL_SURFACE('',#702,1.5);
#631=CYLINDRICAL_SURFACE('',#743,16.);
#632=CYLINDRICAL_SURFACE('',#744,1.03775);
#633=CYLINDRICAL_SURFACE('',#745,1.03775);
#634=CYLINDRICAL_SURFACE('',#746,1.03775);
#635=CYLINDRICAL_SURFACE('',#747,1.03775);
#636=CYLINDRICAL_SURFACE('',#748,9.);
#637=CYLINDRICAL_SURFACE('',#750,50.);
#638=CYLINDRICAL_SURFACE('',#751,29.9999999999999);
#639=CYLINDRICAL_SURFACE('',#752,18.);
#640=CYLINDRICAL_SURFACE('',#755,25.);
#641=CYLINDRICAL_SURFACE('',#760,24.7512882968636);
#642=CYLINDRICAL_SURFACE('',#762,48.5);
#643=ADVANCED_FACE('',(#55),#628,.F.);
#644=ADVANCED_FACE('',(#56),#629,.F.);
#645=ADVANCED_FACE('',(#57),#630,.F.);
#646=ADVANCED_FACE('',(#58),#31,.T.);
#647=ADVANCED_FACE('',(#59),#32,.T.);
#648=ADVANCED_FACE('',(#60),#33,.T.);
#649=ADVANCED_FACE('',(#61),#34,.T.);
#650=ADVANCED_FACE('',(#62,#17),#35,.T.);
#651=ADVANCED_FACE('',(#63,#18,#19,#20,#21,#22),#36,.T.);
#652=ADVANCED_FACE('',(#64),#37,.F.);
#653=ADVANCED_FACE('',(#65),#38,.F.);
#654=ADVANCED_FACE('',(#66),#39,.F.);
#655=ADVANCED_FACE('',(#67),#40,.F.);
#656=ADVANCED_FACE('',(#68),#41,.T.);
#657=ADVANCED_FACE('',(#69),#42,.F.);
#658=ADVANCED_FACE('',(#70),#43,.T.);
#659=ADVANCED_FACE('',(#71),#44,.T.);
#660=ADVANCED_FACE('',(#72),#45,.F.);
#661=ADVANCED_FACE('',(#73),#46,.T.);
#662=ADVANCED_FACE('',(#74),#47,.T.);
#663=ADVANCED_FACE('',(#75),#48,.T.);
#664=ADVANCED_FACE('',(#76),#631,.F.);
#665=ADVANCED_FACE('',(#77),#632,.F.);
#666=ADVANCED_FACE('',(#78),#633,.F.);
#667=ADVANCED_FACE('',(#79),#634,.F.);
#668=ADVANCED_FACE('',(#80),#635,.F.);
#669=ADVANCED_FACE('',(#81),#636,.F.);
#670=ADVANCED_FACE('',(#82),#637,.F.);
#671=ADVANCED_FACE('',(#83),#638,.T.);
#672=ADVANCED_FACE('',(#84),#639,.F.);
#673=ADVANCED_FACE('',(#85),#49,.T.);
#674=ADVANCED_FACE('',(#86),#640,.T.);
#675=ADVANCED_FACE('',(#87,#23),#50,.T.);
#676=ADVANCED_FACE('',(#88),#51,.T.);
#677=ADVANCED_FACE('',(#89),#641,.T.);
#678=ADVANCED_FACE('',(#90),#52,.T.);
#679=ADVANCED_FACE('',(#91),#642,.T.);
#680=ADVANCED_FACE('',(#92,#24,#25,#26,#27),#53,.T.);
#681=ADVANCED_FACE('',(#93,#28,#29,#30),#54,.F.);
#682=CLOSED_SHELL('',(#643,#644,#645,#646,#647,#648,#649,#650,#651,#652,
#653,#654,#655,#656,#657,#658,#659,#660,#661,#662,#663,#664,#665,#666,#667,
#668,#669,#670,#671,#672,#673,#674,#675,#676,#677,#678,#679,#680,#681));
#683=DERIVED_UNIT_ELEMENT(#685,1.);
#684=DERIVED_UNIT_ELEMENT(#1166,-3.);
#685=(
MASS_UNIT()
NAMED_UNIT(*)
SI_UNIT(.KILO.,.GRAM.)
);
#686=DERIVED_UNIT((#683,#684));
#687=MEASURE_REPRESENTATION_ITEM('density measure',
POSITIVE_RATIO_MEASURE(7850.),#686);
#688=PROPERTY_DEFINITION_REPRESENTATION(#693,#690);
#689=PROPERTY_DEFINITION_REPRESENTATION(#694,#691);
#690=REPRESENTATION('material name',(#692),#1163);
#691=REPRESENTATION('density',(#687),#1163);
#692=DESCRIPTIVE_REPRESENTATION_ITEM('Steel','Steel');
#693=PROPERTY_DEFINITION('material property','material name',#1173);
#694=PROPERTY_DEFINITION('material property','density of part',#1173);
#695=AXIS2_PLACEMENT_3D('',#970,#767,#768);
#696=AXIS2_PLACEMENT_3D('',#971,#769,#770);
#697=AXIS2_PLACEMENT_3D('',#973,#771,#772);
#698=AXIS2_PLACEMENT_3D('',#976,#774,#775);
#699=AXIS2_PLACEMENT_3D('',#977,#776,#777);
#700=AXIS2_PLACEMENT_3D('',#979,#778,#779);
#701=AXIS2_PLACEMENT_3D('',#982,#781,#782);
#702=AXIS2_PLACEMENT_3D('',#983,#783,#784);
#703=AXIS2_PLACEMENT_3D('',#985,#785,#786);
#704=AXIS2_PLACEMENT_3D('',#988,#788,#789);
#705=AXIS2_PLACEMENT_3D('',#989,#790,#791);
#706=AXIS2_PLACEMENT_3D('',#991,#792,#793);
#707=AXIS2_PLACEMENT_3D('',#992,#794,#795);
#708=AXIS2_PLACEMENT_3D('',#994,#796,#797);
#709=AXIS2_PLACEMENT_3D('',#995,#798,#799);
#710=AXIS2_PLACEMENT_3D('',#997,#800,#801);
#711=AXIS2_PLACEMENT_3D('',#998,#802,#803);
#712=AXIS2_PLACEMENT_3D('',#1000,#804,#805);
#713=AXIS2_PLACEMENT_3D('',#1001,#806,#807);
#714=AXIS2_PLACEMENT_3D('',#1011,#812,#813);
#715=AXIS2_PLACEMENT_3D('',#1012,#814,#815);
#716=AXIS2_PLACEMENT_3D('',#1017,#817,#818);
#717=AXIS2_PLACEMENT_3D('',#1021,#820,#821);
#718=AXIS2_PLACEMENT_3D('',#1024,#823,#824);
#719=AXIS2_PLACEMENT_3D('',#1026,#825,#826);
#720=AXIS2_PLACEMENT_3D('',#1028,#827,#828);
#721=AXIS2_PLACEMENT_3D('',#1030,#829,#830);
#722=AXIS2_PLACEMENT_3D('',#1032,#831,#832);
#723=AXIS2_PLACEMENT_3D('',#1041,#837,#838);
#724=AXIS2_PLACEMENT_3D('',#1044,#841,#842);
#725=AXIS2_PLACEMENT_3D('',#1046,#844,#845);
#726=AXIS2_PLACEMENT_3D('',#1048,#847,#848);
#727=AXIS2_PLACEMENT_3D('',#1049,#849,#850);
#728=AXIS2_PLACEMENT_3D('',#1052,#851,#852);
#729=AXIS2_PLACEMENT_3D('',#1060,#856,#857);
#730=AXIS2_PLACEMENT_3D('',#1062,#859,#860);
#731=AXIS2_PLACEMENT_3D('',#1067,#864,#865);
#732=AXIS2_PLACEMENT_3D('',#1069,#866,#867);
#733=AXIS2_PLACEMENT_3D('',#1074,#870,#871);
#734=AXIS2_PLACEMENT_3D('',#1075,#872,#873);
#735=AXIS2_PLACEMENT_3D('',#1084,#878,#879);
#736=AXIS2_PLACEMENT_3D('',#1089,#883,#884);
#737=AXIS2_PLACEMENT_3D('',#1090,#885,#886);
#738=AXIS2_PLACEMENT_3D('',#1093,#888,#889);
#739=AXIS2_PLACEMENT_3D('',#1094,#890,#891);
#740=AXIS2_PLACEMENT_3D('',#1102,#896,#897);
#741=AXIS2_PLACEMENT_3D('',#1104,#898,#899);
#742=AXIS2_PLACEMENT_3D('',#1109,#902,#903);
#743=AXIS2_PLACEMENT_3D('',#1110,#904,#905);
#744=AXIS2_PLACEMENT_3D('',#1111,#906,#907);
#745=AXIS2_PLACEMENT_3D('',#1113,#909,#910);
#746=AXIS2_PLACEMENT_3D('',#1115,#912,#913);
#747=AXIS2_PLACEMENT_3D('',#1117,#915,#916);
#748=AXIS2_PLACEMENT_3D('',#1119,#918,#919);
#749=AXIS2_PLACEMENT_3D('',#1122,#921,#922);
#750=AXIS2_PLACEMENT_3D('',#1123,#923,#924);
#751=AXIS2_PLACEMENT_3D('',#1125,#926,#927);
#752=AXIS2_PLACEMENT_3D('',#1127,#929,#930);
#753=AXIS2_PLACEMENT_3D('',#1131,#932,#933);
#754=AXIS2_PLACEMENT_3D('',#1133,#935,#936);
#755=AXIS2_PLACEMENT_3D('',#1137,#939,#940);
#756=AXIS2_PLACEMENT_3D('',#1139,#941,#942);
#757=AXIS2_PLACEMENT_3D('',#1141,#944,#945);
#758=AXIS2_PLACEMENT_3D('',#1147,#949,#950);
#759=AXIS2_PLACEMENT_3D('',#1148,#951,#952);
#760=AXIS2_PLACEMENT_3D('',#1150,#954,#955);
#761=AXIS2_PLACEMENT_3D('',#1152,#957,#958);
#762=AXIS2_PLACEMENT_3D('',#1153,#959,#960);
#763=AXIS2_PLACEMENT_3D('',#1155,#961,#962);
#764=AXIS2_PLACEMENT_3D('',#1158,#964,#965);
#765=AXIS2_PLACEMENT_3D('',#1159,#966,#967);
#766=AXIS2_PLACEMENT_3D('',#1160,#968,#969);
#767=DIRECTION('axis',(0.,0.,1.));
#768=DIRECTION('refdir',(1.,0.,0.));
#769=DIRECTION('center_axis',(0.,0.,1.));
#770=DIRECTION('ref_axis',(-1.,0.,0.));
#771=DIRECTION('center_axis',(0.,0.,1.));
#772=DIRECTION('ref_axis',(-1.,0.,0.));
#773=DIRECTION('',(0.,0.,1.));
#774=DIRECTION('center_axis',(0.,0.,-1.));
#775=DIRECTION('ref_axis',(-1.,0.,0.));
#776=DIRECTION('center_axis',(0.,0.,1.));
#777=DIRECTION('ref_axis',(-1.,0.,0.));
#778=DIRECTION('center_axis',(0.,0.,1.));
#779=DIRECTION('ref_axis',(-1.,0.,0.));
#780=DIRECTION('',(0.,0.,1.));
#781=DIRECTION('center_axis',(0.,0.,-1.));
#782=DIRECTION('ref_axis',(-1.,0.,0.));
#783=DIRECTION('center_axis',(0.,0.,1.));
#784=DIRECTION('ref_axis',(-1.,0.,0.));
#785=DIRECTION('center_axis',(0.,0.,1.));
#786=DIRECTION('ref_axis',(-1.,0.,0.));
#787=DIRECTION('',(0.,0.,1.));
#788=DIRECTION('center_axis',(0.,0.,-1.));
#789=DIRECTION('ref_axis',(-1.,0.,0.));
#790=DIRECTION('center_axis',(1.,0.,0.));
#791=DIRECTION('ref_axis',(0.,1.,0.));
#792=DIRECTION('center_axis',(-1.,0.,0.));
#793=DIRECTION('ref_axis',(0.,1.,0.));
#794=DIRECTION('center_axis',(1.,0.,0.));
#795=DIRECTION('ref_axis',(0.,1.,0.));
#796=DIRECTION('center_axis',(-1.,0.,0.));
#797=DIRECTION('ref_axis',(0.,1.,0.));
#798=DIRECTION('center_axis',(1.,0.,0.));
#799=DIRECTION('ref_axis',(0.,1.,0.));
#800=DIRECTION('center_axis',(-1.,0.,0.));
#801=DIRECTION('ref_axis',(0.,1.,0.));
#802=DIRECTION('center_axis',(1.,0.,0.));
#803=DIRECTION('ref_axis',(0.,1.,0.));
#804=DIRECTION('center_axis',(-1.,0.,0.));
#805=DIRECTION('ref_axis',(0.,1.,0.));
#806=DIRECTION('center_axis',(1.,0.,0.));
#807=DIRECTION('ref_axis',(0.,1.,0.));
#808=DIRECTION('',(0.,0.68593437484498,-0.727663406669613));
#809=DIRECTION('',(0.,0.727663406669612,0.685934374844981));
#810=DIRECTION('',(0.,-0.685934374844981,0.727663406669612));
#811=DIRECTION('',(0.,-0.727663406669595,-0.685934374844999));
#812=DIRECTION('center_axis',(1.,0.,0.));
#813=DIRECTION('ref_axis',(0.,1.,0.));
#814=DIRECTION('center_axis',(1.,0.,0.));
#815=DIRECTION('ref_axis',(0.,1.,0.));
#816=DIRECTION('',(0.,-1.,0.));
#817=DIRECTION('center_axis',(-1.,0.,0.));
#818=DIRECTION('ref_axis',(0.,1.,1.22124532708767E-16));
#819=DIRECTION('',(0.,0.685934374844981,-0.727663406669612));
#820=DIRECTION('center_axis',(-1.,0.,0.));
#821=DIRECTION('ref_axis',(0.,0.727663406669613,0.68593437484498));
#822=DIRECTION('',(0.,-0.707106781186552,0.707106781186543));
#823=DIRECTION('center_axis',(1.,0.,0.));
#824=DIRECTION('ref_axis',(0.,1.,0.));
#825=DIRECTION('center_axis',(-1.,0.,0.));
#826=DIRECTION('ref_axis',(0.,1.,0.));
#827=DIRECTION('center_axis',(-1.,0.,0.));
#828=DIRECTION('ref_axis',(0.,1.,0.));
#829=DIRECTION('center_axis',(-1.,0.,0.));
#830=DIRECTION('ref_axis',(0.,1.,0.));
#831=DIRECTION('center_axis',(-1.,0.,0.));
#832=DIRECTION('ref_axis',(0.,1.,0.));
#833=DIRECTION('',(0.,-0.727663406669612,-0.685934374844981));
#834=DIRECTION('',(0.,-0.68593437484498,0.727663406669613));
#835=DIRECTION('',(0.,0.727663406669595,0.685934374844999));
#836=DIRECTION('',(0.,0.685934374844981,-0.727663406669612));
#837=DIRECTION('center_axis',(0.,-0.727663406669612,-0.685934374844981));
#838=DIRECTION('ref_axis',(0.,-0.685934374844981,0.727663406669612));
#839=DIRECTION('',(-1.,0.,0.));
#840=DIRECTION('',(-1.,0.,0.));
#841=DIRECTION('center_axis',(0.,0.685934374844999,-0.727663406669595));
#842=DIRECTION('ref_axis',(0.,-0.727663406669595,-0.685934374844999));
#843=DIRECTION('',(-1.,0.,0.));
#844=DIRECTION('center_axis',(0.,0.727663406669613,0.68593437484498));
#845=DIRECTION('ref_axis',(0.,0.68593437484498,-0.727663406669613));
#846=DIRECTION('',(-1.,0.,0.));
#847=DIRECTION('center_axis',(0.,-0.685934374844981,0.727663406669612));
#848=DIRECTION('ref_axis',(0.,0.727663406669612,0.685934374844981));
#849=DIRECTION('center_axis',(0.970142500145332,-0.171498585142517,0.1714985851425));
#850=DIRECTION('ref_axis',(0.17407765595569,0.,-0.984731927834663));
#851=DIRECTION('center_axis',(-0.970142500145332,0.171498585142517,-0.1714985851425));
#852=DIRECTION('ref_axis',(0.242535625036333,0.685994340570069,-0.685994340570002));
#853=DIRECTION('',(0.,0.707106781186513,0.707106781186582));
#854=DIRECTION('',(-0.242535625036333,-0.68599434057004,0.685994340570031));
#855=DIRECTION('',(0.,-0.707106781186513,-0.707106781186582));
#856=DIRECTION('center_axis',(0.970142500145332,-0.171498585142517,0.1714985851425));
#857=DIRECTION('ref_axis',(0.242535625036333,0.685994340570035,-0.685994340570035));
#858=DIRECTION('',(0.242535625036333,0.685994340570035,-0.685994340570035));
#859=DIRECTION('center_axis',(0.,-0.707106781186543,-0.707106781186552));
#860=DIRECTION('ref_axis',(0.,-0.707106781186552,0.707106781186543));
#861=DIRECTION('',(0.,-0.707106781186552,0.707106781186543));
#862=DIRECTION('',(-1.,0.,0.));
#863=DIRECTION('',(-1.,0.,0.));
#864=DIRECTION('center_axis',(1.,0.,0.));
#865=DIRECTION('ref_axis',(0.,1.,0.));
#866=DIRECTION('center_axis',(1.,0.,0.));
#867=DIRECTION('ref_axis',(0.,0.923879532511287,0.38268343236509));
#868=DIRECTION('',(0.,0.,1.));
#869=DIRECTION('',(0.,-1.,0.));
#870=DIRECTION('center_axis',(1.,0.,0.));
#871=DIRECTION('ref_axis',(0.,1.,0.));
#872=DIRECTION('center_axis',(0.986393923832144,-0.116247638743819,0.116247638743819));
#873=DIRECTION('ref_axis',(0.117041147196131,0.,-0.993127066322842));
#874=DIRECTION('',(0.164329337682863,0.67660946027286,-0.7177712080085));
#875=DIRECTION('',(0.,0.707106781186547,0.707106781186547));
#876=DIRECTION('',(-0.164398987305357,-0.697485832462916,0.697485832462916));
#877=DIRECTION('',(0.,-0.707106781186547,-0.707106781186547));
#878=DIRECTION('center_axis',(0.,0.727663406669612,0.685934374844981));
#879=DIRECTION('ref_axis',(0.,0.685934374844981,-0.727663406669612));
#880=DIRECTION('',(-1.,0.,0.));
#881=DIRECTION('',(-1.,0.,0.));
#882=DIRECTION('',(0.,0.685934374844981,-0.727663406669612));
#883=DIRECTION('center_axis',(1.,0.,0.));
#884=DIRECTION('ref_axis',(0.,1.,0.));
#885=DIRECTION('center_axis',(1.,0.,0.));
#886=DIRECTION('ref_axis',(0.,0.727663406669613,0.68593437484498));
#887=DIRECTION('',(0.,0.707106781186547,-0.707106781186548));
#888=DIRECTION('center_axis',(-1.,0.,0.));
#889=DIRECTION('ref_axis',(0.,0.707106781186548,0.707106781186547));
#890=DIRECTION('center_axis',(0.,0.707106781186548,0.707106781186547));
#891=DIRECTION('ref_axis',(0.,0.707106781186547,-0.707106781186548));
#892=DIRECTION('',(0.,-0.707106781186547,0.707106781186548));
#893=DIRECTION('',(1.,0.,0.));
#894=DIRECTION('',(0.,0.707106781186547,-0.707106781186548));
#895=DIRECTION('',(-1.,0.,0.));
#896=DIRECTION('center_axis',(1.,0.,0.));
#897=DIRECTION('ref_axis',(0.,1.,0.));
#898=DIRECTION('center_axis',(-1.,0.,0.));
#899=DIRECTION('ref_axis',(0.,1.,1.22124532708767E-16));
#900=DIRECTION('',(0.,-1.,0.));
#901=DIRECTION('',(0.,0.,1.));
#902=DIRECTION('center_axis',(-1.,0.,0.));
#903=DIRECTION('ref_axis',(0.,0.923879532511287,0.38268343236509));
#904=DIRECTION('center_axis',(-1.,0.,0.));
#905=DIRECTION('ref_axis',(0.,-0.696596410636913,0.717463198141737));
#906=DIRECTION('center_axis',(-1.,0.,0.));
#907=DIRECTION('ref_axis',(0.,1.,0.));
#908=DIRECTION('',(-1.,0.,0.));
#909=DIRECTION('center_axis',(-1.,0.,0.));
#910=DIRECTION('ref_axis',(0.,1.,0.));
#911=DIRECTION('',(-1.,0.,0.));
#912=DIRECTION('center_axis',(-1.,0.,0.));
#913=DIRECTION('ref_axis',(0.,1.,0.));
#914=DIRECTION('',(-1.,0.,0.));
#915=DIRECTION('center_axis',(-1.,0.,0.));
#916=DIRECTION('ref_axis',(0.,1.,0.));
#917=DIRECTION('',(-1.,0.,0.));
#918=DIRECTION('center_axis',(-1.,0.,0.));
#919=DIRECTION('ref_axis',(0.,1.,0.));
#920=DIRECTION('',(-1.,0.,0.));
#921=DIRECTION('center_axis',(1.,0.,0.));
#922=DIRECTION('ref_axis',(0.,1.,0.));
#923=DIRECTION('center_axis',(-1.,0.,0.));
#924=DIRECTION('ref_axis',(0.,1.,1.22124532708767E-16));
#925=DIRECTION('',(-1.,0.,0.));
#926=DIRECTION('center_axis',(-1.,0.,0.));
#927=DIRECTION('ref_axis',(0.,1.,0.));
#928=DIRECTION('',(-1.,0.,0.));
#929=DIRECTION('center_axis',(1.,0.,0.));
#930=DIRECTION('ref_axis',(0.,0.923879532511287,0.38268343236509));
#931=DIRECTION('',(-1.,0.,0.));
#932=DIRECTION('center_axis',(-1.,0.,0.));
#933=DIRECTION('ref_axis',(0.,0.923879532511287,0.38268343236509));
#934=DIRECTION('',(1.,0.,0.));
#935=DIRECTION('center_axis',(0.,-1.,0.));
#936=DIRECTION('ref_axis',(1.,0.,0.));
#937=DIRECTION('',(0.,0.,1.));
#938=DIRECTION('',(-1.,0.,0.));
#939=DIRECTION('center_axis',(-1.,0.,0.));
#940=DIRECTION('ref_axis',(0.,0.923879532511287,0.38268343236509));
#941=DIRECTION('center_axis',(1.,0.,0.));
#942=DIRECTION('ref_axis',(0.,0.923879532511287,0.38268343236509));
#943=DIRECTION('',(-1.,0.,0.));
#944=DIRECTION('center_axis',(-1.,0.,0.));
#945=DIRECTION('ref_axis',(0.,-1.,0.));
#946=DIRECTION('',(0.,0.,1.));
#947=DIRECTION('',(0.,1.,0.));
#948=DIRECTION('',(0.,-0.707106781186547,0.707106781186548));
#949=DIRECTION('center_axis',(-1.,0.,0.));
#950=DIRECTION('ref_axis',(0.,0.707106781186548,0.707106781186547));
#951=DIRECTION('center_axis',(0.,1.,0.));
#952=DIRECTION('ref_axis',(-1.,0.,0.));
#953=DIRECTION('',(1.,0.,0.));
#954=DIRECTION('center_axis',(-1.,0.,0.));
#955=DIRECTION('ref_axis',(0.,-0.714248904930942,0.699891778637919));
#956=DIRECTION('',(-1.,0.,0.));
#957=DIRECTION('center_axis',(0.,-0.707106781186548,-0.707106781186547));
#958=DIRECTION('ref_axis',(0.,-0.707106781186547,0.707106781186548));
#959=DIRECTION('center_axis',(0.,0.,1.));
#960=DIRECTION('ref_axis',(1.,0.,0.));
#961=DIRECTION('center_axis',(0.,0.,1.));
#962=DIRECTION('ref_axis',(1.,0.,0.));
#963=DIRECTION('',(0.,0.,-1.));
#964=DIRECTION('center_axis',(0.,0.,1.));
#965=DIRECTION('ref_axis',(1.,0.,0.));
#966=DIRECTION('center_axis',(0.,0.,1.));
#967=DIRECTION('ref_axis',(1.,0.,0.));
#968=DIRECTION('center_axis',(0.,0.,1.));
#969=DIRECTION('ref_axis',(1.,0.,0.));
#970=CARTESIAN_POINT('',(0.,0.,0.));
#971=CARTESIAN_POINT('Origin',(-0.332710189766092,7.95970373503731,0.));
#972=CARTESIAN_POINT('',(1.16728981023391,7.95970373503731,0.));
#973=CARTESIAN_POINT('Origin',(-0.332710189766092,7.95970373503731,0.));
#974=CARTESIAN_POINT('',(1.16728981023391,7.95970373503731,4.));
#975=CARTESIAN_POINT('',(1.16728981023391,7.95970373503731,0.));
#976=CARTESIAN_POINT('Origin',(-0.332710189766092,7.95970373503731,4.));
#977=CARTESIAN_POINT('Origin',(-0.261284857508164,0.460043847954977,0.));
#978=CARTESIAN_POINT('',(2.73871514249184,0.460043847954977,0.));
#979=CARTESIAN_POINT('Origin',(-0.261284857508164,0.460043847954977,0.));
#980=CARTESIAN_POINT('',(2.73871514249184,0.460043847954976,4.));
#981=CARTESIAN_POINT('',(2.73871514249184,0.460043847954977,0.));
#982=CARTESIAN_POINT('Origin',(-0.261284857508164,0.460043847954977,4.));
#983=CARTESIAN_POINT('Origin',(-0.305926923805095,-7.03982328992932,0.));
#984=CARTESIAN_POINT('',(1.19407307619491,-7.03982328992932,0.));
#985=CARTESIAN_POINT('Origin',(-0.305926923805095,-7.03982328992932,0.));
#986=CARTESIAN_POINT('',(1.19407307619491,-7.03982328992932,4.));
#987=CARTESIAN_POINT('',(1.19407307619491,-7.03982328992932,0.));
#988=CARTESIAN_POINT('Origin',(-0.305926923805095,-7.03982328992932,4.));
#989=CARTESIAN_POINT('Origin',(7.,4.09338736732049,19.3798372969509));
#990=CARTESIAN_POINT('',(7.,3.05563736732049,19.3798372969509));
#991=CARTESIAN_POINT('Origin',(7.,4.09338736732049,19.3798372969509));
#992=CARTESIAN_POINT('Origin',(7.,-36.1080966919363,47.4483370686433));
#993=CARTESIAN_POINT('',(7.,-37.1458466919363,47.4483370686433));
#994=CARTESIAN_POINT('Origin',(7.,-36.1080966919363,47.4483370686433));
#995=CARTESIAN_POINT('Origin',(7.,-28.8314626252402,54.3076808170931));
#996=CARTESIAN_POINT('',(7.,-29.8692126252402,54.3076808170931));
#997=CARTESIAN_POINT('Origin',(7.,-28.8314626252402,54.3076808170931));
#998=CARTESIAN_POINT('Origin',(7.,-3.18324669937543,12.5204935485009));
#999=CARTESIAN_POINT('',(7.,-4.22099669937543,12.5204935485009));
#1000=CARTESIAN_POINT('Origin',(7.,-3.18324669937543,12.5204935485009));
#1001=CARTESIAN_POINT('Origin',(6.5,-16.0073546623087,33.4140871827973));
#1002=CARTESIAN_POINT('',(6.5,-22.4285435765999,55.5334979553968));
#1003=CARTESIAN_POINT('',(6.5,5.69476579204431,25.6992982819427));
#1004=CARTESIAN_POINT('',(6.5,5.69476579204431,25.6992982819427));
#1005=CARTESIAN_POINT('',(6.5,-37.7094751166617,41.1288760836522));
#1006=CARTESIAN_POINT('',(6.5,-22.4285435765999,55.5334979553968));
#1007=CARTESIAN_POINT('',(6.5,-9.58616574801718,11.2946764101977));
#1008=CARTESIAN_POINT('',(6.5,-37.7094751166617,41.1288760836522));
#1009=CARTESIAN_POINT('',(6.5,-9.58616574801718,11.2946764101977));
#1010=CARTESIAN_POINT('',(6.5,-31.8666984107585,40.6907212494936));
#1011=CARTESIAN_POINT('Origin',(6.5,-22.8666984107585,40.6907212494936));
#1012=CARTESIAN_POINT('Origin',(13.,-12.6758147394642,32.7300684896551));
#1013=CARTESIAN_POINT('',(13.,18.9947634551571,4.));
#1014=CARTESIAN_POINT('',(13.,-15.0494324059374,4.));
#1015=CARTESIAN_POINT('',(13.,-34.8826483591445,4.));
#1016=CARTESIAN_POINT('',(13.,5.69514371718772,32.6735194112429));
#1017=CARTESIAN_POINT('Origin',(13.,-30.688026616293,-1.6231993310061));
#1018=CARTESIAN_POINT('',(13.,-16.7037784273718,56.4350869768298));
#1019=CARTESIAN_POINT('',(13.,-16.7037784273718,56.4350869768298));
#1020=CARTESIAN_POINT('',(13.,-39.6601014330702,34.1464284803252));
#1021=CARTESIAN_POINT('Origin',(13.,-28.3463929340856,45.4601369793101));
#1022=CARTESIAN_POINT('',(13.,-22.7586721914112,17.2449992386664));
#1023=CARTESIAN_POINT('',(13.,-39.6601014330703,34.1464284803253));
#1024=CARTESIAN_POINT('Origin',(13.,-43.9718756270073,-3.96820419693009));
#1025=CARTESIAN_POINT('',(13.,-37.1458466919363,47.4483370686433));
#1026=CARTESIAN_POINT('Origin',(13.,-36.1080966919363,47.4483370686433));
#1027=CARTESIAN_POINT('',(13.,3.05563736732049,19.3798372969509));
#1028=CARTESIAN_POINT('Origin',(13.,4.09338736732049,19.3798372969509));
#1029=CARTESIAN_POINT('',(13.,-29.8692126252402,54.3076808170931));
#1030=CARTESIAN_POINT('Origin',(13.,-28.8314626252402,54.3076808170931));
#1031=CARTESIAN_POINT('',(13.,-4.22099669937543,12.5204935485009));
#1032=CARTESIAN_POINT('Origin',(13.,-3.18324669937543,12.5204935485009));
#1033=CARTESIAN_POINT('',(13.,-22.4285435765999,55.5334979553968));
#1034=CARTESIAN_POINT('',(13.,-37.7094751166617,41.1288760836522));
#1035=CARTESIAN_POINT('',(13.,-33.1779338768256,45.4005487814145));
#1036=CARTESIAN_POINT('',(13.,5.69476579204431,25.6992982819427));
#1037=CARTESIAN_POINT('',(13.,-14.4432546278373,47.062421460636));
#1038=CARTESIAN_POINT('',(13.,-9.58616574801718,11.2946764101977));
#1039=CARTESIAN_POINT('',(13.,2.58584126184978,22.7686600438328));
#1040=CARTESIAN_POINT('',(13.,-15.6625314835769,17.7406997521641));
#1041=CARTESIAN_POINT('Origin',(17.,-9.58616574801718,11.2946764101977));
#1042=CARTESIAN_POINT('',(17.,-9.58616574801718,11.2946764101977));
#1043=CARTESIAN_POINT('',(17.,-37.7094751166617,41.1288760836522));
#1044=CARTESIAN_POINT('Origin',(17.,5.69476579204431,25.6992982819427));
#1045=CARTESIAN_POINT('',(17.,5.69476579204431,25.6992982819427));
#1046=CARTESIAN_POINT('Origin',(17.,-22.4285435765999,55.5334979553968));
#1047=CARTESIAN_POINT('',(17.,-22.4285435765999,55.5334979553968));
#1048=CARTESIAN_POINT('Origin',(17.,-37.7094751166617,41.1288760836522));
#1049=CARTESIAN_POINT('Origin',(24.5,-38.9312774728044,20.7331168168595));
#1050=CARTESIAN_POINT('',(24.0116702985563,-40.1547262977867,22.2720779386421));
#1051=CARTESIAN_POINT('',(27.,-34.9141218591327,10.6081368068));
#1052=CARTESIAN_POINT('Origin',(24.0116702985561,-52.8826483591445,9.54415587728429));
#1053=CARTESIAN_POINT('',(27.,-25.5179658093392,20.0042928565944));
#1054=CARTESIAN_POINT('',(27.,-31.8602096609386,13.6620490049944));
#1055=CARTESIAN_POINT('',(22.,-39.6601014330702,34.1464284803252));
#1056=CARTESIAN_POINT('',(26.2090859361228,-27.7550086009528,22.2413356482079));
#1057=CARTESIAN_POINT('',(22.,-45.8481967319006,27.9583331814942));
#1058=CARTESIAN_POINT('',(22.,-39.6601014330702,34.1464284803252));
#1059=CARTESIAN_POINT('',(22.1256313292352,-45.4892500769428,27.6066017177983));
#1060=CARTESIAN_POINT('Origin',(22.0000000000002,-28.3463929340856,45.4601369793101));
#1061=CARTESIAN_POINT('',(25.2208853314048,-36.7345496992271,18.8519013400826));
#1062=CARTESIAN_POINT('Origin',(27.,-22.7586721914112,17.2449992386664));
#1063=CARTESIAN_POINT('',(27.,-22.7586721914112,17.2449992386664));
#1064=CARTESIAN_POINT('',(27.,-22.4784164236779,16.9647434709332));
#1065=CARTESIAN_POINT('',(27.,-22.7586721914112,17.2449992386664));
#1066=CARTESIAN_POINT('',(27.,-39.6601014330702,34.1464284803252));
#1067=CARTESIAN_POINT('Origin',(27.,-34.8826483591445,4.));
#1068=CARTESIAN_POINT('',(27.,-34.8826483591445,9.54415587728429));
#1069=CARTESIAN_POINT('Origin',(27.,-52.8826483591445,9.54415587728429));
#1070=CARTESIAN_POINT('',(27.,-34.8826483591445,4.));
#1071=CARTESIAN_POINT('',(27.,-34.8826483591445,4.));
#1072=CARTESIAN_POINT('',(27.,-15.0494324059374,4.));
#1073=CARTESIAN_POINT('',(27.,-17.4413241795723,4.));
#1074=CARTESIAN_POINT('Origin',(27.,-43.9718756270073,-3.96820419693009));
#1075=CARTESIAN_POINT('Origin',(24.5,-20.6541551638748,31.2715068047303));
#1076=CARTESIAN_POINT('',(22.,-16.7037784273718,56.4350869768298));
#1077=CARTESIAN_POINT('',(27.,3.88321686553929,34.595675398548));
#1078=CARTESIAN_POINT('',(23.3656837005137,-11.0807136445555,50.4699412925757));
#1079=CARTESIAN_POINT('',(27.,10.7024465539234,41.4149050869321));
#1080=CARTESIAN_POINT('',(27.,-10.0475534460766,20.6649050869321));
#1081=CARTESIAN_POINT('',(22.,-10.5107568816731,62.6281085225285));
#1082=CARTESIAN_POINT('',(23.2792883701074,-5.08319599209688,57.2005476329524));
#1083=CARTESIAN_POINT('',(22.,-16.7037784273718,56.4350869768298));
#1084=CARTESIAN_POINT('Origin',(27.,-16.7037784273718,56.4350869768298));
#1085=CARTESIAN_POINT('',(27.,-16.7037784273718,56.4350869768298));
#1086=CARTESIAN_POINT('',(27.,5.69514371718772,32.6735194112429));
#1087=CARTESIAN_POINT('',(27.,5.69514371718772,32.6735194112429));
#1088=CARTESIAN_POINT('',(27.,-7.89446653039705,47.0898578405637));
#1089=CARTESIAN_POINT('Origin',(22.,-31.8042190563111,49.084879228834));
#1090=CARTESIAN_POINT('Origin',(22.,-28.3463929340856,45.4601369793101));
#1091=CARTESIAN_POINT('',(22.,-10.8445891362701,62.9619407771256));
#1092=CARTESIAN_POINT('',(22.,-12.6152312292075,64.7325828700629));
#1093=CARTESIAN_POINT('Origin',(22.,-28.3463929340856,45.4601369793101));
#1094=CARTESIAN_POINT('Origin',(27.,-10.8445891362701,62.9619407771256));
#1095=CARTESIAN_POINT('',(27.,27.7950211705192,24.3223304703363));
#1096=CARTESIAN_POINT('',(27.,35.1173516408555,17.));
#1097=CARTESIAN_POINT('',(4.,27.7950211705192,24.3223304703363));
#1098=CARTESIAN_POINT('',(27.,27.7950211705192,24.3223304703363));
#1099=CARTESIAN_POINT('',(4.,-10.8445891362701,62.9619407771256));
#1100=CARTESIAN_POINT('',(4.,35.1173516408555,17.));
#1101=CARTESIAN_POINT('',(27.,-10.8445891362701,62.9619407771256));
#1102=CARTESIAN_POINT('Origin',(27.,-34.8826483591445,4.));
#1103=CARTESIAN_POINT('',(27.,18.9947634551571,4.));
#1104=CARTESIAN_POINT('Origin',(27.,-30.688026616293,-1.6231993310061));
#1105=CARTESIAN_POINT('',(27.,35.1173516408555,4.));
#1106=CARTESIAN_POINT('',(27.,-17.4413241795723,4.));
#1107=CARTESIAN_POINT('',(27.,35.1173516408555,6.64466094067262));
#1108=CARTESIAN_POINT('',(27.,35.1173516408555,4.));
#1109=CARTESIAN_POINT('Origin',(27.,10.1173516408555,6.64466094067262));
#1110=CARTESIAN_POINT('Origin',(27.,-28.3463929340856,45.4601369793101));
#1111=CARTESIAN_POINT('Origin',(17.,-36.1080966919363,47.4483370686433));
#1112=CARTESIAN_POINT('',(17.,-37.1458466919363,47.4483370686433));
#1113=CARTESIAN_POINT('Origin',(17.,4.09338736732049,19.3798372969509));
#1114=CARTESIAN_POINT('',(17.,3.05563736732049,19.3798372969509));
#1115=CARTESIAN_POINT('Origin',(17.,-28.8314626252402,54.3076808170931));
#1116=CARTESIAN_POINT('',(17.,-29.8692126252402,54.3076808170931));
#1117=CARTESIAN_POINT('Origin',(17.,-3.18324669937543,12.5204935485009));
#1118=CARTESIAN_POINT('',(17.,-4.22099669937543,12.5204935485009));
#1119=CARTESIAN_POINT('Origin',(17.,-22.8666984107585,40.6907212494936));
#1120=CARTESIAN_POINT('',(4.,-31.8666984107585,40.6907212494936));
#1121=CARTESIAN_POINT('',(17.,-31.8666984107585,40.6907212494936));
#1122=CARTESIAN_POINT('Origin',(4.,-22.8666984107585,40.6907212494936));
#1123=CARTESIAN_POINT('Origin',(27.,-30.688026616293,-1.6231993310061));
#1124=CARTESIAN_POINT('',(27.,18.9947634551571,4.));
#1125=CARTESIAN_POINT('Origin',(27.,-43.9718756270073,-3.96820419693009));
#1126=CARTESIAN_POINT('',(27.,-15.0494324059374,4.));
#1127=CARTESIAN_POINT('Origin',(15.5,-52.8826483591445,9.54415587728429));
#1128=CARTESIAN_POINT('',(4.,-40.1547262977867,22.2720779386421));
#1129=CARTESIAN_POINT('',(15.5,-40.1547262977867,22.2720779386421));
#1130=CARTESIAN_POINT('',(4.,-34.8826483591445,9.54415587728429));
#1131=CARTESIAN_POINT('Origin',(4.,-52.8826483591445,9.54415587728429));
#1132=CARTESIAN_POINT('',(15.5,-34.8826483591445,9.54415587728429));
#1133=CARTESIAN_POINT('Origin',(4.,-34.8826483591445,4.));
#1134=CARTESIAN_POINT('',(4.,-34.8826483591445,4.));
#1135=CARTESIAN_POINT('',(4.,-34.8826483591445,4.));
#1136=CARTESIAN_POINT('',(2.,-34.8826483591445,4.));
#1137=CARTESIAN_POINT('Origin',(27.,10.1173516408555,6.64466094067262));
#1138=CARTESIAN_POINT('',(4.,35.1173516408555,6.64466094067262));
#1139=CARTESIAN_POINT('Origin',(4.,10.1173516408555,6.64466094067262));
#1140=CARTESIAN_POINT('',(27.,35.1173516408555,6.64466094067262));
#1141=CARTESIAN_POINT('Origin',(4.,35.1173516408555,4.));
#1142=CARTESIAN_POINT('',(4.,35.1173516408555,4.));
#1143=CARTESIAN_POINT('',(4.,35.1173516408555,4.));
#1144=CARTESIAN_POINT('',(4.,17.5586758204277,4.));
#1145=CARTESIAN_POINT('',(4.,-45.4892500769428,27.6066017177983));
#1146=CARTESIAN_POINT('',(4.,-34.8826483591445,17.));
#1147=CARTESIAN_POINT('Origin',(4.,-28.3463929340856,45.4601369793101));
#1148=CARTESIAN_POINT('Origin',(27.,35.1173516408555,4.));
#1149=CARTESIAN_POINT('',(13.5,35.1173516408555,4.));
#1150=CARTESIAN_POINT('Origin',(27.,-28.3463929340856,45.4601369793101));
#1151=CARTESIAN_POINT('',(27.,-45.4892500769428,27.6066017177983));
#1152=CARTESIAN_POINT('Origin',(27.,-34.8826483591445,17.));
#1153=CARTESIAN_POINT('Origin',(0.,0.,0.));
#1154=CARTESIAN_POINT('',(-48.5,-5.93953697586466E-15,4.));
#1155=CARTESIAN_POINT('Origin',(0.,0.,4.));
#1156=CARTESIAN_POINT('',(-48.5,-5.93953697586466E-15,0.));
#1157=CARTESIAN_POINT('',(-48.5,-5.93953697586466E-15,0.));
#1158=CARTESIAN_POINT('Origin',(0.,0.,0.));
#1159=CARTESIAN_POINT('Origin',(0.,0.,4.));
#1160=CARTESIAN_POINT('Origin',(0.,0.,0.));
#1161=UNCERTAINTY_MEASURE_WITH_UNIT(LENGTH_MEASURE(0.01),#1165,
'DISTANCE_ACCURACY_VALUE',
'Maximum model space distance between geometric entities at asserted c
onnectivities');
#1162=UNCERTAINTY_MEASURE_WITH_UNIT(LENGTH_MEASURE(0.01),#1165,
'DISTANCE_ACCURACY_VALUE',
'Maximum model space distance between geometric entities at asserted c
onnectivities');
#1163=(
GEOMETRIC_REPRESENTATION_CONTEXT(3)
GLOBAL_UNCERTAINTY_ASSIGNED_CONTEXT((#1161))
GLOBAL_UNIT_ASSIGNED_CONTEXT((#1165,#1167,#1168))
REPRESENTATION_CONTEXT('','3D')
);
#1164=(
GEOMETRIC_REPRESENTATION_CONTEXT(3)
GLOBAL_UNCERTAINTY_ASSIGNED_CONTEXT((#1162))
GLOBAL_UNIT_ASSIGNED_CONTEXT((#1165,#1167,#1168))
REPRESENTATION_CONTEXT('','3D')
);
#1165=(
LENGTH_UNIT()
NAMED_UNIT(*)
SI_UNIT(.MILLI.,.METRE.)
);
#1166=(
LENGTH_UNIT()
NAMED_UNIT(*)
SI_UNIT($,.METRE.)
);
#1167=(
NAMED_UNIT(*)
PLANE_ANGLE_UNIT()
SI_UNIT($,.RADIAN.)
);
#1168=(
NAMED_UNIT(*)
SI_UNIT($,.STERADIAN.)
SOLID_ANGLE_UNIT()
);
#1169=SHAPE_DEFINITION_REPRESENTATION(#1170,#1171);
#1170=PRODUCT_DEFINITION_SHAPE('',$,#1173);
#1171=SHAPE_REPRESENTATION('',(#695),#1163);
#1172=PRODUCT_DEFINITION_CONTEXT('part definition',#1177,'design');
#1173=PRODUCT_DEFINITION('2026-01-09-17-21-17-583','Base 2',#1174,#1172);
#1174=PRODUCT_DEFINITION_FORMATION('',$,#1179);
#1175=PRODUCT_RELATED_PRODUCT_CATEGORY('Base 2','Base 2',(#1179));
#1176=APPLICATION_PROTOCOL_DEFINITION('international standard',
'automotive_design',2009,#1177);
#1177=APPLICATION_CONTEXT(
'Core Data for Automotive Mechanical Design Process');
#1178=PRODUCT_CONTEXT('part definition',#1177,'mechanical');
#1179=PRODUCT('2026-01-09-17-21-17-583','Base 2',$,(#1178));
#1180=PRESENTATION_STYLE_ASSIGNMENT((#1182));
#1181=PRESENTATION_STYLE_ASSIGNMENT((#1183));
#1182=SURFACE_STYLE_USAGE(.BOTH.,#1184);
#1183=SURFACE_STYLE_USAGE(.BOTH.,#1185);
#1184=SURFACE_SIDE_STYLE('',(#1186));
#1185=SURFACE_SIDE_STYLE('',(#1187));
#1186=SURFACE_STYLE_FILL_AREA(#1188);
#1187=SURFACE_STYLE_FILL_AREA(#1189);
#1188=FILL_AREA_STYLE('Steel - Satin',(#1190));
#1189=FILL_AREA_STYLE('Paint - Enamel Glossy (Dark Grey)',(#1191));
#1190=FILL_AREA_STYLE_COLOUR('Steel - Satin',#1192);
#1191=FILL_AREA_STYLE_COLOUR('Paint - Enamel Glossy (Dark Grey)',#1193);
#1192=COLOUR_RGB('Steel - Satin',0.627450980392157,0.627450980392157,0.627450980392157);
#1193=COLOUR_RGB('Paint - Enamel Glossy (Dark Grey)',0.349019607843137,
0.349019607843137,0.349019607843137);
ENDSEC;
END-ISO-10303-21;
